<svg width="52" height="52" viewBox="0 0 52 52" fill="none" xmlns="http://www.w3.org/2000/svg">
<path d="M50.996 25.9484C50.996 25.0455 50.9312 24.1568 50.8381 23.2762C50.8381 23.2317 50.8279 23.1912 50.8198 23.1467C49.6072 12.3932 41.532 3.48391 30.6955 1.44131L29.9991 1.32188C29.9911 1.31985 29.983 1.31783 29.9749 1.31783L29.8635 1.29758C29.8574 1.29556 29.8493 1.29556 29.8412 1.29353C28.578 1.09919 27.2865 1 25.999 1C15.122 1 5.56294 7.94765 2.2126 18.2881C1.74699 19.7255 1.41095 21.2194 1.21256 22.7276C1.07085 23.8046 1 24.9038 1 25.997C1 26.3148 1.00607 26.6326 1.01822 26.9484C1.17612 31.1166 2.38265 35.2058 4.51026 38.7768C4.54063 38.8275 4.57707 38.8781 4.61958 38.9206C4.62768 38.9287 4.63578 38.9388 4.6459 38.9469C4.88275 39.1939 5.07709 39.4348 5.23904 39.6817C7.27758 42.7669 9.94773 45.2629 12.9863 47.1395C13.0835 47.2407 13.2009 47.3156 13.3386 47.3582C17.1343 49.6133 21.4948 50.8887 26.0597 50.8887C34.8475 50.8887 42.8215 46.3986 47.3723 38.9307C47.4189 38.8841 47.4594 38.8315 47.4918 38.7748C49.7854 34.9224 51 30.5052 51 25.9747V25.9484H50.996ZM49.1173 22.9928C48.5505 23.5981 47.8076 24.4605 47.5424 25.0921C47.4897 25.1407 47.2792 25.2075 47.1537 25.248C46.7832 25.3654 46.2771 25.5253 46.0342 26.0476C45.8783 26.3816 45.8844 26.7622 46.0545 27.1752C46.3581 27.914 46.5423 29.7704 45.5909 30.7219C44.3175 31.9952 43.5301 33.2341 43.5301 35.4731C43.5301 37.1492 42.113 39.2627 40.785 41.1109C40.6332 41.3215 40.4692 41.532 40.289 41.7446C40.1109 41.9571 39.9226 42.1656 39.7283 42.3701C39.4226 42.6879 39.1088 42.9875 38.791 43.2588C38.3031 43.5098 37.793 43.7487 37.2383 43.9937C37.046 44.0787 36.8517 44.1617 36.6573 44.2406C36.5541 44.0584 36.4164 43.777 36.2484 43.356C35.6795 41.9187 35.1795 39.8801 35.1795 38.9894C35.1795 38.4084 35.3253 38.0805 35.5075 37.6655C35.7099 37.2039 35.9407 36.6836 35.9407 35.884C35.9407 34.9487 35.4791 34.3455 35.1431 33.9062C34.8576 33.5337 34.7099 33.3232 34.7099 33.0134C34.7099 31.4891 33.8718 30.6571 33.1997 29.987L33.1167 29.904C32.3636 29.1489 31.2522 29.6085 30.0781 30.0923C29.4364 30.3554 28.7076 30.6551 28.2481 30.6551C27.333 30.6551 25.7257 29.1003 24.8532 27.7076C24.1487 26.58 24.4645 22.3126 25.8127 21.3186C27.7865 19.8631 28.3675 18.2355 28.3918 18.1667C28.5173 17.8023 28.3776 17.3974 28.0537 17.1889C27.4646 16.8124 27.3594 16.4257 27.331 16.1666C27.2359 15.2901 27.9889 14.1726 28.4849 13.6766C28.6975 13.4641 29.5518 13.3912 30.0619 13.3446C30.8453 13.2778 31.5235 13.2191 31.9425 12.796C32.564 12.1766 32.4021 11.3688 32.2826 10.7797C32.2341 10.5328 32.1855 10.3 32.1814 10.14C32.2442 9.96798 32.8879 9.4133 34.3819 8.89101C35.6957 8.42945 37.6432 6.50832 37.8132 6.33422L38.1331 6.06093C44.0969 9.68254 48.2084 15.8872 49.1173 22.9928ZM25.999 2.66808C26.8553 2.66808 27.7055 2.73084 28.5416 2.82194L28.1266 3.55071C28.1064 3.5831 26.0617 6.76542 23.2884 7.27961C20.0129 7.88489 19.604 8.1764 18.689 9.09345C18.4258 9.35661 18.1343 9.42139 18.108 9.43354C18.0958 9.41532 18.0634 9.32827 18.0634 9.1562C18.0634 8.80396 18.1444 8.42743 18.2153 8.09745C18.3448 7.49217 18.4926 6.8059 17.9501 6.35244C17.3853 5.87874 16.6039 6.19657 16.2678 6.3322L15.9581 6.45569C14.8548 6.89902 13.9013 7.28163 13.7171 8.17843C13.6118 8.69869 13.8305 9.1481 14.0592 9.46188C13.4054 9.7291 12.3243 10.3587 12.798 11.8648C12.9661 12.4053 13.1321 12.8183 13.2677 13.1523C13.3669 13.3973 13.4904 13.705 13.4924 13.7778C13.4924 13.7778 13.4641 13.8487 13.2981 14.0147C13.29 14.0228 13.2819 14.0309 13.2738 14.037C13.2029 13.9965 13.1058 13.9317 13.0329 13.8811C12.707 13.6604 12.2616 13.3568 11.6604 13.3568C10.3465 13.3568 10.3445 14.6726 10.3445 15.1038C10.3445 15.2475 10.3445 15.4965 10.3202 15.6079C10.2008 15.6241 9.99227 15.6281 9.84651 15.6301C9.28981 15.6382 8.52864 15.6504 7.84846 16.0877C7.29985 16.4419 6.91117 17.0108 6.69456 17.774C6.59334 18.1302 6.42937 18.4906 6.20871 18.8449C6.15203 18.9339 6.09332 19.021 6.03259 19.108C5.90708 19.2841 5.76942 19.4542 5.62164 19.6182C5.54674 19.7032 5.46982 19.7842 5.39087 19.8631C5.15401 20.104 4.88882 20.3368 4.60743 20.5555C4.51229 20.6283 4.41512 20.6992 4.31997 20.768C3.94546 21.0352 3.54464 21.2741 3.12762 21.4846C3.30576 20.5757 3.51832 19.6728 3.80173 18.7983C6.92737 9.15215 15.8468 2.66808 25.999 2.66808ZM6.62978 38.7606C6.42127 38.4448 6.18037 38.1432 5.89493 37.8396C3.93939 34.5277 2.83206 30.7421 2.6863 26.8877C2.67821 26.6448 2.67416 26.4018 2.67213 26.1589C2.70655 26.2723 2.74501 26.3836 2.78752 26.495C2.86647 26.6954 2.95757 26.8917 3.06486 27.078C3.2511 27.408 3.47986 27.7096 3.74505 27.9748C3.85639 28.0861 3.9819 28.1772 4.13778 28.2602C4.16005 28.2703 4.24305 28.3068 4.26531 28.3169C4.35641 28.3513 4.44953 28.3776 4.55075 28.3959C4.67019 28.4161 4.79165 28.4262 4.93133 28.4161C5.06292 28.41 5.20057 28.3878 5.33013 28.3594L5.62569 28.2886L5.42123 27.4788L5.73298 28.2622L5.86862 28.2339C6.12571 28.1813 6.28969 28.1914 6.45569 28.2663C6.87878 28.4546 7.71485 28.9526 8.63594 29.5659C9.03474 29.8311 9.43152 30.1085 9.78781 30.3676C10.4822 30.8757 10.7777 31.1429 10.8931 31.2563C11.1057 31.4689 11.1745 31.651 11.2717 31.9041C11.4377 32.3414 11.6644 32.9365 12.5693 33.4021C12.8649 33.554 13.2819 33.72 13.7657 33.9123C14.5512 34.224 16.6363 35.052 16.8043 35.5318C16.8043 35.9265 16.6808 36.0723 16.4561 36.3375C16.2091 36.627 15.8366 37.0662 15.8366 37.7889C15.8366 37.9448 15.8528 38.1209 15.8852 38.3133C15.9196 38.5238 15.9723 38.7586 16.0269 39.0036C16.1747 39.6615 16.3792 40.5644 16.0816 40.8619C15.8265 41.117 15.5249 41.2486 15.1747 41.4025C14.5532 41.6757 13.7819 42.0138 13.2556 43.0746C13.1017 43.3904 12.9661 44.2892 12.875 45.1111C10.4437 43.4349 8.31204 41.3053 6.62978 38.7606ZM49.3258 25.997C49.3258 30.2016 48.1942 34.3252 46.0747 37.8638C46.0302 37.9084 45.9917 37.959 45.9593 38.0137C41.698 45.0301 34.2564 49.2206 26.0557 49.2206C21.9037 49.2206 17.9278 48.095 14.4499 46.0889C14.5127 45.3561 14.6706 44.0584 14.7516 43.8135C15.0066 43.2973 15.3204 43.1596 15.8427 42.9309C16.2618 42.7466 16.782 42.5179 17.2598 42.0422C18.2072 41.0927 17.8873 39.6736 17.6545 38.6372C17.6059 38.4246 17.5614 38.2242 17.531 38.042C17.5169 37.9489 17.5047 37.8638 17.5047 37.791C17.5047 37.6999 17.5229 37.6614 17.7274 37.4205C18.025 37.0703 18.4724 36.5419 18.4724 35.5338C18.4724 33.9851 16.2982 33.1228 14.3811 32.3616C13.956 32.1936 13.5531 32.0337 13.3305 31.9183C12.9964 31.7462 12.958 31.645 12.8304 31.313C12.707 30.9891 12.5389 30.5437 12.0733 30.0801C11.8102 29.817 11.3709 29.4586 10.7717 29.0214C10.3971 28.7481 9.98215 28.4586 9.5631 28.1792C9.07725 27.8553 7.8687 27.0679 7.13385 26.7419C6.49415 26.4565 5.92125 26.5233 5.54674 26.5962L4.98599 26.7237C4.94955 26.7318 4.91514 26.7399 4.87668 26.744C4.73902 26.5982 4.61958 26.4342 4.51836 26.2541C4.45156 26.1366 4.39285 26.0111 4.34426 25.8856C4.30985 25.7986 4.27948 25.7095 4.25317 25.6204L4.2147 25.4808C4.16612 25.2905 4.13171 25.0961 4.10944 24.9018C4.02441 24.1649 4.10336 23.4037 4.21066 22.8086C4.58314 22.6021 4.9455 22.3774 5.28965 22.1324C5.40301 22.0515 5.51638 21.9685 5.62772 21.8814C5.96984 21.6182 6.28766 21.3348 6.57917 21.0433C6.67837 20.9421 6.77351 20.8409 6.86663 20.7376C7.0549 20.5271 7.229 20.3105 7.38892 20.0878C7.4699 19.9745 7.54682 19.8591 7.62173 19.7417C7.92943 19.2518 8.15818 18.7457 8.30394 18.2355C8.40718 17.8671 8.55496 17.6262 8.75537 17.4966C9.03271 17.3185 9.45986 17.3124 9.87283 17.3063C10.4194 17.2982 11.0409 17.2901 11.4903 16.8407C11.9802 16.3529 12.0126 15.6889 12.0166 15.2131C12.045 15.2313 12.0713 15.2496 12.0976 15.2678C12.5106 15.5492 13.4742 16.2051 14.4803 15.199C15.4864 14.1928 15.1767 13.4236 14.8184 12.5329C14.6969 12.2312 14.5471 11.8608 14.3933 11.3709C14.3568 11.2555 14.3568 11.1907 14.3507 11.1907C14.4155 11.1057 14.7394 10.9923 14.9115 10.9316C15.3407 10.7797 15.9318 10.5733 16.0735 9.94368C16.2172 9.31005 15.7476 8.8404 15.5917 8.68655C15.5249 8.61974 15.4763 8.56508 15.4419 8.52257C15.6787 8.37682 16.1443 8.18653 16.5229 8.03267C16.4561 8.3667 16.3933 8.75133 16.3933 9.16025C16.3933 10.389 17.116 10.8223 17.4278 10.9518C18.1768 11.2616 19.1566 10.9903 19.8692 10.2797C20.5089 9.638 20.681 9.46593 23.592 8.92745C27.076 8.28167 29.4384 4.60541 29.5578 4.41714L30.321 3.07701L30.3939 3.08915C32.5924 3.50415 34.6633 4.23292 36.5804 5.20665C35.8415 5.9334 34.5257 7.07515 33.8313 7.31807C32.3191 7.84643 30.5174 8.75942 30.5174 10.0996C30.5174 10.47 30.5862 10.8121 30.6469 11.1117C30.6793 11.2696 30.7239 11.4964 30.7502 11.5834C30.5538 11.628 30.1813 11.6604 29.9182 11.6846C28.9951 11.7636 27.9464 11.8567 27.3047 12.4984C26.6164 13.1867 25.501 14.7718 25.671 16.3488C25.7257 16.8508 25.9302 17.5189 26.5537 18.1242C26.2723 18.5878 25.7399 19.2983 24.8228 19.9765C22.6912 21.5494 22.3369 26.829 23.4382 28.5942C24.2459 29.8858 26.2905 32.3272 28.2501 32.3272C29.0396 32.3272 29.8919 31.977 30.7158 31.6389C31.1389 31.4648 31.7583 31.2097 32.0336 31.1814C32.6592 31.8049 33.0418 32.23 33.0418 33.0155C33.0418 33.9062 33.4709 34.469 33.8171 34.9224C34.1167 35.3131 34.2726 35.5338 34.2726 35.8881C34.2726 36.3354 34.1511 36.6128 33.9811 36.9954C33.7706 37.4711 33.5114 38.0602 33.5114 38.9934C33.5114 40.2222 34.1268 42.5361 34.6977 43.9754C35.0378 44.8338 35.3637 45.4107 35.6876 45.7346C35.7909 45.8399 35.9103 45.9269 36.0399 45.9897C36.1573 46.0484 36.2848 46.0788 36.4144 46.0788C36.5156 46.0788 36.6189 46.0605 36.716 46.0221C37.1189 45.8662 37.5177 45.7002 37.9124 45.5261C38.5339 45.2528 39.0987 44.9856 39.6615 44.6941C39.7121 44.6678 39.7607 44.6334 39.8032 44.5969C40.1898 44.271 40.5725 43.9106 40.9389 43.528C41.1595 43.2973 41.3721 43.0604 41.5705 42.8236C41.777 42.5806 41.9693 42.3337 42.1454 42.0887C43.6252 40.0279 45.2042 37.6493 45.2042 35.4771C45.2042 33.7868 45.7346 32.9487 46.7772 31.9061C48.1517 30.5316 48.1598 28.246 47.7084 26.831C48.1213 26.6994 48.7691 26.4727 49.0647 25.7844C49.1092 25.6832 49.1963 25.5415 49.3076 25.3816C49.3117 25.5739 49.3339 25.7621 49.3339 25.9545V25.997H49.3258Z" fill="white"/>
<path d="M50.996 25.9484H50.746V26.1984H50.996V25.9484ZM50.8381 23.2762H50.5881V23.2894L50.5894 23.3025L50.8381 23.2762ZM50.8198 23.1467L50.5714 23.1747L50.5724 23.1831L50.5739 23.1914L50.8198 23.1467ZM30.6955 1.44131L30.7418 1.19561L30.7378 1.19491L30.6955 1.44131ZM29.9991 1.32188L29.9385 1.56441L29.9476 1.56669L29.9569 1.56828L29.9991 1.32188ZM29.9749 1.31783L29.9301 1.56379L29.9523 1.56783H29.9749V1.31783ZM29.8635 1.29758L29.7845 1.53475L29.8013 1.54037L29.8188 1.54355L29.8635 1.29758ZM29.8412 1.29353L29.9019 1.051L29.8907 1.0482L29.8793 1.04644L29.8412 1.29353ZM2.2126 18.2881L1.97477 18.2111L1.97477 18.2111L2.2126 18.2881ZM1.21256 22.7276L1.46042 22.7602L1.46042 22.7602L1.21256 22.7276ZM1.01822 26.9484L1.26804 26.939L1.26803 26.9388L1.01822 26.9484ZM4.51026 38.7768L4.29549 38.9048L4.29589 38.9055L4.51026 38.7768ZM4.61958 38.9206L4.79636 38.7438L4.61958 38.9206ZM4.6459 38.9469L4.82633 38.7738L4.81493 38.762L4.80207 38.7517L4.6459 38.9469ZM5.23904 39.6817L5.02998 39.8188L5.03046 39.8196L5.23904 39.6817ZM12.9863 47.1395L13.1667 46.9664L13.1447 46.9435L13.1177 46.9268L12.9863 47.1395ZM13.3386 47.3582L13.4663 47.1432L13.4407 47.1281L13.4123 47.1193L13.3386 47.3582ZM47.3723 38.9307L47.1955 38.7539L47.1744 38.7751L47.1588 38.8006L47.3723 38.9307ZM47.4918 38.7748L47.2769 38.6469L47.2747 38.6508L47.4918 38.7748ZM51 25.9484H51.25V25.6984H51V25.9484ZM49.1173 22.9928L49.2998 23.1637L49.3802 23.0778L49.3653 22.9611L49.1173 22.9928ZM47.5424 25.0921L47.7119 25.2758L47.7518 25.2389L47.7729 25.1889L47.5424 25.0921ZM47.1537 25.248L47.2292 25.4863L47.2304 25.4859L47.1537 25.248ZM46.0342 26.0476L46.2608 26.1533L46.2609 26.153L46.0342 26.0476ZM46.0545 27.1752L46.2857 27.0801L46.2856 27.08L46.0545 27.1752ZM40.785 41.1109L40.9878 41.2572L40.988 41.2568L40.785 41.1109ZM40.289 41.7446L40.0983 41.5829L40.0974 41.584L40.289 41.7446ZM39.7283 42.3701L39.9085 42.5434L39.9095 42.5423L39.7283 42.3701ZM38.791 43.2588L38.9054 43.4811L38.9312 43.4678L38.9533 43.449L38.791 43.2588ZM37.2383 43.9937L37.1373 43.765L37.1372 43.765L37.2383 43.9937ZM36.6573 44.2406L36.4398 44.3639L36.548 44.5549L36.7514 44.4722L36.6573 44.2406ZM36.2484 43.356L36.0159 43.448L36.0162 43.4486L36.2484 43.356ZM35.5075 37.6655L35.7364 37.766L35.7364 37.7659L35.5075 37.6655ZM35.1431 33.9062L35.3416 33.7543L35.3415 33.7541L35.1431 33.9062ZM33.1997 29.987L33.0229 30.1638L33.0232 30.1641L33.1997 29.987ZM33.1167 29.904L32.9397 30.0805L32.9399 30.0808L33.1167 29.904ZM30.0781 30.0923L30.173 30.3236L30.1733 30.3234L30.0781 30.0923ZM24.8532 27.7076L24.6412 27.84L24.6413 27.8403L24.8532 27.7076ZM25.8127 21.3186L25.9611 21.5199L25.9611 21.5198L25.8127 21.3186ZM28.3918 18.1667L28.6276 18.2499L28.6282 18.2481L28.3918 18.1667ZM28.0537 17.1889L28.1891 16.9787L28.1884 16.9783L28.0537 17.1889ZM27.331 16.1666L27.0825 16.1936L27.0825 16.1938L27.331 16.1666ZM30.0619 13.3446L30.0407 13.0955L30.0392 13.0957L30.0619 13.3446ZM31.9425 12.796L31.7661 12.619L31.7649 12.6201L31.9425 12.796ZM32.2826 10.7797L32.0373 10.828L32.0376 10.8294L32.2826 10.7797ZM32.1814 10.14L31.9466 10.0544L31.9303 10.099L31.9315 10.1464L32.1814 10.14ZM34.3819 8.89101L34.4644 9.127L34.4648 9.12688L34.3819 8.89101ZM37.8132 6.33422L37.6508 6.14416L37.6423 6.15148L37.6344 6.15954L37.8132 6.33422ZM38.1331 6.06093L38.2628 5.84725L38.1082 5.75335L37.9707 5.87087L38.1331 6.06093ZM28.5416 2.82194L28.7588 2.94565L28.9473 2.61466L28.5687 2.57341L28.5416 2.82194ZM28.1266 3.55071L28.3388 3.68332L28.3439 3.67442L28.1266 3.55071ZM23.2884 7.27961L23.3338 7.52544L23.3339 7.52542L23.2884 7.27961ZM18.689 9.09345L18.8658 9.27022L18.8659 9.27003L18.689 9.09345ZM18.108 9.43354L17.9 9.57222L18.0186 9.75014L18.2127 9.66053L18.108 9.43354ZM18.2153 8.09745L18.4597 8.14994L18.4597 8.14978L18.2153 8.09745ZM17.9501 6.35244L17.7894 6.54399L17.7898 6.54426L17.9501 6.35244ZM16.2678 6.3322L16.3604 6.56443L16.3614 6.56403L16.2678 6.3322ZM15.9581 6.45569L15.8655 6.22346L15.8649 6.22371L15.9581 6.45569ZM13.7171 8.17843L13.4722 8.12813L13.4721 8.12885L13.7171 8.17843ZM14.0592 9.46188L14.1538 9.6933L14.4493 9.57255L14.2612 9.31461L14.0592 9.46188ZM12.798 11.8648L13.0368 11.7906L13.0365 11.7898L12.798 11.8648ZM13.2677 13.1523L13.4994 13.0585L13.4993 13.0583L13.2677 13.1523ZM13.4924 13.7778L13.7245 13.8707L13.7437 13.8226L13.7423 13.7709L13.4924 13.7778ZM13.2981 14.0147L13.1213 13.8379L13.2981 14.0147ZM13.2738 14.037L13.1497 14.254L13.2924 14.3355L13.4238 14.237L13.2738 14.037ZM13.0329 13.8811L13.1755 13.6757L13.173 13.6741L13.0329 13.8811ZM10.3202 15.6079L10.3538 15.8556L10.5272 15.8321L10.5645 15.6612L10.3202 15.6079ZM9.84651 15.6301L9.84304 15.3802L9.84288 15.3802L9.84651 15.6301ZM7.84846 16.0877L7.71327 15.8774L7.71284 15.8776L7.84846 16.0877ZM6.69456 17.774L6.93505 17.8423L6.93506 17.8422L6.69456 17.774ZM6.20871 18.8449L6.41964 18.9791L6.42092 18.977L6.20871 18.8449ZM6.03259 19.108L6.23619 19.2531L6.23762 19.2511L6.03259 19.108ZM5.62164 19.6182L5.43592 19.4508L5.43406 19.4529L5.62164 19.6182ZM5.39087 19.8631L5.21408 19.6863L5.2126 19.6878L5.39087 19.8631ZM4.60743 20.5555L4.75946 20.7539L4.76082 20.7529L4.60743 20.5555ZM4.31997 20.768L4.46518 20.9715L4.4665 20.9706L4.31997 20.768ZM3.12762 21.4846L2.88228 21.4366L2.78397 21.9382L3.24029 21.7078L3.12762 21.4846ZM3.80173 18.7983L4.03956 18.8754L4.03956 18.8754L3.80173 18.7983ZM6.62978 38.7606L6.42116 38.8984L6.42124 38.8985L6.62978 38.7606ZM5.89493 37.8396L5.67966 37.9667L5.69377 37.9906L5.71278 38.0108L5.89493 37.8396ZM2.6863 26.8877L2.43644 26.896L2.43648 26.8971L2.6863 26.8877ZM2.67213 26.1589L2.91135 26.0863L2.42214 26.161L2.67213 26.1589ZM2.78752 26.495L2.55395 26.5841L2.55492 26.5866L2.78752 26.495ZM3.06486 27.078L3.28258 26.9551L3.28149 26.9532L3.06486 27.078ZM3.74505 27.9748L3.56827 28.1516L3.74505 27.9748ZM4.13778 28.2602L4.02028 28.4809L4.0272 28.4846L4.03433 28.4878L4.13778 28.2602ZM4.26531 28.3169L4.16186 28.5445L4.16931 28.5479L4.17696 28.5508L4.26531 28.3169ZM4.55075 28.3959L4.50646 28.6419L4.50897 28.6423L4.55075 28.3959ZM4.93133 28.4161L4.9198 28.1663L4.91326 28.1668L4.93133 28.4161ZM5.33013 28.3594L5.38357 28.6037L5.38841 28.6025L5.33013 28.3594ZM5.62569 28.2886L5.68397 28.5317L5.93003 28.4727L5.86809 28.2274L5.62569 28.2886ZM5.42123 27.4788L5.65352 27.3864L5.17884 27.54L5.42123 27.4788ZM5.73298 28.2622L5.5007 28.3547L5.5784 28.5499L5.78412 28.507L5.73298 28.2622ZM5.86862 28.2339L5.81848 27.989L5.81748 27.9892L5.86862 28.2339ZM6.45569 28.2663L6.35286 28.4942L6.35405 28.4947L6.45569 28.2663ZM8.63594 29.5659L8.49737 29.774L8.49751 29.7741L8.63594 29.5659ZM9.78781 30.3676L9.93544 30.1658L9.93485 30.1654L9.78781 30.3676ZM10.8931 31.2563L11.0699 31.0795L11.0683 31.078L10.8931 31.2563ZM11.2717 31.9041L11.5054 31.8154L11.5051 31.8145L11.2717 31.9041ZM12.5693 33.4021L12.4549 33.6244L12.4551 33.6245L12.5693 33.4021ZM13.7657 33.9123L13.6734 34.1446L13.6735 34.1446L13.7657 33.9123ZM16.8043 35.5318H17.0543V35.4893L17.0402 35.4491L16.8043 35.5318ZM16.4561 36.3375L16.6463 36.4997L16.6468 36.4991L16.4561 36.3375ZM15.8852 38.3133L16.1319 38.2729L16.1317 38.2717L15.8852 38.3133ZM16.0269 39.0036L15.7829 39.058L15.783 39.0584L16.0269 39.0036ZM16.0816 40.8619L15.9048 40.6852L16.0816 40.8619ZM15.1747 41.4025L15.0741 41.1736L15.074 41.1736L15.1747 41.4025ZM13.2556 43.0746L13.0316 42.9635L13.0308 42.9651L13.2556 43.0746ZM12.875 45.1111L12.7331 45.3169L13.0774 45.5543L13.1235 45.1386L12.875 45.1111ZM49.3258 25.997V25.747H49.0758V25.997H49.3258ZM46.0747 37.8638L46.2515 38.0406L46.2733 38.0188L46.2892 37.9923L46.0747 37.8638ZM45.9593 38.0137L46.173 38.1434L46.1744 38.1411L45.9593 38.0137ZM14.4499 46.0889L14.2008 46.0675L14.1873 46.226L14.325 46.3054L14.4499 46.0889ZM14.7516 43.8135L14.5274 43.7027L14.5197 43.7184L14.5142 43.735L14.7516 43.8135ZM15.8427 42.9309L15.943 43.1599L15.9433 43.1597L15.8427 42.9309ZM17.2598 42.0422L17.4362 42.2193L17.4367 42.2187L17.2598 42.0422ZM17.6545 38.6372L17.8984 38.5824L17.8982 38.5815L17.6545 38.6372ZM17.531 38.042L17.2839 38.0796L17.2844 38.0831L17.531 38.042ZM17.7274 37.4205L17.5369 37.2586L17.5368 37.2587L17.7274 37.4205ZM14.3811 32.3616L14.4734 32.1292L14.473 32.1291L14.3811 32.3616ZM13.3305 31.9183L13.4455 31.6963L13.4449 31.696L13.3305 31.9183ZM12.8304 31.313L12.5968 31.402L12.5971 31.4026L12.8304 31.313ZM12.0733 30.0801L11.8965 30.2569L11.8969 30.2573L12.0733 30.0801ZM10.7717 29.0214L10.6243 29.2233L10.7717 29.0214ZM9.5631 28.1792L9.42443 28.3873L9.5631 28.1792ZM7.13385 26.7419L7.03198 26.9702L7.03249 26.9705L7.13385 26.7419ZM5.54674 26.5962L5.49897 26.3507L5.4913 26.3524L5.54674 26.5962ZM4.98599 26.7237L5.04022 26.9678L5.04143 26.9675L4.98599 26.7237ZM4.87668 26.744L4.69492 26.9156L4.77984 27.0055L4.90285 26.9926L4.87668 26.744ZM4.51836 26.2541L4.73632 26.1316L4.73565 26.1304L4.51836 26.2541ZM4.34426 25.8856L4.57741 25.7954L4.57676 25.7937L4.34426 25.8856ZM4.25317 25.6204L4.0121 25.6868L4.01341 25.6913L4.25317 25.6204ZM4.2147 25.4808L3.97243 25.5426L3.97368 25.5471L4.2147 25.4808ZM4.10944 24.9018L4.35781 24.8733L4.35779 24.8731L4.10944 24.9018ZM4.21066 22.8086L4.08945 22.5899L3.98567 22.6475L3.96462 22.7642L4.21066 22.8086ZM5.28965 22.1324L5.43462 22.3361L5.43496 22.3359L5.28965 22.1324ZM5.62772 21.8814L5.47529 21.6833L5.47374 21.6845L5.62772 21.8814ZM6.57917 21.0433L6.75596 21.2201L6.75773 21.2183L6.57917 21.0433ZM6.86663 20.7376L7.05228 20.9051L7.05299 20.9043L6.86663 20.7376ZM7.38892 20.0878L7.59198 20.2337L7.59236 20.2331L7.38892 20.0878ZM7.62173 19.7417L7.8325 19.8761L7.83343 19.8746L7.62173 19.7417ZM8.30394 18.2355L8.54432 18.3042L8.54467 18.303L8.30394 18.2355ZM8.75537 17.4966L8.62026 17.2863L8.61965 17.2867L8.75537 17.4966ZM9.87283 17.3063L9.87651 17.5563L9.87653 17.5563L9.87283 17.3063ZM11.4903 16.8407L11.3139 16.6636L11.3135 16.6639L11.4903 16.8407ZM12.0166 15.2131L12.1518 15.0028L11.7705 14.7577L11.7666 15.211L12.0166 15.2131ZM12.0976 15.2678L11.9553 15.4733L11.9568 15.4744L12.0976 15.2678ZM14.8184 12.5329L15.0503 12.4396L15.0503 12.4395L14.8184 12.5329ZM14.3933 11.3709L14.6318 11.296L14.6317 11.2956L14.3933 11.3709ZM14.3507 11.1907L14.1519 11.0392L13.846 11.4407H14.3507V11.1907ZM14.9115 10.9316L14.9947 11.1673L14.9949 11.1673L14.9115 10.9316ZM16.0735 9.94368L15.8297 9.88838L15.8296 9.88879L16.0735 9.94368ZM15.5917 8.68655L15.4149 8.86333L15.4161 8.86447L15.5917 8.68655ZM15.4419 8.52257L15.3109 8.30966L15.0686 8.45876L15.2476 8.67987L15.4419 8.52257ZM16.5229 8.03267L16.768 8.0817L16.8592 7.62616L16.4288 7.80107L16.5229 8.03267ZM17.4278 10.9518L17.3318 11.1827L17.3323 11.1828L17.4278 10.9518ZM19.8692 10.2797L20.0457 10.4568L20.0462 10.4562L19.8692 10.2797ZM23.592 8.92745L23.6375 9.17328L23.6376 9.17326L23.592 8.92745ZM29.5578 4.41714L29.7692 4.55122L29.7751 4.54086L29.5578 4.41714ZM30.321 3.07701L30.3621 2.83041L30.1901 2.80174L30.1038 2.95329L30.321 3.07701ZM30.3939 3.08915L30.4403 2.84343L30.435 2.84255L30.3939 3.08915ZM36.5804 5.20665L36.7557 5.38488L37.0035 5.14115L36.6936 4.98375L36.5804 5.20665ZM33.8313 7.31807L33.9138 7.55408L33.9138 7.55405L33.8313 7.31807ZM30.6469 11.1117L30.4019 11.1614L30.402 11.162L30.6469 11.1117ZM30.7502 11.5834L30.8055 11.8272L31.0671 11.7679L30.9895 11.5111L30.7502 11.5834ZM29.9182 11.6846L29.9395 11.9337L29.9412 11.9336L29.9182 11.6846ZM25.671 16.3488L25.4225 16.3756L25.4225 16.3759L25.671 16.3488ZM26.5537 18.1242L26.7674 18.2539L26.8708 18.0836L26.7278 17.9448L26.5537 18.1242ZM24.8228 19.9765L24.9713 20.1776L24.9715 20.1775L24.8228 19.9765ZM23.4382 28.5942L23.226 28.7266L23.2262 28.7268L23.4382 28.5942ZM30.7158 31.6389L30.8107 31.8702L30.8109 31.8701L30.7158 31.6389ZM32.0336 31.1814L32.2101 31.0043L32.1261 30.9206L32.008 30.9327L32.0336 31.1814ZM33.8171 34.9224L33.6184 35.0741L33.6187 35.0746L33.8171 34.9224ZM33.9811 36.9954L33.7526 36.8939L33.7525 36.8942L33.9811 36.9954ZM34.6977 43.9754L34.9301 43.8833L34.9301 43.8833L34.6977 43.9754ZM35.6876 45.7346L35.8661 45.5596L35.8644 45.5578L35.6876 45.7346ZM36.0399 45.9897L36.1517 45.7661L36.1489 45.7647L36.0399 45.9897ZM36.716 46.0221L36.6258 45.7889L36.624 45.7896L36.716 46.0221ZM37.9124 45.5261L37.8118 45.2973L37.8115 45.2974L37.9124 45.5261ZM39.6615 44.6941L39.7765 44.9161L39.7768 44.9159L39.6615 44.6941ZM39.8032 44.5969L39.6421 44.4058L39.6405 44.4071L39.8032 44.5969ZM40.9389 43.528L41.1194 43.701L41.1196 43.7008L40.9389 43.528ZM41.5705 42.8236L41.38 42.6616L41.3788 42.663L41.5705 42.8236ZM42.1454 42.0887L42.3484 42.2347L42.3485 42.2345L42.1454 42.0887ZM47.7084 26.831L47.6325 26.5928L47.3942 26.6687L47.4702 26.907L47.7084 26.831ZM49.0647 25.7844L48.8359 25.6837L48.835 25.6858L49.0647 25.7844ZM49.3076 25.3816L49.5576 25.3763L49.5414 24.6082L49.1025 25.2387L49.3076 25.3816ZM49.3339 25.997V26.247H49.5839V25.997H49.3339ZM51.246 25.9484C51.246 25.0338 51.1803 24.1357 51.0867 23.2499L50.5894 23.3025C50.682 24.1779 50.746 25.0573 50.746 25.9484H51.246ZM51.0881 23.2762C51.0881 23.202 51.0702 23.1261 51.0658 23.1019L50.5739 23.1914C50.5857 23.2562 50.5881 23.2613 50.5881 23.2762H51.0881ZM51.0683 23.1186C49.8435 12.2578 41.6878 3.25887 30.7418 1.19564L30.6492 1.68699C41.3762 3.70894 49.3709 12.5286 50.5714 23.1747L51.0683 23.1186ZM30.7378 1.19491L30.0414 1.07547L29.9569 1.56828L30.6533 1.68772L30.7378 1.19491ZM30.0598 1.07934C30.0576 1.07879 30.0191 1.06783 29.9749 1.06783V1.56783C29.9585 1.56783 29.9462 1.56581 29.9409 1.56481C29.9364 1.56396 29.9332 1.56308 29.9385 1.56441L30.0598 1.07934ZM30.0196 1.07186L29.9082 1.05161L29.8188 1.54355L29.9301 1.56379L30.0196 1.07186ZM29.9426 1.06041C29.9259 1.05485 29.9117 1.05194 29.9033 1.05041C29.8951 1.04892 29.888 1.04799 29.8862 1.04775C29.8827 1.04729 29.8846 1.04753 29.8865 1.04783C29.889 1.04822 29.8946 1.04917 29.9019 1.051L29.7806 1.53607C29.792 1.53891 29.8016 1.54062 29.8081 1.54165C29.8114 1.54217 29.8142 1.54257 29.8162 1.54284C29.8178 1.54307 29.8199 1.54333 29.8201 1.54337C29.8208 1.54346 29.8204 1.54341 29.8195 1.54328C29.8186 1.54315 29.8166 1.54284 29.8139 1.54235C29.809 1.54145 29.7981 1.5393 29.7845 1.53475L29.9426 1.06041ZM29.8793 1.04644C28.6035 0.850167 27.2992 0.75 25.999 0.75V1.25C27.2738 1.25 28.5526 1.34822 29.8032 1.54063L29.8793 1.04644ZM25.999 0.75C15.0137 0.75 5.35855 7.76739 1.97477 18.2111L2.45043 18.3652C5.76733 8.12791 15.2303 1.25 25.999 1.25V0.75ZM1.97477 18.2111C1.50442 19.6631 1.16504 21.1719 0.964695 22.695L1.46042 22.7602C1.65685 21.267 1.98957 19.7878 2.45043 18.3652L1.97477 18.2111ZM0.964696 22.695C0.821539 23.783 0.75 24.8931 0.75 25.997H1.25C1.25 24.9145 1.32017 23.8262 1.46042 22.7602L0.964696 22.695ZM0.75 25.997C0.75 26.318 0.756133 26.639 0.768404 26.958L1.26803 26.9388C1.25601 26.6262 1.25 26.3116 1.25 25.997H0.75ZM0.768398 26.9579C0.927876 31.1677 2.14636 35.2977 4.29549 38.9048L4.72503 38.6489C2.61893 35.114 1.42436 31.0655 1.26804 26.939L0.768398 26.9579ZM4.29589 38.9055C4.33316 38.9676 4.3816 39.0361 4.4428 39.0973L4.79636 38.7438C4.77254 38.72 4.7481 38.6873 4.72464 38.6482L4.29589 38.9055ZM4.4428 39.0973C4.44144 39.096 4.4409 39.0954 4.44248 39.0971C4.44306 39.0977 4.44714 39.1021 4.45022 39.1054C4.45722 39.1128 4.47111 39.1272 4.48972 39.1421L4.80207 38.7517C4.80661 38.7553 4.80988 38.7583 4.81169 38.7601C4.81345 38.7617 4.81432 38.7627 4.81374 38.7621C4.81346 38.7618 4.81302 38.7613 4.81218 38.7604C4.81177 38.76 4.8099 38.7579 4.80889 38.7569C4.80636 38.7541 4.80177 38.7492 4.79636 38.7438L4.4428 39.0973ZM4.46546 39.1199C4.69327 39.3575 4.87761 39.5865 5.02998 39.8188L5.4481 39.5446C5.27656 39.2831 5.07223 39.0303 4.82633 38.7738L4.46546 39.1199ZM5.03046 39.8196C7.09038 42.937 9.78769 45.4579 12.855 47.3522L13.1177 46.9268C10.1078 45.0679 7.46479 42.5967 5.44762 39.5439L5.03046 39.8196ZM12.806 47.3127C12.9311 47.443 13.0847 47.5414 13.2648 47.597L13.4123 47.1193C13.3171 47.0899 13.2359 47.0385 13.1667 46.9664L12.806 47.3127ZM13.2109 47.5731C17.0433 49.8501 21.4477 51.1387 26.0597 51.1387V50.6387C21.5418 50.6387 17.2252 49.3765 13.4663 47.1432L13.2109 47.5731ZM26.0597 51.1387C34.9347 51.1387 42.9896 46.6032 47.5858 39.0608L47.1588 38.8006C42.6534 46.194 34.7603 50.6387 26.0597 50.6387V51.1387ZM47.5491 39.1075C47.6109 39.0457 47.6651 38.9754 47.7088 38.8988L47.2747 38.6508C47.2537 38.6876 47.2269 38.7226 47.1955 38.7539L47.5491 39.1075ZM47.7066 38.9027C50.0234 35.0114 51.25 30.55 51.25 25.9747H50.75C50.75 30.4605 49.5474 34.8335 47.277 38.6469L47.7066 38.9027ZM51.25 25.9747V25.9484H50.75V25.9747H51.25ZM51 25.6984H50.996V26.1984H51V25.6984ZM48.9349 22.8219C48.6488 23.1274 48.3159 23.5003 48.0199 23.8785C47.7268 24.253 47.4578 24.6478 47.3119 24.9953L47.7729 25.1889C47.8922 24.9048 48.1272 24.5526 48.4136 24.1866C48.6971 23.8245 49.0191 23.4635 49.2998 23.1637L48.9349 22.8219ZM47.3728 24.9084C47.3899 24.8926 47.3972 24.8925 47.3704 24.9051C47.3504 24.9146 47.3226 24.9259 47.2883 24.9387C47.2196 24.9642 47.1414 24.9892 47.0769 25.01L47.2304 25.4859C47.2915 25.4662 47.3813 25.4375 47.4624 25.4074C47.503 25.3923 47.5456 25.3754 47.5837 25.3573C47.6152 25.3425 47.6686 25.3158 47.7119 25.2758L47.3728 24.9084ZM47.0782 25.0096C46.7197 25.1233 46.1025 25.3079 45.8075 25.9421L46.2609 26.153C46.4517 25.7427 46.8468 25.6075 47.2292 25.4863L47.0782 25.0096ZM45.8077 25.9419C45.6163 26.352 45.6325 26.8069 45.8233 27.2703L46.2856 27.08C46.1363 26.7174 46.1404 26.4112 46.2608 26.1533L45.8077 25.9419ZM45.8232 27.2702C45.959 27.6005 46.077 28.2116 46.0437 28.8559C46.0103 29.5018 45.8277 30.1315 45.4141 30.5451L45.7677 30.8986C46.3056 30.3607 46.5066 29.5866 46.543 28.8817C46.5795 28.1752 46.4536 27.4887 46.2857 27.0801L45.8232 27.2702ZM45.4141 30.5451C44.7676 31.1916 44.2305 31.8429 43.8572 32.628C43.4828 33.4153 43.2801 34.3225 43.2801 35.4731H43.7801C43.7801 34.3847 43.9711 33.5529 44.3087 32.8427C44.6475 32.1303 45.1408 31.5255 45.7677 30.8986L45.4141 30.5451ZM43.2801 35.4731C43.2801 36.2482 42.9498 37.1509 42.4353 38.1092C41.9234 39.0625 41.2456 40.0415 40.582 40.9651L40.988 41.2568C41.6524 40.3321 42.3471 39.3303 42.8758 38.3457C43.4018 37.3662 43.7801 36.3741 43.7801 35.4731H43.2801ZM40.5822 40.9647C40.4341 41.1701 40.2742 41.3754 40.0983 41.5829L40.4797 41.9062C40.6642 41.6886 40.8322 41.4729 40.9878 41.2572L40.5822 40.9647ZM40.0974 41.584C39.9232 41.7918 39.7385 41.9964 39.5471 42.1979L39.9095 42.5423C40.1067 42.3349 40.2986 42.1224 40.4806 41.9052L40.0974 41.584ZM39.5481 42.1968C39.2471 42.5097 38.9393 42.8035 38.6287 43.0686L38.9533 43.449C39.2783 43.1715 39.5981 42.8661 39.9085 42.5434L39.5481 42.1968ZM38.6766 43.0365C38.1944 43.2846 37.6889 43.5214 37.1373 43.765L37.3393 44.2223C37.897 43.9761 38.4119 43.735 38.9054 43.4811L38.6766 43.0365ZM37.1372 43.765C36.9468 43.8492 36.7548 43.9312 36.5632 44.009L36.7514 44.4722C36.9485 44.3922 37.1452 44.3082 37.3394 44.2223L37.1372 43.765ZM36.8748 44.1174C36.7786 43.9475 36.6456 43.6769 36.4806 43.2633L36.0162 43.4486C36.1872 43.8771 36.3296 44.1693 36.4398 44.3639L36.8748 44.1174ZM36.4808 43.264C36.2014 42.5578 35.9374 41.7 35.7435 40.9082C35.5481 40.1105 35.4295 39.4029 35.4295 38.9894H34.9295C34.9295 39.4667 35.061 40.2236 35.2578 41.0272C35.4561 41.8367 35.7266 42.7168 36.0159 43.448L36.4808 43.264ZM35.4295 38.9894C35.4295 38.4634 35.5565 38.1757 35.7364 37.766L35.2786 37.565C35.0941 37.9852 34.9295 38.3534 34.9295 38.9894H35.4295ZM35.7364 37.7659C35.9408 37.2999 36.1907 36.739 36.1907 35.884H35.6907C35.6907 36.6283 35.479 37.1079 35.2785 37.565L35.7364 37.7659ZM36.1907 35.884C36.1907 34.8576 35.6788 34.195 35.3416 33.7543L34.9445 34.0581C35.2795 34.496 35.6907 35.0399 35.6907 35.884H36.1907ZM35.3415 33.7541C35.048 33.3712 34.9599 33.2258 34.9599 33.0134H34.4599C34.4599 33.4206 34.6672 33.6963 34.9446 34.0583L35.3415 33.7541ZM34.9599 33.0134C34.9599 31.3778 34.0491 30.4808 33.3762 29.81L33.0232 30.1641C33.6945 30.8333 34.4599 31.6004 34.4599 33.0134H34.9599ZM33.3765 29.8102L33.2935 29.7272L32.9399 30.0808L33.0229 30.1638L33.3765 29.8102ZM33.2937 29.7275C32.8418 29.2744 32.2837 29.198 31.7167 29.2865C31.1626 29.373 30.5616 29.6227 29.9829 29.8611L30.1733 30.3234C30.7688 30.0781 31.3105 29.856 31.7939 29.7806C32.2644 29.7071 32.6385 29.7785 32.9397 30.0805L33.2937 29.7275ZM29.9832 29.861C29.6606 29.9933 29.3257 30.1307 29.0149 30.2354C28.6985 30.3421 28.4344 30.4051 28.2481 30.4051V30.9051C28.5213 30.9051 28.8513 30.8182 29.1746 30.7093C29.5035 30.5984 29.8538 30.4544 30.173 30.3236L29.9832 29.861ZM28.2481 30.4051C28.0832 30.4051 27.8564 30.3323 27.5784 30.1733C27.3054 30.0173 27.0059 29.7914 26.7019 29.5178C26.0936 28.9703 25.4888 28.2512 25.0651 27.5748L24.6413 27.8403C25.0901 28.5567 25.7252 29.3114 26.3674 29.8894C26.6887 30.1786 27.0172 30.4284 27.3302 30.6074C27.6382 30.7835 27.9554 30.9051 28.2481 30.9051V30.4051ZM25.0652 27.5751C24.922 27.3459 24.8131 26.918 24.7654 26.3524C24.7187 25.7973 24.7335 25.1442 24.8114 24.4927C24.8895 23.8407 25.0297 23.1993 25.2292 22.6651C25.4313 22.1238 25.6823 21.7254 25.9611 21.5199L25.6644 21.1174C25.2691 21.4089 24.975 21.9166 24.7608 22.4902C24.5439 23.071 24.3964 23.7532 24.315 24.4333C24.2335 25.1138 24.2172 25.8012 24.2672 26.3944C24.3163 26.9771 24.4321 27.5054 24.6412 27.84L25.0652 27.5751ZM25.9611 21.5198C27.9888 20.0246 28.5933 18.3469 28.6275 18.2499L28.1561 18.0835C28.1417 18.1241 27.5842 19.7017 25.6644 21.1174L25.9611 21.5198ZM28.6282 18.2481C28.7911 17.7752 28.6101 17.2498 28.1891 16.9787L27.9184 17.3991C28.1452 17.5451 28.2436 17.8294 28.1554 18.0853L28.6282 18.2481ZM28.1884 16.9783C27.9216 16.8077 27.7781 16.644 27.6976 16.5071C27.6175 16.3708 27.5913 16.2466 27.5795 16.1394L27.0825 16.1938C27.0991 16.3458 27.1397 16.5445 27.2666 16.7604C27.3931 16.9757 27.5968 17.1936 27.9191 17.3996L28.1884 16.9783ZM27.5796 16.1396C27.54 15.775 27.6776 15.3303 27.9073 14.8957C28.1341 14.4668 28.4314 14.0837 28.6617 13.8534L28.3081 13.4999C28.0425 13.7655 27.7153 14.1891 27.4653 14.6621C27.2183 15.1293 27.0269 15.6817 27.0825 16.1936L27.5796 16.1396ZM28.6617 13.8534C28.6617 13.8534 28.6646 13.8506 28.6722 13.8454C28.6797 13.8403 28.6904 13.834 28.7049 13.8267C28.7344 13.8119 28.7742 13.796 28.8249 13.7799C28.9268 13.7476 29.0564 13.7194 29.2029 13.695C29.4958 13.6462 29.8269 13.6171 30.0846 13.5936L30.0392 13.0957C29.7868 13.1187 29.4357 13.1493 29.1208 13.2018C28.9633 13.228 28.8076 13.2608 28.6736 13.3033C28.5485 13.3431 28.406 13.402 28.3081 13.4999L28.6617 13.8534ZM30.0831 13.5937C30.4701 13.5607 30.8552 13.5282 31.1966 13.4472C31.5412 13.3654 31.8655 13.2291 32.1202 12.972L31.7649 12.6201C31.6006 12.786 31.3762 12.8907 31.0811 12.9607C30.7828 13.0315 30.4372 13.0617 30.0407 13.0955L30.0831 13.5937ZM32.119 12.9731C32.8481 12.2464 32.6429 11.2985 32.5277 10.7301L32.0376 10.8294C32.1613 11.4392 32.28 12.1067 31.7661 12.619L32.119 12.9731ZM32.5279 10.7315C32.4768 10.4715 32.4347 10.2666 32.4313 10.1337L31.9315 10.1464C31.9362 10.3334 31.9913 10.594 32.0373 10.828L32.5279 10.7315ZM32.4163 10.2257C32.4103 10.2421 32.4075 10.2397 32.4268 10.216C32.4434 10.1955 32.4703 10.1667 32.5101 10.1305C32.5894 10.0582 32.7102 9.96496 32.8788 9.85799C33.2156 9.64441 33.7323 9.38296 34.4644 9.127L34.2994 8.65501C33.5376 8.92134 32.9853 9.19838 32.6111 9.43573C32.4242 9.55422 32.2789 9.66461 32.1732 9.761C32.1204 9.80913 32.075 9.856 32.0387 9.90077C32.0049 9.94237 31.9682 9.99497 31.9466 10.0544L32.4163 10.2257ZM34.4648 9.12688C35.1686 8.87964 36.0144 8.25644 36.6864 7.69695C37.3666 7.1307 37.9023 6.60083 37.9921 6.50891L37.6344 6.15954C37.5541 6.24171 37.0311 6.75946 36.3665 7.31269C35.6939 7.87268 34.9091 8.44083 34.2991 8.65514L34.4648 9.12688ZM37.9756 6.52429L38.2955 6.251L37.9707 5.87087L37.6508 6.14416L37.9756 6.52429ZM38.0033 6.27462C43.9027 9.8571 47.9702 15.9952 48.8694 23.0245L49.3653 22.9611C48.4466 15.7793 44.2911 9.50798 38.2628 5.84725L38.0033 6.27462ZM25.999 2.91808C26.8434 2.91808 27.684 2.97997 28.5145 3.07046L28.5687 2.57341C27.727 2.4817 26.8672 2.41808 25.999 2.41808V2.91808ZM28.3244 2.69823L27.9094 3.427L28.3439 3.67442L28.7588 2.94565L28.3244 2.69823ZM27.9146 3.41821C27.9149 3.4178 27.8831 3.46755 27.8213 3.55657C27.76 3.64486 27.6699 3.7707 27.5535 3.92281C27.3206 4.2273 26.9836 4.63555 26.5628 5.05807C25.7153 5.90905 24.5551 6.79049 23.2428 7.0338L23.3339 7.52542C24.795 7.25453 26.0438 6.28772 26.917 5.4109C27.7945 4.52979 28.322 3.7098 28.3386 3.68321L27.9146 3.41821ZM23.2429 7.03377C21.607 7.33609 20.6608 7.56417 20.0066 7.83915C19.3353 8.12136 18.9767 8.45117 18.512 8.91686L18.8659 9.27003C19.3163 8.81868 19.6196 8.54421 20.2004 8.30008C20.7983 8.04873 21.6943 7.82841 23.3338 7.52544L23.2429 7.03377ZM18.5122 8.91667C18.406 9.02283 18.2937 9.08945 18.2044 9.13085C18.16 9.15148 18.1216 9.16571 18.0927 9.17548C18.0781 9.18042 18.066 9.18421 18.055 9.18767C18.05 9.18922 18.0433 9.19131 18.0374 9.19326C18.0347 9.19416 18.0194 9.19909 18.0032 9.20655L18.2127 9.66053C18.1971 9.66774 18.1824 9.6717 18.2045 9.6648C18.2154 9.66136 18.2324 9.65605 18.253 9.64909C18.2944 9.63507 18.3503 9.61439 18.4149 9.5844C18.5438 9.52459 18.7088 9.42723 18.8658 9.27022L18.5122 8.91667ZM18.316 9.29487C18.3244 9.3074 18.3287 9.31681 18.3298 9.31912C18.3314 9.32263 18.3319 9.3242 18.3316 9.32334C18.331 9.32166 18.3286 9.31444 18.3258 9.30093C18.3201 9.27412 18.3134 9.22678 18.3134 9.1562H17.8134C17.8134 9.25769 17.823 9.33992 17.8365 9.4042C17.848 9.45867 17.867 9.52278 17.9 9.57222L18.316 9.29487ZM18.3134 9.1562C18.3134 8.83526 18.3877 8.48537 18.4597 8.14994L17.9708 8.04497C17.9012 8.36949 17.8134 8.77266 17.8134 9.1562H18.3134ZM18.4597 8.14978C18.523 7.85431 18.601 7.49837 18.5844 7.15595C18.5673 6.80051 18.4478 6.44266 18.1104 6.16062L17.7898 6.54426C17.9948 6.71569 18.0728 6.9277 18.085 7.18007C18.0978 7.44548 18.0371 7.73531 17.9708 8.04513L18.4597 8.14978ZM18.1107 6.1609C17.7569 5.8641 17.3414 5.82356 16.9932 5.86562C16.6482 5.90729 16.3405 6.03328 16.1743 6.10037L16.3614 6.56403C16.5312 6.49548 16.7822 6.39474 17.0531 6.36202C17.3208 6.32969 17.5785 6.36708 17.7894 6.54399L18.1107 6.1609ZM16.1752 6.09998L15.8655 6.22346L16.0507 6.68791L16.3604 6.56442L16.1752 6.09998ZM15.8649 6.22371C15.3202 6.44258 14.78 6.6584 14.3554 6.93827C13.9235 7.22287 13.5823 7.59215 13.4722 8.12813L13.962 8.22873C14.0361 7.86791 14.2637 7.59748 14.6305 7.35575C15.0045 7.10929 15.4927 6.91214 16.0513 6.68766L15.8649 6.22371ZM13.4721 8.12885C13.3466 8.74885 13.6104 9.27064 13.8572 9.60916L14.2612 9.31461C14.0505 9.02557 13.8771 8.64854 13.9621 8.22801L13.4721 8.12885ZM13.9647 9.23046C13.625 9.36927 13.1415 9.61407 12.8079 10.0459C12.4619 10.494 12.2998 11.114 12.5596 11.9398L13.0365 11.7898C12.8226 11.1095 12.9641 10.6617 13.2037 10.3516C13.4556 10.0253 13.8396 9.82171 14.1538 9.6933L13.9647 9.23046ZM12.5593 11.939C12.7306 12.49 12.8999 12.911 13.0361 13.2464L13.4993 13.0583C13.3643 12.7256 13.2015 12.3206 13.0368 11.7906L12.5593 11.939ZM13.036 13.2462C13.0858 13.3691 13.1401 13.5041 13.1823 13.617C13.2034 13.6736 13.2203 13.7218 13.2318 13.7584C13.2468 13.8064 13.2431 13.8067 13.2425 13.7848L13.7423 13.7709C13.7407 13.7126 13.7208 13.6471 13.709 13.6092C13.6936 13.56 13.6731 13.5022 13.6507 13.4422C13.6058 13.3218 13.5488 13.1805 13.4994 13.0585L13.036 13.2462ZM13.4924 13.7778C13.2603 13.685 13.2603 13.6849 13.2604 13.6847C13.2604 13.6847 13.2605 13.6845 13.2605 13.6845C13.2606 13.6843 13.2607 13.6841 13.2607 13.6839C13.2609 13.6836 13.261 13.6832 13.2612 13.6829C13.2614 13.6822 13.2617 13.6815 13.262 13.6809C13.2625 13.6796 13.263 13.6784 13.2635 13.6773C13.2645 13.6752 13.2653 13.6734 13.266 13.6719C13.2674 13.6691 13.2682 13.6678 13.2681 13.668C13.2678 13.6684 13.2641 13.6748 13.255 13.6875C13.2365 13.713 13.197 13.7622 13.1213 13.8379L13.4748 14.1915C13.5651 14.1012 13.6229 14.0319 13.66 13.9806C13.6787 13.9548 13.6925 13.9331 13.7027 13.9151C13.7079 13.906 13.7121 13.8979 13.7157 13.8905C13.7175 13.8868 13.7191 13.8833 13.7206 13.88C13.7213 13.8784 13.722 13.8768 13.7227 13.8752C13.723 13.8744 13.7233 13.8737 13.7236 13.8729C13.7238 13.8725 13.7239 13.8722 13.7241 13.8718C13.7242 13.8716 13.7242 13.8714 13.7243 13.8712C13.7243 13.8712 13.7244 13.871 13.7244 13.871C13.7245 13.8708 13.7245 13.8707 13.4924 13.7778ZM13.1213 13.8379C13.1167 13.8425 13.1155 13.8437 13.1149 13.8442C13.1144 13.8447 13.1177 13.8415 13.1238 13.837L13.4238 14.237C13.4489 14.2181 13.47 14.1963 13.4748 14.1915L13.1213 13.8379ZM13.3978 13.8199C13.337 13.7851 13.2472 13.7256 13.1755 13.6757L12.8903 14.0864C12.9643 14.1378 13.0689 14.2078 13.1497 14.254L13.3978 13.8199ZM13.173 13.6741C12.851 13.4561 12.3471 13.1068 11.6604 13.1068V13.6068C12.1761 13.6068 12.5629 13.8648 12.8927 14.0881L13.173 13.6741ZM11.6604 13.1068C11.2883 13.1068 10.9897 13.2007 10.7566 13.3646C10.5251 13.5275 10.376 13.7469 10.2801 13.9698C10.0924 14.406 10.0945 14.892 10.0945 15.1038H10.5945C10.5945 14.8844 10.5976 14.4969 10.7394 14.1674C10.8082 14.0074 10.906 13.8709 11.0443 13.7736C11.1811 13.6773 11.3755 13.6068 11.6604 13.6068V13.1068ZM10.0945 15.1038C10.0945 15.1762 10.0945 15.2704 10.0916 15.3599C10.0885 15.4556 10.0826 15.5242 10.076 15.5546L10.5645 15.6612C10.5821 15.5802 10.5884 15.4687 10.5913 15.3761C10.5945 15.2773 10.5945 15.1752 10.5945 15.1038H10.0945ZM10.2866 15.3601C10.1855 15.3739 9.99419 15.3781 9.84304 15.3802L9.84998 15.8801C9.99034 15.8782 10.216 15.8743 10.3538 15.8556L10.2866 15.3601ZM9.84288 15.3802C9.29183 15.3882 8.46103 15.3967 7.71327 15.8774L7.98364 16.298C8.59626 15.9041 9.28779 15.8883 9.85015 15.8801L9.84288 15.3802ZM7.71284 15.8776C7.10267 16.2717 6.68347 16.8974 6.45406 17.7057L6.93506 17.8422C7.13887 17.1241 7.49703 16.6122 7.98408 16.2977L7.71284 15.8776ZM6.45408 17.7056C6.36008 18.0365 6.2065 18.3755 5.99651 18.7127L6.42092 18.977C6.65224 18.6056 6.82661 18.224 6.93505 17.8423L6.45408 17.7056ZM5.9978 18.7106C5.94347 18.796 5.88682 18.88 5.82756 18.965L6.23762 19.2511C6.29983 19.1619 6.36059 19.0718 6.41963 18.9791L5.9978 18.7106ZM5.829 18.9629C5.70947 19.1307 5.57788 19.2933 5.43594 19.4508L5.80735 19.7855C5.96097 19.6151 6.10469 19.4376 6.23618 19.2531L5.829 18.9629ZM5.43406 19.4529C5.36324 19.5333 5.29002 19.6104 5.21409 19.6863L5.56764 20.0399C5.64961 19.9579 5.73025 19.8731 5.80923 19.7834L5.43406 19.4529ZM5.2126 19.6878C4.98451 19.9198 4.72783 20.1453 4.45405 20.358L4.76082 20.7529C5.04982 20.5283 5.32352 20.2882 5.56913 20.0384L5.2126 19.6878ZM4.45541 20.357C4.36315 20.4277 4.26831 20.4968 4.17344 20.5655L4.4665 20.9706C4.56193 20.9015 4.66143 20.829 4.75945 20.7539L4.45541 20.357ZM4.17477 20.5645C3.81149 20.8237 3.42168 21.0561 3.01495 21.2615L3.24029 21.7078C3.6676 21.4921 4.07943 21.2467 4.46518 20.9715L4.17477 20.5645ZM3.37295 21.5327C3.54996 20.6295 3.76028 19.7371 4.03956 18.8754L3.56391 18.7212C3.27637 19.6085 3.06156 20.5218 2.88228 21.4366L3.37295 21.5327ZM4.03956 18.8754C7.13175 9.33242 15.955 2.91808 25.999 2.91808V2.41808C15.7385 2.41808 6.72298 8.97188 3.56391 18.7212L4.03956 18.8754ZM6.83841 38.6229C6.62124 38.294 6.37123 37.9812 6.07709 37.6683L5.71278 38.0108C5.98951 38.3052 6.22131 38.5957 6.42116 38.8984L6.83841 38.6229ZM6.11021 37.7124C4.17589 34.4365 3.08032 30.6914 2.93612 26.8782L2.43648 26.8971C2.5838 30.7928 3.70289 34.6188 5.67966 37.9667L6.11021 37.7124ZM2.93616 26.8794C2.92816 26.6392 2.92414 26.3984 2.92212 26.1568L2.42214 26.161C2.42418 26.4053 2.42825 26.6504 2.43644 26.896L2.93616 26.8794ZM2.43291 26.2315C2.46916 26.3509 2.50956 26.4678 2.55397 26.5841L3.02108 26.4058C2.98046 26.2994 2.94393 26.1936 2.91135 26.0863L2.43291 26.2315ZM2.55492 26.5866C2.63743 26.796 2.73364 27.0039 2.84824 27.2028L3.28149 26.9532C3.1815 26.7796 3.09552 26.5947 3.02012 26.4033L2.55492 26.5866ZM2.84715 27.2009C3.04441 27.5504 3.28688 27.8702 3.56827 28.1516L3.92183 27.798C3.67284 27.549 3.4578 27.2656 3.28258 26.9551L2.84715 27.2009ZM3.56827 28.1516C3.69918 28.2825 3.84535 28.3877 4.02028 28.4809L4.25528 28.0395C4.11846 27.9667 4.0136 27.8898 3.92183 27.798L3.56827 28.1516ZM4.03433 28.4878C4.04696 28.4935 4.07493 28.5059 4.10042 28.5172C4.12757 28.5292 4.15223 28.5401 4.16186 28.5445L4.36877 28.0893C4.35613 28.0836 4.32816 28.0712 4.30267 28.0599C4.27553 28.0479 4.25087 28.037 4.24123 28.0326L4.03433 28.4878ZM4.17696 28.5508C4.28184 28.5904 4.3897 28.6209 4.50646 28.6419L4.59504 28.1498C4.50937 28.1344 4.43098 28.1122 4.35366 28.083L4.17696 28.5508ZM4.50897 28.6423C4.64377 28.6652 4.78572 28.6773 4.9494 28.6654L4.91326 28.1668C4.79758 28.1751 4.69661 28.167 4.59253 28.1494L4.50897 28.6423ZM4.94286 28.6658C5.09322 28.6589 5.2457 28.6338 5.38356 28.6036L5.27671 28.1152C5.15545 28.1417 5.03262 28.1612 4.91981 28.1664L4.94286 28.6658ZM5.38841 28.6025L5.68397 28.5317L5.56741 28.0454L5.27185 28.1163L5.38841 28.6025ZM5.86809 28.2274L5.66362 27.4176L5.17884 27.54L5.3833 28.3498L5.86809 28.2274ZM5.18895 27.5712L5.5007 28.3547L5.96527 28.1698L5.65352 27.3864L5.18895 27.5712ZM5.78412 28.507L5.91975 28.4786L5.81748 27.9892L5.68185 28.0175L5.78412 28.507ZM5.91876 28.4788C6.14459 28.4326 6.2507 28.4481 6.35286 28.4942L6.55851 28.0384C6.32867 27.9347 6.10684 27.9299 5.81848 27.989L5.91876 28.4788ZM6.35405 28.4947C6.75591 28.6735 7.57648 29.1608 8.49737 29.774L8.77451 29.3579C7.85321 28.7443 7.00165 28.2356 6.55732 28.0379L6.35405 28.4947ZM8.49751 29.7741C8.8932 30.0372 9.28711 30.3126 9.64076 30.5698L9.93485 30.1654C9.57593 29.9044 9.17628 29.625 8.77437 29.3578L8.49751 29.7741ZM9.64017 30.5693C10.329 31.0734 10.6142 31.3327 10.7179 31.4346L11.0683 31.078C10.9413 30.9531 10.6353 30.678 9.93544 30.1658L9.64017 30.5693ZM10.7163 31.4331C10.8883 31.605 10.9418 31.7424 11.0383 31.9937L11.5051 31.8145C11.4072 31.5597 11.3231 31.3327 11.0699 31.0795L10.7163 31.4331ZM11.0379 31.9928C11.1209 32.2112 11.229 32.4981 11.4413 32.7897C11.6558 33.0842 11.9693 33.3746 12.4549 33.6244L12.6837 33.1798C12.2644 32.9641 12.012 32.724 11.8455 32.4953C11.6767 32.2636 11.5885 32.0342 11.5054 31.8154L11.0379 31.9928ZM12.4551 33.6245C12.7638 33.7831 13.1941 33.9541 13.6734 34.1446L13.858 33.6799C13.3697 33.4858 12.9659 33.3248 12.6835 33.1798L12.4551 33.6245ZM13.6735 34.1446C14.067 34.3008 14.7771 34.5828 15.4088 34.8846C15.7253 35.0358 16.015 35.1886 16.2331 35.3299C16.3423 35.4007 16.4276 35.4649 16.4878 35.5206C16.5176 35.5482 16.5384 35.5712 16.552 35.5892C16.5661 35.6077 16.5689 35.6161 16.5683 35.6144L17.0402 35.4491C16.999 35.3313 16.9121 35.2322 16.8276 35.1539C16.7385 35.0712 16.6272 34.9895 16.505 34.9104C16.2604 34.7518 15.9482 34.5882 15.6243 34.4334C14.9751 34.1233 14.2498 33.8355 13.8579 33.6799L13.6735 34.1446ZM16.5543 35.5318C16.5543 35.7005 16.5284 35.7956 16.4905 35.8722C16.4476 35.9585 16.3827 36.0374 16.2654 36.1759L16.6468 36.4991C16.7542 36.3724 16.8633 36.2457 16.9384 36.0942C17.0184 35.9329 17.0543 35.7578 17.0543 35.5318H16.5543ZM16.2659 36.1752C16.0155 36.4687 15.5866 36.9688 15.5866 37.7889H16.0866C16.0866 37.1636 16.4027 36.7852 16.6463 36.4997L16.2659 36.1752ZM15.5866 37.7889C15.5866 37.9615 15.6045 38.1518 15.6387 38.3548L16.1317 38.2717C16.1012 38.0901 16.0866 37.9281 16.0866 37.7889H15.5866ZM15.6385 38.3536C15.6743 38.5727 15.7287 38.8152 15.7829 39.058L16.2709 38.9491C16.2158 38.7021 16.165 38.4749 16.1319 38.2729L15.6385 38.3536ZM15.783 39.0584C15.8578 39.3912 15.9417 39.765 15.9724 40.0912C15.9876 40.2541 15.9883 40.393 15.9721 40.5017C15.9554 40.6137 15.9252 40.6648 15.9048 40.6852L16.2584 41.0387C16.3868 40.9103 16.4426 40.7369 16.4666 40.5754C16.4912 40.4105 16.4873 40.2268 16.4702 40.0445C16.436 39.6804 16.3439 39.2738 16.2708 38.9488L15.783 39.0584ZM15.9048 40.6852C15.6883 40.9016 15.4315 41.0166 15.0741 41.1736L15.2752 41.6313C15.6183 41.4806 15.9647 41.3324 16.2584 41.0387L15.9048 40.6852ZM15.074 41.1736C14.4444 41.4505 13.5998 41.8184 13.0316 42.9635L13.4795 43.1857C13.964 42.2093 14.6619 41.901 15.2753 41.6313L15.074 41.1736ZM13.0308 42.9651C12.9362 43.1592 12.8593 43.4969 12.7955 43.8598C12.7297 44.2339 12.6724 44.6698 12.6265 45.0836L13.1235 45.1386C13.1687 44.7305 13.2247 44.3061 13.288 43.9464C13.3532 43.5754 13.421 43.3057 13.4803 43.1841L13.0308 42.9651ZM13.0169 44.9053C10.6109 43.2466 8.50226 41.1397 6.83833 38.6228L6.42124 38.8985C8.12182 41.4709 10.2765 43.6233 12.7331 45.3169L13.0169 44.9053ZM49.0758 25.997C49.0758 30.1571 47.9561 34.2363 45.8602 37.7354L46.2892 37.9923C48.4323 34.4142 49.5758 30.246 49.5758 25.997H49.0758ZM45.8979 37.6871C45.8373 37.7477 45.7863 37.8152 45.7442 37.8862L46.1744 38.1411C46.1971 38.1028 46.223 38.0691 46.2515 38.0406L45.8979 37.6871ZM45.7456 37.8839C41.5296 44.8258 34.1689 48.9706 26.0557 48.9706V49.4706C34.3439 49.4706 41.8664 45.2344 46.173 38.1434L45.7456 37.8839ZM26.0557 48.9706C21.9493 48.9706 18.0163 47.8575 14.5749 45.8723L14.325 46.3054C17.8393 48.3326 21.8581 49.4706 26.0557 49.4706V48.9706ZM14.699 46.1102C14.7301 45.7479 14.7848 45.2439 14.8419 44.8001C14.8704 44.5783 14.8993 44.3732 14.9259 44.2093C14.9537 44.0379 14.976 43.931 14.9889 43.8919L14.5142 43.735C14.4866 43.8184 14.4589 43.9656 14.4323 44.1293C14.4046 44.3005 14.3749 44.5116 14.346 44.7363C14.2882 45.1858 14.2326 45.697 14.2008 46.0675L14.699 46.1102ZM14.9757 43.9242C15.087 43.6989 15.2041 43.5682 15.3438 43.4667C15.4933 43.3581 15.6753 43.2771 15.943 43.1599L15.7424 42.7019C15.4878 42.8133 15.2518 42.9156 15.05 43.0621C14.8386 43.2156 14.6712 43.4119 14.5274 43.7027L14.9757 43.9242ZM15.9433 43.1597C16.3624 42.9755 16.9221 42.7312 17.4362 42.2193L17.0834 41.865C16.6419 42.3046 16.1611 42.5178 15.7421 42.702L15.9433 43.1597ZM17.4367 42.2187C17.9706 41.6837 18.1397 41.0204 18.1497 40.3762C18.1596 39.7386 18.0137 39.0957 17.8984 38.5824L17.4106 38.6919C17.5281 39.2151 17.6586 39.8 17.6498 40.3684C17.641 40.9302 17.4963 41.4512 17.0828 41.8656L17.4367 42.2187ZM17.8982 38.5815C17.8496 38.3685 17.8066 38.1748 17.7776 38.0009L17.2844 38.0831C17.3162 38.2736 17.3623 38.4807 17.4108 38.6929L17.8982 38.5815ZM17.7782 38.0044C17.7635 37.9078 17.7547 37.8417 17.7547 37.791H17.2547C17.2547 37.886 17.2702 37.99 17.2839 38.0796L17.7782 38.0044ZM17.7547 37.791C17.7547 37.776 17.7557 37.7794 17.7537 37.7876C17.7515 37.7966 17.749 37.7986 17.7548 37.7888C17.7719 37.7597 17.8123 37.7068 17.918 37.5823L17.5368 37.2587C17.438 37.3751 17.3671 37.4619 17.324 37.535C17.2997 37.5763 17.2798 37.6201 17.2678 37.6695C17.256 37.718 17.2547 37.7604 17.2547 37.791H17.7547ZM17.9179 37.5824C18.2259 37.2199 18.7224 36.6335 18.7224 35.5338H18.2224C18.2224 36.4504 17.824 36.9207 17.5369 37.2586L17.9179 37.5824ZM18.7224 35.5338C18.7224 34.6266 18.083 33.9586 17.281 33.4422C16.4732 32.9221 15.4256 32.5073 14.4734 32.1292L14.2889 32.594C15.2537 32.9771 16.2517 33.3741 17.0103 33.8626C17.7747 34.3548 18.2224 34.8923 18.2224 35.5338H18.7224ZM14.473 32.1291C14.0418 31.9587 13.6539 31.8043 13.4455 31.6963L13.2154 32.1402C13.4523 32.263 13.8702 32.4285 14.2892 32.5941L14.473 32.1291ZM13.4449 31.696C13.29 31.6162 13.2357 31.5685 13.2018 31.524C13.1609 31.4703 13.1319 31.4004 13.0638 31.2233L12.5971 31.4026C12.6566 31.5575 12.7105 31.7042 12.8042 31.8271C12.9049 31.9593 13.0369 32.0483 13.216 32.1405L13.4449 31.696ZM13.064 31.2239C12.9382 30.8937 12.7549 30.406 12.2497 29.903L11.8969 30.2573C12.323 30.6815 12.4758 31.0844 12.5968 31.402L13.064 31.2239ZM12.2501 29.9034C11.9729 29.6261 11.5209 29.2587 10.919 28.8194L10.6243 29.2233C11.2208 29.6586 11.6474 30.0078 11.8965 30.2569L12.2501 29.9034ZM10.919 28.8194C10.5415 28.544 10.1236 28.2525 9.70178 27.9712L9.42443 28.3873C9.84067 28.6648 10.2528 28.9522 10.6243 29.2233L10.919 28.8194ZM9.70178 27.9712C9.22041 27.6503 7.99336 26.8497 7.23521 26.5134L7.03249 26.9705C7.74404 27.2861 8.9341 28.0604 9.42443 28.3873L9.70178 27.9712ZM7.23572 26.5136C6.52747 26.1976 5.89424 26.2739 5.49899 26.3508L5.5945 26.8416C5.94827 26.7727 6.46083 26.7154 7.03198 26.9702L7.23572 26.5136ZM5.4913 26.3524L4.93055 26.4799L5.04143 26.9675L5.60219 26.84L5.4913 26.3524ZM4.93176 26.4797C4.89075 26.4888 4.87176 26.4931 4.8505 26.4953L4.90285 26.9926C4.95851 26.9867 5.00835 26.9748 5.04022 26.9678L4.93176 26.4797ZM5.05843 26.5723C4.93557 26.4422 4.82809 26.295 4.73632 26.1316L4.3004 26.3765C4.41107 26.5735 4.54247 26.7542 4.69492 26.9156L5.05843 26.5723ZM4.73565 26.1304C4.67541 26.0246 4.62189 25.9103 4.57741 25.7954L4.11112 25.9759C4.16381 26.112 4.2277 26.2487 4.30107 26.3777L4.73565 26.1304ZM4.57676 25.7937C4.54527 25.7141 4.51729 25.6321 4.49292 25.5496L4.01341 25.6913C4.04168 25.787 4.07444 25.8831 4.11177 25.9775L4.57676 25.7937ZM4.4942 25.5541L4.45573 25.4144L3.97368 25.5471L4.01214 25.6868L4.4942 25.5541ZM4.45693 25.4189C4.41142 25.2406 4.37892 25.0575 4.35781 24.8733L3.86106 24.9302C3.88449 25.1347 3.92082 25.3403 3.97248 25.5426L4.45693 25.4189ZM4.35779 24.8731C4.27665 24.1699 4.35167 23.4355 4.45669 22.8529L3.96462 22.7642C3.85506 23.372 3.77217 24.1599 3.86109 24.9304L4.35779 24.8731ZM4.33187 23.0272C4.71141 22.8168 5.08185 22.5872 5.43462 22.3361L5.14468 21.9288C4.80916 22.1676 4.45488 22.3874 4.08945 22.5899L4.33187 23.0272ZM5.43496 22.3359C5.54978 22.2539 5.66637 22.1685 5.7817 22.0784L5.47374 21.6845C5.36638 21.7684 5.25624 21.8491 5.14434 21.929L5.43496 22.3359ZM5.78015 22.0796C6.13164 21.8092 6.45755 21.5185 6.75595 21.2201L6.4024 20.8665C6.11778 21.1512 5.80803 21.4273 5.47529 21.6833L5.78015 22.0796ZM6.75773 21.2183C6.85933 21.1146 6.95683 21.0109 7.05228 20.9051L6.68099 20.5702C6.59019 20.6709 6.49741 20.7696 6.40062 20.8683L6.75773 21.2183ZM7.05299 20.9043C7.24701 20.6873 7.42671 20.4638 7.59198 20.2337L7.18586 19.942C7.03129 20.1572 6.86279 20.3669 6.68028 20.571L7.05299 20.9043ZM7.59236 20.2331C7.67642 20.1154 7.75581 19.9963 7.83249 19.8761L7.41096 19.6072C7.33784 19.7218 7.26338 19.8335 7.18549 19.9425L7.59236 20.2331ZM7.83343 19.8746C8.15267 19.3664 8.39158 18.8388 8.54432 18.3042L8.06356 18.1668C7.92479 18.6525 7.7062 19.1371 7.41002 19.6087L7.83343 19.8746ZM8.54467 18.303C8.64068 17.9603 8.76472 17.7883 8.8911 17.7066L8.61965 17.2867C8.3452 17.4641 8.17369 17.7738 8.06321 18.1681L8.54467 18.303ZM8.89049 17.707C8.98364 17.6471 9.11704 17.6075 9.29477 17.585C9.4714 17.5625 9.66687 17.5594 9.87651 17.5563L9.86915 17.0564C9.66582 17.0593 9.44122 17.0623 9.23171 17.0889C9.02329 17.1154 8.80444 17.168 8.62026 17.2863L8.89049 17.707ZM9.87653 17.5563C10.4034 17.5485 11.1347 17.5499 11.6671 17.0175L11.3135 16.6639C10.9471 17.0304 10.4354 17.048 9.86913 17.0564L9.87653 17.5563ZM11.6667 17.0179C12.2358 16.4512 12.2626 15.6887 12.2666 15.2153L11.7666 15.211C11.7626 15.689 11.7247 16.2545 11.3139 16.6636L11.6667 17.0179ZM11.8815 15.4234C11.9056 15.439 11.9285 15.4548 11.9553 15.4733L12.2399 15.0622C12.2141 15.0443 12.1843 15.0237 12.1518 15.0028L11.8815 15.4234ZM11.9568 15.4744C12.1606 15.6132 12.5455 15.8786 13.0233 15.9624C13.5224 16.05 14.0968 15.936 14.6571 15.3757L14.3035 15.0222C13.8577 15.468 13.4472 15.5292 13.1097 15.4699C12.751 15.407 12.4476 15.2037 12.2384 15.0612L11.9568 15.4744ZM14.6571 15.3757C15.1952 14.8376 15.4068 14.3341 15.411 13.8247C15.415 13.3367 15.2251 12.8742 15.0503 12.4396L14.5864 12.6262C14.7699 13.0823 14.9141 13.4497 14.911 13.8206C14.9081 14.17 14.7715 14.5542 14.3035 15.0222L14.6571 15.3757ZM15.0503 12.4395C14.929 12.1382 14.7824 11.7757 14.6318 11.296L14.1547 11.4458C14.3118 11.9458 14.4649 12.3242 14.5865 12.6262L15.0503 12.4395ZM14.6317 11.2956C14.6176 11.2512 14.6109 11.2175 14.6069 11.1948C14.6059 11.1887 14.605 11.1833 14.6041 11.1776C14.6033 11.1729 14.6021 11.1651 14.6008 11.1582C14.6001 11.1543 14.597 11.1361 14.5905 11.1161C14.5877 11.1077 14.5787 11.0804 14.5584 11.0507C14.5416 11.026 14.4758 10.9407 14.3507 10.9407V11.4407C14.2265 11.4407 14.1614 11.3559 14.1452 11.3322C14.1256 11.3035 14.1172 11.2777 14.1152 11.2714C14.112 11.2616 14.1103 11.2541 14.1098 11.2517C14.1094 11.2501 14.1091 11.2488 14.109 11.2482C14.1089 11.2475 14.1088 11.2471 14.1088 11.2471C14.1088 11.2471 14.1088 11.2473 14.1089 11.2478C14.109 11.2482 14.1091 11.2489 14.1093 11.2498C14.1096 11.2517 14.1099 11.2539 14.1104 11.257C14.1114 11.2629 14.1127 11.271 14.1143 11.2803C14.121 11.3187 14.1324 11.3751 14.1549 11.4461L14.6317 11.2956ZM14.5496 11.3422C14.5318 11.3656 14.5233 11.3635 14.5633 11.3412C14.594 11.324 14.6365 11.3041 14.6879 11.2824C14.7904 11.2393 14.9071 11.1982 14.9947 11.1673L14.8283 10.6958C14.7438 10.7257 14.6125 10.7717 14.4939 10.8216C14.4347 10.8465 14.3733 10.8746 14.3197 10.9046C14.2753 10.9293 14.2021 10.9733 14.1519 11.0392L14.5496 11.3422ZM14.9949 11.1673C15.3977 11.0247 16.141 10.7824 16.3174 9.99858L15.8296 9.88879C15.7226 10.3642 15.2836 10.5348 14.8281 10.6959L14.9949 11.1673ZM16.3173 9.99899C16.4949 9.21618 15.914 8.65342 15.7673 8.50862L15.4161 8.86447C15.5811 9.02738 15.9396 9.40392 15.8297 9.88838L16.3173 9.99899ZM15.7685 8.50977C15.7069 8.44818 15.6643 8.40001 15.6362 8.36527L15.2476 8.67987C15.2883 8.73016 15.3429 8.7913 15.4149 8.86332L15.7685 8.50977ZM15.5729 8.73549C15.7876 8.60338 16.2288 8.42204 16.617 8.26428L16.4288 7.80107C16.0598 7.95101 15.5699 8.15025 15.3109 8.30966L15.5729 8.73549ZM16.2778 7.98365C16.2098 8.3234 16.1433 8.72686 16.1433 9.16025H16.6433C16.6433 8.77579 16.7024 8.40999 16.768 8.0817L16.2778 7.98365ZM16.1433 9.16025C16.1433 9.82762 16.341 10.2985 16.5975 10.6232C16.851 10.9442 17.1495 11.1069 17.3318 11.1827L17.5237 10.721C17.3943 10.6672 17.1756 10.5485 16.9898 10.3133C16.807 10.0818 16.6433 9.72167 16.6433 9.16025H16.1433ZM17.3323 11.1828C18.2001 11.5417 19.2835 11.2168 20.0457 10.4568L19.6927 10.1027C19.0297 10.7638 18.1535 10.9814 17.5233 10.7208L17.3323 11.1828ZM20.0462 10.4562C20.3607 10.1408 20.5334 9.96852 20.97 9.79768C21.4308 9.6173 22.1777 9.44331 23.6375 9.17328L23.5465 8.68162C22.0953 8.95007 21.3006 9.13135 20.7877 9.33207C20.2505 9.54231 20.0174 9.77694 19.6921 10.1032L20.0462 10.4562ZM23.6376 9.17326C25.45 8.83731 26.955 7.7179 28.0119 6.67902C29.0718 5.63711 29.7039 4.65351 29.7689 4.55107L29.3467 4.28322C29.2923 4.36904 28.6835 5.3177 27.6614 6.32244C26.6362 7.3302 25.2179 8.37181 23.5464 8.68163L23.6376 9.17326ZM29.7751 4.54086L30.5383 3.20072L30.1038 2.95329L29.3406 4.29343L29.7751 4.54086ZM30.2799 3.32361L30.3528 3.33575L30.435 2.84255L30.3621 2.83041L30.2799 3.32361ZM30.3475 3.33481C32.5216 3.7452 34.5701 4.46597 36.4672 5.42954L36.6936 4.98375C34.7565 3.99988 32.6632 3.2631 30.4403 2.84349L30.3475 3.33481ZM36.4051 5.02841C36.0408 5.38675 35.5334 5.84805 35.0329 6.2486C34.5228 6.65686 34.0506 6.97649 33.7487 7.08209L33.9138 7.55405C34.3063 7.41673 34.8392 7.04402 35.3453 6.63898C35.8611 6.22624 36.3811 5.7533 36.7557 5.38488L36.4051 5.02841ZM33.7488 7.08206C32.9837 7.3494 32.129 7.71923 31.4609 8.20173C30.7992 8.67962 30.2674 9.308 30.2674 10.0996H30.7674C30.7674 9.55098 31.1365 9.05279 31.7536 8.60707C32.3644 8.16595 33.1667 7.8151 33.9138 7.55408L33.7488 7.08206ZM30.2674 10.0996C30.2674 10.4985 30.3416 10.8638 30.4019 11.1614L30.892 11.0621C30.8308 10.7605 30.7674 10.4416 30.7674 10.0996H30.2674ZM30.402 11.162C30.4322 11.3089 30.4802 11.5543 30.5109 11.6558L30.9895 11.5111C30.9675 11.4385 30.9265 11.2304 30.8918 11.0615L30.402 11.162ZM30.6949 11.3396C30.519 11.3795 30.1688 11.4104 29.8952 11.4357L29.9412 11.9336C30.1939 11.9103 30.5886 11.8764 30.8055 11.8272L30.6949 11.3396ZM29.8969 11.4356C29.4386 11.4747 28.9259 11.5189 28.4458 11.6378C27.9644 11.7571 27.4932 11.9564 27.1279 12.3217L27.4815 12.6752C27.758 12.3987 28.1319 12.2307 28.566 12.1232C29.0015 12.0153 29.4746 11.9735 29.9395 11.9337L29.8969 11.4356ZM27.1279 12.3217C26.7669 12.6827 26.2996 13.2722 25.9429 13.9775C25.5869 14.6814 25.3304 15.5219 25.4225 16.3756L25.9196 16.322C25.8416 15.5988 26.0578 14.8581 26.3891 14.2032C26.7196 13.5496 27.1542 13.0025 27.4815 12.6752L27.1279 12.3217ZM25.4225 16.3759C25.482 16.9226 25.7056 17.6493 26.3795 18.3036L26.7278 17.9448C26.1547 17.3884 25.9694 16.7791 25.9196 16.3217L25.4225 16.3759ZM26.34 17.9945C26.0724 18.4352 25.5608 19.1198 24.6742 19.7755L24.9715 20.1775C25.9189 19.4768 26.4721 18.7403 26.7674 18.2539L26.34 17.9945ZM24.6744 19.7753C24.0925 20.2047 23.6478 20.8737 23.3222 21.6406C22.9955 22.4102 22.781 23.2961 22.6701 24.1822C22.5592 25.0687 22.551 25.9634 22.6418 26.7528C22.732 27.5367 22.9224 28.2399 23.226 28.7266L23.6503 28.4619C23.4032 28.066 23.225 27.4473 23.1385 26.6956C23.0527 25.9495 23.0598 25.095 23.1662 24.2443C23.2727 23.3932 23.4776 22.554 23.7824 21.8361C24.0883 21.1156 24.4873 20.5347 24.9713 20.1776L24.6744 19.7753ZM23.2262 28.7268C23.6401 29.3886 24.3675 30.3408 25.2449 31.1308C26.1138 31.9133 27.1744 32.5772 28.2501 32.5772V32.0772C27.3662 32.0772 26.4247 31.5204 25.5795 30.7593C24.7427 30.0057 24.044 29.0915 23.6501 28.4617L23.2262 28.7268ZM28.2501 32.5772C29.0988 32.5772 30.0001 32.2028 30.8107 31.8702L30.6209 31.4076C29.7836 31.7512 28.9804 32.0772 28.2501 32.0772V32.5772ZM30.8109 31.8701C31.0233 31.7827 31.2795 31.6773 31.5164 31.5901C31.7626 31.4996 31.9576 31.4405 32.0592 31.4301L32.008 30.9327C31.8343 30.9506 31.582 31.0333 31.3438 31.1209C31.0964 31.2118 30.8313 31.321 30.6206 31.4077L30.8109 31.8701ZM31.8572 31.3585C32.4836 31.9829 32.7918 32.3425 32.7918 33.0155H33.2918C33.2918 32.1175 32.8347 31.6269 32.2101 31.0043L31.8572 31.3585ZM32.7918 33.0155C32.7918 33.9974 33.2713 34.6195 33.6184 35.0741L34.0158 34.7707C33.6706 34.3185 33.2918 33.815 33.2918 33.0155H32.7918ZM33.6187 35.0746C33.9236 35.4721 34.0226 35.6295 34.0226 35.8881H34.5226C34.5226 35.4381 34.3099 35.1542 34.0155 34.7703L33.6187 35.0746ZM34.0226 35.8881C34.0226 36.2782 33.9218 36.5133 33.7526 36.8939L34.2095 37.0969C34.3805 36.7122 34.5226 36.3927 34.5226 35.8881H34.0226ZM33.7525 36.8942C33.5384 37.3779 33.2614 38.0063 33.2614 38.9934H33.7614C33.7614 38.1141 34.0027 37.5643 34.2097 37.0966L33.7525 36.8942ZM33.2614 38.9934C33.2614 39.6391 33.4214 40.5487 33.6478 41.4654C33.8753 42.3867 34.1751 43.3359 34.4653 44.0676L34.9301 43.8833C34.6494 43.1756 34.3561 42.2483 34.1332 41.3456C33.9092 40.4384 33.7614 39.5766 33.7614 38.9934H33.2614ZM34.4653 44.0675C34.808 44.9324 35.1491 45.5496 35.5109 45.9114L35.8644 45.5578C35.5784 45.2718 35.2676 44.7351 34.9301 43.8833L34.4653 44.0675ZM35.5092 45.9097C35.6315 46.0344 35.7741 46.1387 35.9309 46.2147L36.1489 45.7647C36.0465 45.7151 35.9503 45.6454 35.8661 45.5596L35.5092 45.9097ZM35.9281 46.2133C36.0797 46.2891 36.2454 46.3288 36.4144 46.3288V45.8288C36.3242 45.8288 36.2349 45.8077 36.1517 45.7661L35.9281 46.2133ZM36.4144 46.3288C36.5452 46.3288 36.6799 46.3053 36.808 46.2545L36.624 45.7896C36.5578 45.8158 36.486 45.8288 36.4144 45.8288V46.3288ZM36.8062 46.2552C37.213 46.0978 37.6154 45.9303 38.0133 45.7548L37.8115 45.2974C37.42 45.4701 37.0247 45.6346 36.6258 45.7889L36.8062 46.2552ZM38.0131 45.755C38.6386 45.4799 39.2082 45.2104 39.7765 44.9161L39.5465 44.4721C38.9892 44.7608 38.4292 45.0257 37.8118 45.2973L38.0131 45.755ZM39.7768 44.9159C39.8475 44.8791 39.9118 44.8331 39.9659 44.7867L39.6405 44.4071C39.6096 44.4336 39.5767 44.4564 39.5461 44.4723L39.7768 44.9159ZM39.9643 44.7881C40.3581 44.4561 40.7472 44.0896 41.1194 43.701L40.7583 43.3551C40.3977 43.7317 40.0215 44.0859 39.6421 44.4058L39.9643 44.7881ZM41.1196 43.7008C41.3438 43.4663 41.56 43.2254 41.7621 42.9841L41.3788 42.663C41.1841 42.8955 40.9753 43.1282 40.7582 43.3553L41.1196 43.7008ZM41.761 42.9855C41.972 42.7372 42.1684 42.4849 42.3484 42.2347L41.9424 41.9428C41.7701 42.1824 41.582 42.424 41.38 42.6616L41.761 42.9855ZM42.3485 42.2345C43.089 41.2032 43.8631 40.0806 44.4519 38.9393C45.0397 37.7999 45.4542 36.6206 45.4542 35.4771H44.9542C44.9542 36.5058 44.5792 37.6019 44.0076 38.71C43.4369 39.8163 42.6816 40.9134 41.9423 41.9429L42.3485 42.2345ZM45.4542 35.4771C45.4542 34.6596 45.5822 34.0661 45.8254 33.5563C46.0701 33.0433 46.4399 32.597 46.9539 32.0829L46.6004 31.7293C46.0719 32.2578 45.6552 32.7518 45.3741 33.341C45.0915 33.9335 44.9542 34.6043 44.9542 35.4771H45.4542ZM46.9539 32.0829C47.691 31.3459 48.0532 30.3734 48.1755 29.4154C48.2977 28.4579 48.183 27.4961 47.9465 26.755L47.4702 26.907C47.6852 27.581 47.7922 28.4694 47.6795 29.3521C47.5669 30.2343 47.2379 31.0918 46.6004 31.7293L46.9539 32.0829ZM47.7843 27.0692C48.1958 26.9381 48.9503 26.6845 49.2944 25.8831L48.835 25.6858C48.588 26.2609 48.0468 26.4608 47.6325 26.5928L47.7843 27.0692ZM49.2935 25.8851C49.3278 25.8071 49.4032 25.6818 49.5128 25.5244L49.1025 25.2387C48.9894 25.4011 48.8906 25.5592 48.8359 25.6837L49.2935 25.8851ZM49.0577 25.3868C49.0598 25.4896 49.0669 25.591 49.0728 25.6839C49.0789 25.7791 49.0839 25.8671 49.0839 25.9545H49.5839C49.5839 25.8495 49.5779 25.7472 49.5718 25.6521C49.5656 25.5547 49.5595 25.4659 49.5576 25.3763L49.0577 25.3868ZM49.0839 25.9545V25.997H49.5839V25.9545H49.0839ZM49.3339 25.747H49.3258V26.247H49.3339V25.747Z" fill="white"/>
</svg>
