<svg width="52" height="52" viewBox="0 0 52 52" fill="none" xmlns="http://www.w3.org/2000/svg">
<path fill-rule="evenodd" clip-rule="evenodd" d="M41.6863 6.58823L41.5882 6.4902C37.3235 3.05882 31.8824 1 26 1C12.2255 1 1 12.2255 1 26C1 39.7745 12.2255 51 26 51C39.7745 51 51 39.7745 51 26C51 18.1569 47.3726 11.1471 41.6863 6.58823ZM42.1275 43.7451H30.0196C29.7255 43.7451 29.5294 43.9412 29.5294 44.2353C29.5294 44.5294 29.7255 44.7255 30.0196 44.7255H41C39.7745 45.7059 38.402 46.5882 36.9804 47.3235C36.9601 47.3235 36.9398 47.3151 36.916 47.3053C36.8824 47.2913 36.8417 47.2745 36.7843 47.2745H32.5196C32.2255 47.2745 32.0294 47.4706 32.0294 47.7647C32.0294 48.0588 32.2255 48.2549 32.5196 48.2549H34.9216C32.1765 49.3824 29.1373 49.9706 26 49.9706C12.9118 49.9706 2.22549 39.4804 1.98039 26.4412H7.86275C8.15686 26.4412 8.35294 26.2451 8.35294 25.951C8.35294 25.6569 8.15686 25.4608 7.86275 25.4608H1.98039C1.98039 24.5294 2.07843 23.598 2.17647 22.7157H18.7941C19.0882 22.7157 19.2843 22.5196 19.2843 22.2255C19.2843 21.9314 19.0882 21.7353 18.7941 21.7353H2.32353C4.33333 10.5098 14.1863 1.93137 25.951 1.93137C31.098 1.93137 35.902 3.59804 39.8235 6.34314H24.5294C24.2353 6.34314 24.0392 6.53922 24.0392 6.83333C24.0392 7.12745 24.2353 7.32353 24.5294 7.32353H41.098C46.4902 11.7353 49.9706 18.451 49.9706 25.951C50.0196 33.0098 46.9804 39.3824 42.1275 43.7451ZM37.5686 20.6568C35.7549 20.6568 34.2843 19.1862 34.2843 17.3725C34.2843 15.5588 35.7549 14.0882 37.5686 14.0882C39.3823 14.0882 40.8529 15.5588 40.8529 17.3725C40.8529 18.0097 40.6568 18.598 40.3627 19.1372C40.2157 19.3823 40.2647 19.6764 40.5098 19.8235C40.7549 19.9705 41.049 19.9215 41.1961 19.6764C41.6372 18.9901 41.8333 18.2058 41.8333 17.4215C41.8333 15.0686 39.9216 13.1568 37.5686 13.1568C35.2157 13.1568 33.3039 15.0686 33.3039 17.4215C33.3039 19.7744 35.2157 21.6862 37.5686 21.6862C37.8627 21.6862 38.0588 21.4901 38.0588 21.196C38.0588 20.9019 37.8137 20.6568 37.5686 20.6568ZM11.6864 14.3824C11.6864 12.8628 12.9118 11.6373 14.4315 11.6373C16.0001 11.6373 17.1766 12.8628 17.1766 14.3824C17.1766 15.902 15.9511 17.1275 14.4315 17.1275C12.9118 17.1275 11.6864 15.902 11.6864 14.3824ZM12.6667 14.3824C12.6667 15.3628 13.4511 16.1471 14.4315 16.1471C15.4609 16.1471 16.1962 15.3628 16.1962 14.3824C16.1962 13.402 15.4118 12.6177 14.4315 12.6177C13.4511 12.6177 12.6667 13.402 12.6667 14.3824ZM24.2843 29.4805C24.0392 29.5785 23.8921 29.8727 24.0392 30.1178C24.3333 30.8531 24.4804 31.5884 24.4804 32.3727C24.4804 35.608 21.8333 38.255 18.598 38.255C15.3627 38.255 12.7157 35.608 12.7157 32.3727C12.7157 29.1374 15.3627 26.4903 18.598 26.4903C19.6765 26.4903 20.7549 26.7844 21.6863 27.3727C21.9314 27.5197 22.2255 27.4217 22.3725 27.2256C22.5196 26.9805 22.4216 26.6864 22.2255 26.5393C21.147 25.8531 19.8725 25.5099 18.598 25.5099C14.8235 25.5099 11.7353 28.5982 11.7353 32.3727C11.7353 36.1472 14.8235 39.2354 18.598 39.2354C22.3725 39.2354 25.4608 36.1472 25.4608 32.3727C25.4608 31.4413 25.2647 30.5589 24.9216 29.7256C24.8235 29.4805 24.5294 29.3825 24.2843 29.4805ZM39.5294 35.2156C39.5294 33.696 40.7549 32.4705 42.2745 32.4705C43.7941 32.4705 45.0196 33.696 45.0196 35.2156C45.0196 36.7352 43.7941 37.9607 42.2745 37.9607C40.7549 37.9607 39.5294 36.7352 39.5294 35.2156ZM40.5098 35.2156C40.5098 36.196 41.2941 36.9803 42.2745 36.9803C43.2549 36.9803 44.0392 36.196 44.0392 35.2156C44.0392 34.2352 43.2549 33.4509 42.2745 33.4509C41.2941 33.4509 40.5098 34.2352 40.5098 35.2156Z" fill="white"/>
<path d="M41.5882 6.4902L41.9418 6.13664L41.9227 6.11756L41.9017 6.10064L41.5882 6.4902ZM41.6863 6.58823L41.3327 6.94179L41.3521 6.96118L41.3735 6.97834L41.6863 6.58823ZM42.1275 43.7451V44.2451H42.3192L42.4617 44.1169L42.1275 43.7451ZM41 44.7255L41.3123 45.1159L42.4254 44.2255H41V44.7255ZM36.9804 47.3235V47.8235H37.102L37.2101 47.7676L36.9804 47.3235ZM36.916 47.3053L37.1074 46.8433L37.1073 46.8433L36.916 47.3053ZM34.9216 48.2549L35.1115 48.7174L34.9216 47.7549V48.2549ZM1.98039 26.4412V25.9412H1.47091L1.48048 26.4506L1.98039 26.4412ZM1.98039 25.4608H1.48039V25.9608H1.98039V25.4608ZM2.17647 22.7157V22.2157H1.72895L1.67953 22.6605L2.17647 22.7157ZM2.32353 21.7353L1.83136 21.6472L1.72606 22.2353H2.32353V21.7353ZM39.8235 6.34314V6.84314H41.4097L40.1103 5.93352L39.8235 6.34314ZM41.098 7.32353L41.4147 6.93655L41.2765 6.82353H41.098V7.32353ZM49.9706 25.951L49.4706 25.951L49.4706 25.9545L49.9706 25.951ZM40.3627 19.1372L40.7915 19.3944L40.7968 19.3856L40.8017 19.3766L40.3627 19.1372ZM41.1961 19.6764L40.7755 19.406L40.7713 19.4125L40.7673 19.4192L41.1961 19.6764ZM24.0392 30.1178L24.5034 29.9321L24.4886 29.8949L24.468 29.8605L24.0392 30.1178ZM24.2843 29.4805L24.0986 29.0163L24.0986 29.0163L24.2843 29.4805ZM21.6863 27.3727L21.4192 27.7955L21.429 27.8014L21.6863 27.3727ZM22.3725 27.2256L22.7725 27.5256L22.788 27.505L22.8013 27.4829L22.3725 27.2256ZM22.2255 26.5393L22.5255 26.1393L22.5101 26.1278L22.4939 26.1175L22.2255 26.5393ZM24.9216 29.7256L24.4573 29.9113L24.4592 29.916L24.9216 29.7256ZM41.2347 6.84375L41.3327 6.94179L42.0398 6.23468L41.9418 6.13664L41.2347 6.84375ZM26 1.5C31.7642 1.5 37.0957 3.51723 41.2748 6.87976L41.9017 6.10064C37.5514 2.60042 32.0005 0.5 26 0.5V1.5ZM1.5 26C1.5 12.5016 12.5016 1.5 26 1.5V0.5C11.9493 0.5 0.5 11.9493 0.5 26H1.5ZM26 50.5C12.5016 50.5 1.5 39.4984 1.5 26H0.5C0.5 40.0507 11.9493 51.5 26 51.5V50.5ZM50.5 26C50.5 39.4984 39.4984 50.5 26 50.5V51.5C40.0507 51.5 51.5 40.0507 51.5 26H50.5ZM41.3735 6.97834C46.9461 11.446 50.5 18.3144 50.5 26H51.5C51.5 17.9993 47.799 10.8481 41.999 6.19813L41.3735 6.97834ZM30.0196 44.2451H42.1275V43.2451H30.0196V44.2451ZM30.0294 44.2353C30.0294 44.2174 30.0323 44.2115 30.0313 44.2141C30.0308 44.2153 30.0296 44.2181 30.0272 44.2218C30.0248 44.2255 30.0217 44.2295 30.0178 44.2335C30.0139 44.2374 30.0098 44.2405 30.0061 44.2429C30.0024 44.2453 29.9996 44.2465 29.9984 44.247C29.9958 44.248 30.0017 44.2451 30.0196 44.2451V43.2451C29.7589 43.2451 29.5028 43.3342 29.3107 43.5263C29.1185 43.7185 29.0294 43.9746 29.0294 44.2353H30.0294ZM30.0196 44.2255C30.0017 44.2255 29.9958 44.2226 29.9984 44.2236C29.9996 44.2241 30.0024 44.2253 30.0061 44.2277C30.0098 44.2301 30.0139 44.2332 30.0178 44.2371C30.0217 44.241 30.0248 44.2451 30.0272 44.2488C30.0296 44.2525 30.0308 44.2553 30.0313 44.2565C30.0323 44.2591 30.0294 44.2532 30.0294 44.2353H29.0294C29.0294 44.496 29.1185 44.7521 29.3107 44.9442C29.5028 45.1364 29.7589 45.2255 30.0196 45.2255V44.2255ZM41 44.2255H30.0196V45.2255H41V44.2255ZM37.2101 47.7676C38.6592 47.0181 40.0597 46.1181 41.3123 45.1159L40.6877 44.3351C39.4894 45.2937 38.1447 46.1584 36.7507 46.8794L37.2101 47.7676ZM36.7246 47.7672C36.7317 47.7701 36.7638 47.7838 36.7993 47.795C36.838 47.8072 36.9015 47.8235 36.9804 47.8235V46.8235C37.039 46.8235 37.0822 46.8357 37.0997 46.8412C37.1088 46.8441 37.1147 46.8464 37.1152 46.8465C37.1152 46.8466 37.1143 46.8462 37.1074 46.8433L36.7246 47.7672ZM36.7843 47.7745C36.7623 47.7745 36.7418 47.771 36.726 47.7666C36.7139 47.7633 36.706 47.7595 36.7247 47.7672L37.1073 46.8433C37.0673 46.8267 36.9479 46.7745 36.7843 46.7745V47.7745ZM32.5196 47.7745H36.7843V46.7745H32.5196V47.7745ZM32.5294 47.7647C32.5294 47.7468 32.5323 47.7409 32.5313 47.7435C32.5308 47.7447 32.5296 47.7475 32.5272 47.7512C32.5248 47.7549 32.5217 47.759 32.5178 47.7629C32.5139 47.7668 32.5098 47.7699 32.5061 47.7723C32.5024 47.7747 32.4996 47.7759 32.4984 47.7764C32.4958 47.7774 32.5017 47.7745 32.5196 47.7745V46.7745C32.2589 46.7745 32.0028 46.8636 31.8107 47.0558C31.6185 47.2479 31.5294 47.504 31.5294 47.7647H32.5294ZM32.5196 47.7549C32.5017 47.7549 32.4958 47.752 32.4984 47.753C32.4996 47.7535 32.5024 47.7547 32.5061 47.7571C32.5098 47.7595 32.5139 47.7626 32.5178 47.7665C32.5217 47.7705 32.5248 47.7745 32.5272 47.7782C32.5296 47.7819 32.5308 47.7847 32.5313 47.7859C32.5323 47.7885 32.5294 47.7826 32.5294 47.7647H31.5294C31.5294 48.0254 31.6185 48.2815 31.8107 48.4737C32.0028 48.6658 32.2589 48.7549 32.5196 48.7549V47.7549ZM34.9216 47.7549H32.5196V48.7549H34.9216V47.7549ZM26 50.4706C29.1993 50.4706 32.3033 49.8708 35.1115 48.7174L34.7316 47.7924C32.0496 48.8939 29.0752 49.4706 26 49.4706V50.4706ZM1.48048 26.4506C1.73071 39.7628 12.6398 50.4706 26 50.4706V49.4706C13.1837 49.4706 2.72027 39.198 2.4803 26.4318L1.48048 26.4506ZM7.86275 25.9412H1.98039V26.9412H7.86275V25.9412ZM7.85294 25.951C7.85294 25.9689 7.85002 25.9748 7.85104 25.9722C7.85151 25.9709 7.85272 25.9682 7.8551 25.9645C7.85751 25.9608 7.86067 25.9567 7.86458 25.9528C7.86849 25.9489 7.87252 25.9457 7.87625 25.9433C7.87995 25.941 7.88271 25.9397 7.88393 25.9393C7.88658 25.9383 7.88063 25.9412 7.86275 25.9412V26.9412C8.12343 26.9412 8.37952 26.8521 8.57169 26.6599C8.76386 26.4678 8.85294 26.2117 8.85294 25.951H7.85294ZM7.86275 25.9608C7.88063 25.9608 7.88658 25.9637 7.88393 25.9627C7.88271 25.9622 7.87995 25.961 7.87625 25.9586C7.87252 25.9562 7.86849 25.9531 7.86458 25.9491C7.86067 25.9452 7.85751 25.9412 7.8551 25.9375C7.85272 25.9338 7.85151 25.931 7.85104 25.9298C7.85002 25.9271 7.85294 25.9331 7.85294 25.951H8.85294C8.85294 25.6903 8.76386 25.4342 8.57169 25.242C8.37952 25.0499 8.12343 24.9608 7.86275 24.9608V25.9608ZM1.98039 25.9608H7.86275V24.9608H1.98039V25.9608ZM1.67953 22.6605C1.58166 23.5413 1.48039 24.4982 1.48039 25.4608H2.48039C2.48039 24.5606 2.5752 23.6548 2.67341 22.7709L1.67953 22.6605ZM18.7941 22.2157H2.17647V23.2157H18.7941V22.2157ZM18.7843 22.2255C18.7843 22.2434 18.7814 22.2493 18.7824 22.2467C18.7829 22.2455 18.7841 22.2427 18.7865 22.239C18.7889 22.2353 18.792 22.2312 18.796 22.2273C18.7999 22.2234 18.8039 22.2203 18.8076 22.2179C18.8113 22.2155 18.8141 22.2143 18.8153 22.2138C18.818 22.2128 18.812 22.2157 18.7941 22.2157V23.2157C19.0548 23.2157 19.3109 23.1266 19.5031 22.9344C19.6952 22.7423 19.7843 22.4862 19.7843 22.2255H18.7843ZM18.7941 22.2353C18.812 22.2353 18.818 22.2382 18.8153 22.2372C18.8141 22.2367 18.8113 22.2355 18.8076 22.2331C18.8039 22.2307 18.7999 22.2276 18.796 22.2237C18.792 22.2197 18.7889 22.2157 18.7865 22.212C18.7841 22.2083 18.7829 22.2055 18.7824 22.2043C18.7814 22.2017 18.7843 22.2076 18.7843 22.2255H19.7843C19.7843 21.9648 19.6952 21.7087 19.5031 21.5165C19.3109 21.3244 19.0548 21.2353 18.7941 21.2353V22.2353ZM2.32353 22.2353H18.7941V21.2353H2.32353V22.2353ZM25.951 1.43137C13.9386 1.43137 3.88286 10.1888 1.83136 21.6472L2.8157 21.8234C4.78381 10.8308 14.4339 2.43137 25.951 2.43137V1.43137ZM40.1103 5.93352C36.11 3.13337 31.207 1.43137 25.951 1.43137V2.43137C30.9891 2.43137 35.6939 4.06271 39.5368 6.75275L40.1103 5.93352ZM24.5294 6.84314H39.8235V5.84314H24.5294V6.84314ZM24.5392 6.83333C24.5392 6.81544 24.5421 6.8095 24.5411 6.81215C24.5407 6.81337 24.5394 6.81613 24.5371 6.81983C24.5347 6.82356 24.5315 6.82758 24.5276 6.83149C24.5237 6.83541 24.5196 6.83857 24.5159 6.84097C24.5122 6.84336 24.5094 6.84457 24.5082 6.84504C24.5056 6.84606 24.5115 6.84314 24.5294 6.84314V5.84314C24.2687 5.84314 24.0126 5.93221 23.8205 6.12439C23.6283 6.31656 23.5392 6.57265 23.5392 6.83333H24.5392ZM24.5294 6.82353C24.5115 6.82353 24.5056 6.82061 24.5082 6.82162C24.5094 6.82209 24.5122 6.8233 24.5159 6.82569C24.5196 6.82809 24.5237 6.83126 24.5276 6.83517C24.5315 6.83908 24.5347 6.84311 24.5371 6.84683C24.5394 6.85054 24.5407 6.85329 24.5411 6.85452C24.5421 6.85717 24.5392 6.85122 24.5392 6.83333H23.5392C23.5392 7.09402 23.6283 7.35011 23.8205 7.54228C24.0126 7.73445 24.2687 7.82353 24.5294 7.82353V6.82353ZM41.098 6.82353H24.5294V7.82353H41.098V6.82353ZM50.4706 25.951C50.4706 18.293 46.9165 11.4381 41.4147 6.93655L40.7814 7.71051C46.0639 12.0325 49.4706 18.609 49.4706 25.951H50.4706ZM42.4617 44.1169C47.417 39.6621 50.5206 33.1547 50.4706 25.9475L49.4706 25.9545C49.5186 32.8649 46.5437 39.1026 41.7932 43.3733L42.4617 44.1169ZM33.7843 17.3725C33.7843 19.4624 35.4787 21.1568 37.5686 21.1568V20.1568C36.031 20.1568 34.7843 18.9101 34.7843 17.3725H33.7843ZM37.5686 13.5882C35.4787 13.5882 33.7843 15.2826 33.7843 17.3725H34.7843C34.7843 15.8349 36.031 14.5882 37.5686 14.5882V13.5882ZM41.3529 17.3725C41.3529 15.2826 39.6585 13.5882 37.5686 13.5882V14.5882C39.1062 14.5882 40.3529 15.8349 40.3529 17.3725H41.3529ZM40.8017 19.3766C41.1239 18.7859 41.3529 18.1153 41.3529 17.3725H40.3529C40.3529 17.9042 40.1898 18.41 39.9238 18.8978L40.8017 19.3766ZM40.767 19.3947C40.7649 19.3934 40.7648 19.3931 40.766 19.3942C40.7672 19.3953 40.7691 19.3973 40.7712 19.4003C40.7758 19.4068 40.7784 19.4137 40.7795 19.419C40.7817 19.4299 40.7757 19.4208 40.7915 19.3944L39.934 18.8799C39.6685 19.3225 39.7331 19.9406 40.2525 20.2522L40.767 19.3947ZM40.7673 19.4192C40.766 19.4213 40.7657 19.4214 40.7668 19.4202C40.7679 19.419 40.7699 19.4171 40.7729 19.415C40.7794 19.4104 40.7863 19.4078 40.7916 19.4067C40.8025 19.4045 40.7934 19.4105 40.767 19.3947L40.2525 20.2522C40.6951 20.5177 41.3132 20.4531 41.6248 19.9337L40.7673 19.4192ZM41.3333 17.4215C41.3333 18.1229 41.1582 18.8106 40.7755 19.406L41.6166 19.9468C42.1162 19.1696 42.3333 18.2888 42.3333 17.4215H41.3333ZM37.5686 13.6568C39.6454 13.6568 41.3333 15.3447 41.3333 17.4215H42.3333C42.3333 14.7924 40.1977 12.6568 37.5686 12.6568V13.6568ZM33.8039 17.4215C33.8039 15.3447 35.4918 13.6568 37.5686 13.6568V12.6568C34.9395 12.6568 32.8039 14.7924 32.8039 17.4215H33.8039ZM37.5686 21.1862C35.4918 21.1862 33.8039 19.4983 33.8039 17.4215H32.8039C32.8039 20.0506 34.9395 22.1862 37.5686 22.1862V21.1862ZM37.5588 21.196C37.5588 21.2139 37.5559 21.2198 37.5569 21.2172C37.5574 21.216 37.5586 21.2132 37.561 21.2095C37.5634 21.2058 37.5665 21.2018 37.5704 21.1979C37.5744 21.1939 37.5784 21.1908 37.5821 21.1884C37.5858 21.186 37.5886 21.1848 37.5898 21.1843C37.5924 21.1833 37.5865 21.1862 37.5686 21.1862V22.1862C37.8293 22.1862 38.0854 22.0971 38.2776 21.905C38.4697 21.7128 38.5588 21.4567 38.5588 21.196H37.5588ZM37.5686 21.1568C37.5464 21.1568 37.5341 21.1513 37.5322 21.1505C37.5305 21.1496 37.5345 21.1514 37.5409 21.1581C37.547 21.1646 37.552 21.1724 37.5551 21.18C37.5581 21.1871 37.5588 21.1924 37.5588 21.196H38.5588C38.5588 20.6566 38.1198 20.1568 37.5686 20.1568V21.1568ZM14.4315 11.1373C12.6357 11.1373 11.1864 12.5867 11.1864 14.3824H12.1864C12.1864 13.139 13.188 12.1373 14.4315 12.1373V11.1373ZM17.6766 14.3824C17.6766 12.5926 16.2821 11.1373 14.4315 11.1373V12.1373C15.7181 12.1373 16.6766 13.1331 16.6766 14.3824H17.6766ZM14.4315 17.6275C16.2272 17.6275 17.6766 16.1782 17.6766 14.3824H16.6766C16.6766 15.6259 15.6749 16.6275 14.4315 16.6275V17.6275ZM11.1864 14.3824C11.1864 16.1782 12.6357 17.6275 14.4315 17.6275V16.6275C13.188 16.6275 12.1864 15.6259 12.1864 14.3824H11.1864ZM14.4315 15.6471C13.7272 15.6471 13.1667 15.0867 13.1667 14.3824H12.1667C12.1667 15.639 13.1749 16.6471 14.4315 16.6471V15.6471ZM15.6962 14.3824C15.6962 15.0959 15.1756 15.6471 14.4315 15.6471V16.6471C15.7461 16.6471 16.6962 15.6298 16.6962 14.3824H15.6962ZM14.4315 13.1177C15.1357 13.1177 15.6962 13.6782 15.6962 14.3824H16.6962C16.6962 13.1259 15.688 12.1177 14.4315 12.1177V13.1177ZM13.1667 14.3824C13.1667 13.6782 13.7272 13.1177 14.4315 13.1177V12.1177C13.1749 12.1177 12.1667 13.1259 12.1667 14.3824H13.1667ZM24.468 29.8605C24.4739 29.8705 24.4795 29.8863 24.4804 29.9045C24.4812 29.9213 24.4777 29.9328 24.4755 29.938C24.4735 29.9429 24.472 29.944 24.4725 29.9435C24.4729 29.9431 24.4725 29.9437 24.47 29.9447L24.0986 29.0163C23.64 29.1997 23.2673 29.8031 23.6105 30.375L24.468 29.8605ZM24.9804 32.3727C24.9804 31.5221 24.8202 30.7239 24.5034 29.9321L23.575 30.3035C23.8465 30.9822 23.9804 31.6546 23.9804 32.3727H24.9804ZM18.598 38.755C22.1095 38.755 24.9804 35.8841 24.9804 32.3727H23.9804C23.9804 35.3318 21.5572 37.755 18.598 37.755V38.755ZM12.2157 32.3727C12.2157 35.8841 15.0866 38.755 18.598 38.755V37.755C15.6389 37.755 13.2157 35.3318 13.2157 32.3727H12.2157ZM18.598 25.9903C15.0866 25.9903 12.2157 28.8612 12.2157 32.3727H13.2157C13.2157 29.4135 15.6389 26.9903 18.598 26.9903V25.9903ZM21.9533 26.9499C20.9382 26.3088 19.7664 25.9903 18.598 25.9903V26.9903C19.5865 26.9903 20.5716 27.26 21.4193 27.7954L21.9533 26.9499ZM21.9725 26.9256C21.9715 26.927 21.9681 26.9309 21.9618 26.935C21.9556 26.9391 21.9495 26.9416 21.9449 26.9427C21.9406 26.9438 21.9395 26.9433 21.9411 26.9435C21.9436 26.9438 21.9449 26.9447 21.9435 26.9439L21.429 27.8014C21.9323 28.1034 22.5003 27.8886 22.7725 27.5256L21.9725 26.9256ZM21.9255 26.9393C21.9269 26.9404 21.9308 26.9438 21.9349 26.9501C21.939 26.9563 21.9415 26.9624 21.9426 26.967C21.9437 26.9713 21.9432 26.9724 21.9434 26.9707C21.9437 26.9683 21.9446 26.967 21.9438 26.9684L22.8013 27.4829C23.1033 26.9795 22.8885 26.4116 22.5255 26.1393L21.9255 26.9393ZM18.598 26.0099C19.7848 26.0099 20.9648 26.3297 21.957 26.9612L22.4939 26.1175C21.3293 25.3764 19.9603 25.0099 18.598 25.0099V26.0099ZM12.2353 32.3727C12.2353 28.8743 15.0997 26.0099 18.598 26.0099V25.0099C14.5474 25.0099 11.2353 28.322 11.2353 32.3727H12.2353ZM18.598 38.7354C15.0997 38.7354 12.2353 35.871 12.2353 32.3727H11.2353C11.2353 36.4233 14.5474 39.7354 18.598 39.7354V38.7354ZM24.9608 32.3727C24.9608 35.871 22.0964 38.7354 18.598 38.7354V39.7354C22.6487 39.7354 25.9608 36.4233 25.9608 32.3727H24.9608ZM24.4592 29.916C24.7802 30.6954 24.9608 31.5133 24.9608 32.3727H25.9608C25.9608 31.3693 25.7492 30.4224 25.3839 29.5352L24.4592 29.916ZM24.47 29.9447C24.4726 29.9437 24.4759 29.943 24.4795 29.9429C24.4833 29.9429 24.4854 29.9436 24.4852 29.9436C24.4849 29.9434 24.4805 29.9417 24.4742 29.9359C24.4673 29.9294 24.461 29.9206 24.4573 29.9113L25.3858 29.5399C25.1675 28.9942 24.5535 28.8343 24.0986 29.0163L24.47 29.9447ZM42.2745 31.9705C40.4787 31.9705 39.0294 33.4199 39.0294 35.2156H40.0294C40.0294 33.9722 41.031 32.9705 42.2745 32.9705V31.9705ZM45.5196 35.2156C45.5196 33.4199 44.0702 31.9705 42.2745 31.9705V32.9705C43.518 32.9705 44.5196 33.9722 44.5196 35.2156H45.5196ZM42.2745 38.4607C44.0702 38.4607 45.5196 37.0114 45.5196 35.2156H44.5196C44.5196 36.4591 43.518 37.4607 42.2745 37.4607V38.4607ZM39.0294 35.2156C39.0294 37.0114 40.4787 38.4607 42.2745 38.4607V37.4607C41.031 37.4607 40.0294 36.4591 40.0294 35.2156H39.0294ZM42.2745 36.4803C41.5702 36.4803 41.0098 35.9199 41.0098 35.2156H40.0098C40.0098 36.4722 41.018 37.4803 42.2745 37.4803V36.4803ZM43.5392 35.2156C43.5392 35.9199 42.9787 36.4803 42.2745 36.4803V37.4803C43.531 37.4803 44.5392 36.4722 44.5392 35.2156H43.5392ZM42.2745 33.9509C42.9787 33.9509 43.5392 34.5114 43.5392 35.2156H44.5392C44.5392 33.9591 43.531 32.9509 42.2745 32.9509V33.9509ZM41.0098 35.2156C41.0098 34.5114 41.5702 33.9509 42.2745 33.9509V32.9509C41.018 32.9509 40.0098 33.9591 40.0098 35.2156H41.0098Z" fill="white"/>
</svg>
