<svg width="52" height="52" viewBox="0 0 52 52" fill="none" xmlns="http://www.w3.org/2000/svg">
<path d="M26 1C21.0555 1 16.222 2.46622 12.1108 5.21326C7.99953 7.96029 4.79521 11.8648 2.90302 16.4329C1.01083 21.0011 0.515749 26.0277 1.48038 30.8773C2.44501 35.7268 4.82603 40.1814 8.32234 43.6777C11.8187 47.174 16.2732 49.555 21.1228 50.5196C25.9723 51.4843 30.9989 50.9892 35.5671 49.097C40.1352 47.2048 44.0397 44.0005 46.7868 39.8893C49.5338 35.778 51 30.9445 51 26C50.9926 19.3719 48.3563 13.0173 43.6695 8.33055C38.9827 3.64376 32.6281 1.00744 26 1ZM39.9766 44.8016C39.9456 44.7948 39.9143 44.7898 39.8828 44.7867C37.5194 44.8541 35.1556 44.6653 32.8328 44.2234C31.3758 44.0039 29.8688 43.7766 28.3734 43.6687C24.7403 43.4165 21.0924 43.859 17.625 44.9727C17.4477 45.0297 17.2965 45.1482 17.1989 45.3068C17.1012 45.4655 17.0634 45.6538 17.0924 45.8378C17.1213 46.0218 17.2151 46.1894 17.3567 46.3104C17.4984 46.4314 17.6786 46.4978 17.8649 46.4977C17.9463 46.4975 18.0271 46.4849 18.1047 46.4602C21.3811 45.408 24.8279 44.9893 28.2609 45.2266C29.6945 45.3305 31.1711 45.5531 32.5992 45.768C34.2399 46.0156 35.9203 46.2648 37.5992 46.3508C34.4812 48.1289 30.9963 49.167 27.4135 49.3849C23.8307 49.6028 20.2458 48.9947 16.9352 47.6076C13.6247 46.2204 10.677 44.0913 8.31974 41.3844C5.96245 38.6775 4.25852 35.4653 3.33941 31.9956C2.42029 28.5258 2.31057 24.8913 3.0187 21.3724C3.72683 17.8535 5.23389 14.5444 7.4236 11.7002C9.61331 8.85609 12.4271 6.55301 15.648 4.96868C18.8688 3.38435 22.4106 2.56112 26 2.5625C30.1585 2.5589 34.2422 3.66896 37.8266 5.77734C36.3022 6.56091 34.6568 7.08226 32.9594 7.31953C30.3223 7.62972 27.6563 7.60084 25.0266 7.23359C24.3063 7.15078 23.5852 7.05547 22.8649 6.96172C20.4079 6.57383 17.9233 6.38701 15.4359 6.40312C15.229 6.40985 15.0332 6.49847 14.8915 6.6495C14.7499 6.80054 14.674 7.00163 14.6805 7.20859C14.6795 7.31243 14.7002 7.41533 14.741 7.51079C14.7819 7.60625 14.8421 7.69219 14.9179 7.76319C14.9937 7.83419 15.0833 7.8887 15.1812 7.92327C15.2792 7.95785 15.3832 7.97174 15.4867 7.96406C17.8896 7.95591 20.2894 8.13878 22.6633 8.51094C23.3914 8.60625 24.1195 8.70078 24.8508 8.78516C26.4556 8.98401 28.0705 9.09018 29.6875 9.10312C30.8588 9.10984 32.0291 9.03151 33.1891 8.86875C35.3532 8.57045 37.4358 7.84208 39.3141 6.72656C39.8104 7.07083 40.293 7.43281 40.7617 7.8125C37.9274 10.2344 34.3399 12.1648 29.5055 13.8648C22.0331 16.5016 14.1465 17.7692 6.22423 17.607C6.01889 17.6094 5.82217 17.69 5.67423 17.8324C5.52629 17.9748 5.43827 18.1683 5.42814 18.3734C5.42617 18.476 5.44443 18.578 5.48189 18.6736C5.51934 18.7691 5.57525 18.8563 5.64642 18.9303C5.71759 19.0042 5.80263 19.0634 5.89668 19.1044C5.99073 19.1455 6.09194 19.1676 6.19454 19.1695C6.63152 19.1779 7.06824 19.182 7.5047 19.182C15.1745 19.1869 22.7893 17.8874 30.0234 15.3391C35.143 13.5422 38.9399 11.4695 41.9531 8.85469C44.1702 10.9174 45.9687 13.3883 47.25 16.132C44.9164 19.1789 41.0188 21.3617 36.2016 22.2852C33.4761 22.7532 30.7136 22.9716 27.9484 22.9375C27.7412 22.9375 27.5425 23.0198 27.396 23.1663C27.2495 23.3128 27.1672 23.5115 27.1672 23.7187C27.1672 23.9259 27.2495 24.1247 27.396 24.2712C27.5425 24.4177 27.7412 24.5 27.9484 24.5C30.8106 24.534 33.6699 24.3065 36.4906 23.8203C41.3274 22.893 45.3281 20.7539 47.9313 17.7586C49.7809 22.6725 49.9248 28.0656 48.3399 33.0711C46.8991 33.8373 45.3799 34.4457 43.8086 34.8859C43.6263 34.9362 43.4684 35.0509 43.3643 35.2088C43.2601 35.3666 43.2167 35.5569 43.2422 35.7443C43.2677 35.9317 43.3603 36.1035 43.5028 36.2278C43.6453 36.3521 43.8281 36.4205 44.0172 36.4203C44.0882 36.4203 44.1589 36.4109 44.2274 36.3922C45.3676 36.0725 46.4824 35.6683 47.5625 35.1828C47.2563 35.899 46.9159 36.5958 46.5414 37.2734C42.5844 38.6336 38.4805 38.4625 33.9156 38.1148C32.0141 37.9687 30.0805 37.7539 28.2125 37.5453C25.3024 37.2211 22.2938 36.8859 19.3016 36.8C15.8643 36.6457 12.4228 36.9937 9.08595 37.8328C8.88579 37.8867 8.71524 38.0179 8.6118 38.1975C8.50836 38.3771 8.48051 38.5905 8.53439 38.7906C8.58826 38.9908 8.71944 39.1613 8.89906 39.2648C9.07868 39.3682 9.29204 39.3961 9.4922 39.3422C12.6816 38.5374 15.9722 38.2073 19.2578 38.3625C22.1852 38.4453 25.1617 38.7773 28.0399 39.0977C29.9242 39.3078 31.8719 39.525 33.8 39.6719C35.5789 39.8078 37.3399 39.9195 39.0781 39.9195C41.1758 39.9477 43.2694 39.7263 45.3149 39.2602C43.8501 41.3865 42.0468 43.2585 39.9766 44.8016ZM4.89142 26.6438C4.70769 26.6437 4.52986 26.5789 4.38916 26.4608C4.24847 26.3426 4.15391 26.1787 4.1221 25.9977C4.09029 25.8168 4.12328 25.6304 4.21525 25.4714C4.30723 25.3123 4.45231 25.1908 4.62501 25.1281C6.40307 24.4846 8.22094 23.957 10.0672 23.5484C11.7832 23.1913 13.5265 22.9807 15.2781 22.9187C15.5429 22.0058 16.0409 21.1777 16.7233 20.516C17.4056 19.8543 18.2487 19.3818 19.1693 19.1452C20.0899 18.9086 21.0562 18.916 21.9731 19.1668C22.8899 19.4175 23.7256 19.9029 24.3977 20.575C24.54 20.7223 24.6187 20.9197 24.6169 21.1245C24.6152 21.3294 24.533 21.5253 24.3882 21.6702C24.2433 21.815 24.0474 21.8972 23.8425 21.899C23.6377 21.9007 23.4403 21.822 23.293 21.6797C22.7467 21.1333 22.0507 20.7611 21.2929 20.6103C20.5352 20.4595 19.7497 20.5368 19.0358 20.8324C18.322 21.128 17.7119 21.6287 17.2826 22.2711C16.8533 22.9135 16.6242 23.6688 16.6242 24.4414C16.6242 25.214 16.8533 25.9693 17.2826 26.6117C17.7119 27.2541 18.322 27.7548 19.0358 28.0504C19.7497 28.346 20.5352 28.4233 21.2929 28.2725C22.0507 28.1217 22.7467 27.7495 23.293 27.2031C23.4403 27.0608 23.6377 26.9821 23.8425 26.9838C24.0474 26.9856 24.2433 27.0678 24.3882 27.2126C24.533 27.3575 24.6152 27.5534 24.6169 27.7583C24.6187 27.9631 24.54 28.1605 24.3977 28.3078C23.6361 29.0692 22.6667 29.5889 21.611 29.8016C20.5553 30.0142 19.4603 29.9105 18.4633 29.5033C17.4663 29.0962 16.6118 28.4037 16.0068 27.5128C15.4018 26.6219 15.0733 25.5722 15.0625 24.4953C13.4957 24.5612 11.9369 24.7545 10.4016 25.0734C8.62147 25.4671 6.86882 25.976 5.1547 26.5969C5.07022 26.6273 4.9812 26.6431 4.89142 26.6438ZM6.23439 32.7562C5.99428 32.8151 5.756 32.8794 5.51954 32.9492C5.4202 32.9822 5.31524 32.995 5.21088 32.9866C5.10653 32.9783 5.00491 32.9491 4.91208 32.9007C4.81924 32.8523 4.73707 32.7858 4.67044 32.705C4.60382 32.6243 4.55411 32.531 4.52426 32.4306C4.49441 32.3303 4.48503 32.225 4.49668 32.1209C4.50832 32.0169 4.54076 31.9163 4.59206 31.825C4.64336 31.7338 4.71248 31.6537 4.79531 31.5897C4.87814 31.5257 4.97299 31.479 5.07423 31.4523C5.33465 31.3747 5.59767 31.3034 5.86329 31.2383C8.89896 30.6106 12.0247 30.551 15.082 31.0625C18.3274 31.5094 21.5531 32.2711 24.6727 33.007C27.3024 33.6281 30.0219 34.2695 32.7195 34.7141C34.2719 34.9695 36.0008 35.2445 37.7195 35.3812C37.7187 34.9176 37.8554 34.464 38.1124 34.0781C38.3694 33.6921 38.7351 33.3911 39.1633 33.213C39.5914 33.0349 40.0627 32.9879 40.5176 33.0778C40.9725 33.1676 41.3905 33.3904 41.7188 33.718C41.8611 33.8653 41.9398 34.0627 41.938 34.2675C41.9363 34.4723 41.8541 34.6683 41.7092 34.8131C41.5644 34.958 41.3684 35.0402 41.1636 35.0419C40.9588 35.0437 40.7614 34.965 40.6141 34.8227C40.5048 34.7134 40.3656 34.6389 40.2141 34.6088C40.0625 34.5786 39.9054 34.5941 39.7626 34.6532C39.6199 34.7123 39.4978 34.8125 39.412 34.9409C39.3261 35.0694 39.2803 35.2205 39.2803 35.375C39.2803 35.5295 39.3261 35.6806 39.412 35.8091C39.4978 35.9375 39.6199 36.0377 39.7626 36.0968C39.9054 36.1559 40.0625 36.1714 40.2141 36.1412C40.3656 36.1111 40.5048 36.0366 40.6141 35.9273C40.7614 35.785 40.9588 35.7063 41.1636 35.7081C41.3684 35.7098 41.5644 35.792 41.7092 35.9369C41.8541 36.0817 41.9363 36.2777 41.938 36.4825C41.9398 36.6873 41.8611 36.8847 41.7188 37.032C41.2792 37.4714 40.6832 37.7182 40.0617 37.7182C39.4403 37.7182 38.8442 37.4714 38.4047 37.032C38.3938 37.0211 38.3867 37.0078 38.3758 36.9969C36.3926 36.8587 34.4185 36.6112 32.4625 36.2555C29.7133 35.8039 26.968 35.1555 24.3125 34.5281C21.2289 33.8 18.0399 33.0437 14.868 32.6102C12.007 32.11 9.07684 32.1596 6.23439 32.7562Z" fill="white"/>
<path d="M26 1L26.0004 0.625H26V1ZM51 26L51.375 26L51.375 25.9996L51 26ZM39.9766 44.8016L39.896 45.1678L40.0633 45.2046L40.2007 45.1022L39.9766 44.8016ZM39.8828 44.7867L39.9193 44.4135L39.8958 44.4112L39.8721 44.4119L39.8828 44.7867ZM32.8328 44.2234L32.9029 43.855L32.8958 43.8537L32.8887 43.8526L32.8328 44.2234ZM28.3734 43.6687L28.4004 43.2947L28.3994 43.2946L28.3734 43.6687ZM17.625 44.9727L17.5103 44.6156L17.5102 44.6157L17.625 44.9727ZM17.8649 46.4977L17.8652 46.8727L17.8655 46.8727L17.8649 46.4977ZM18.1047 46.4602L18.2185 46.8175L18.2194 46.8172L18.1047 46.4602ZM28.2609 45.2266L28.2881 44.8525L28.2868 44.8525L28.2609 45.2266ZM32.5992 45.768L32.6552 45.3972L32.655 45.3971L32.5992 45.768ZM37.5992 46.3508L37.785 46.6765L38.8981 46.0418L37.6184 45.9763L37.5992 46.3508ZM26 2.5625L25.9999 2.9375L26.0003 2.9375L26 2.5625ZM37.8266 5.77734L37.998 6.11086L38.6038 5.79946L38.0167 5.45411L37.8266 5.77734ZM32.9594 7.31953L33.0032 7.69205L33.0113 7.69092L32.9594 7.31953ZM25.0266 7.23359L25.0785 6.86209L25.0694 6.86105L25.0266 7.23359ZM22.8649 6.96172L22.8064 7.33227L22.8165 7.33358L22.8649 6.96172ZM15.4359 6.40312L15.4335 6.02801L15.4238 6.02832L15.4359 6.40312ZM14.6805 7.20859L15.0555 7.21196L15.0555 7.20436L15.0553 7.19677L14.6805 7.20859ZM15.4867 7.96406L15.4855 7.58906L15.4722 7.58911L15.459 7.59009L15.4867 7.96406ZM22.6633 8.51094L22.6052 8.88153L22.6146 8.88277L22.6633 8.51094ZM24.8508 8.78516L24.8969 8.41299L24.8938 8.41263L24.8508 8.78516ZM29.6875 9.10312L29.6845 9.47811L29.6854 9.47812L29.6875 9.10312ZM33.1891 8.86875L33.1379 8.49726L33.137 8.49739L33.1891 8.86875ZM39.3141 6.72656L39.5278 6.41843L39.3298 6.28108L39.1226 6.40414L39.3141 6.72656ZM40.7617 7.8125L41.0053 8.0976L41.348 7.8048L40.9978 7.5211L40.7617 7.8125ZM29.5055 13.8648L29.3811 13.5111L29.3807 13.5112L29.5055 13.8648ZM6.22423 17.607L6.23191 17.2319L6.21996 17.2321L6.22423 17.607ZM5.42814 18.3734L5.05342 18.3549L5.05321 18.3662L5.42814 18.3734ZM6.19454 19.1695L6.20169 18.7946L6.2016 18.7946L6.19454 19.1695ZM7.5047 19.182L7.50494 18.807H7.5047V19.182ZM30.0234 15.3391L29.8993 14.9852L29.8989 14.9854L30.0234 15.3391ZM41.9531 8.85469L42.2086 8.58013L41.9619 8.35061L41.7074 8.57146L41.9531 8.85469ZM47.25 16.132L47.5477 16.36L47.686 16.1795L47.5898 15.9734L47.25 16.132ZM36.2016 22.2852L36.2651 22.6548L36.2722 22.6534L36.2016 22.2852ZM27.9484 22.9375L27.9531 22.5625H27.9484L27.9484 22.9375ZM27.9484 24.5L27.9529 24.125H27.9484V24.5ZM36.4906 23.8203L36.5543 24.1899L36.5612 24.1886L36.4906 23.8203ZM47.9313 17.7586L48.2822 17.6265L48.0607 17.038L47.6482 17.5126L47.9313 17.7586ZM48.3399 33.0711L48.5159 33.4022L48.6511 33.3303L48.6974 33.1843L48.3399 33.0711ZM43.8086 34.8859L43.9083 35.2474L43.9098 35.247L43.8086 34.8859ZM44.0172 36.4203L44.0173 36.0453L44.0168 36.0453L44.0172 36.4203ZM44.2274 36.3922L44.3261 36.754L44.3286 36.7533L44.2274 36.3922ZM47.5625 35.1828L47.9073 35.3303L48.285 34.4469L47.4088 34.8408L47.5625 35.1828ZM46.5414 37.2734L46.6633 37.6281L46.7998 37.5812L46.8696 37.4548L46.5414 37.2734ZM33.9156 38.1148L33.8869 38.4887L33.8872 38.4888L33.9156 38.1148ZM28.2125 37.5453L28.2541 37.1726L28.254 37.1726L28.2125 37.5453ZM19.3016 36.8L19.2848 37.1747L19.2908 37.1748L19.3016 36.8ZM9.08595 37.8328L8.99448 37.4691L8.98849 37.4707L9.08595 37.8328ZM9.4922 39.3422L9.40044 38.9785L9.39474 38.9801L9.4922 39.3422ZM19.2578 38.3625L19.2401 38.7371L19.2472 38.7373L19.2578 38.3625ZM28.0399 39.0977L28.0814 38.725L28.0813 38.725L28.0399 39.0977ZM33.8 39.6719L33.8286 39.298L33.8285 39.298L33.8 39.6719ZM39.0781 39.9195L39.0832 39.5445H39.0781V39.9195ZM45.3149 39.2602L45.6237 39.4729L46.1693 38.6808L45.2315 38.8945L45.3149 39.2602ZM4.89142 26.6438L4.89135 27.0188L4.89408 27.0187L4.89142 26.6438ZM4.62501 25.1281L4.49739 24.7755L4.49707 24.7756L4.62501 25.1281ZM10.0672 23.5484L9.99079 23.1813L9.98618 23.1823L10.0672 23.5484ZM15.2781 22.9187L15.2914 23.2935L15.5627 23.2839L15.6383 23.0232L15.2781 22.9187ZM24.3977 20.575L24.6674 20.3144L24.6628 20.3098L24.3977 20.575ZM23.293 21.6797L23.0277 21.9449L23.0325 21.9494L23.293 21.6797ZM16.6242 24.4414H16.2492H16.6242ZM23.293 27.2031L23.0324 26.9333L23.0278 26.938L23.293 27.2031ZM24.3977 28.3078L24.6628 28.573L24.6674 28.5683L24.3977 28.3078ZM15.0625 24.4953L15.4375 24.4916L15.4336 24.1044L15.0468 24.1206L15.0625 24.4953ZM10.4016 25.0734L10.3253 24.7062L10.3206 24.7073L10.4016 25.0734ZM5.1547 26.5969L5.28162 26.9497L5.28241 26.9495L5.1547 26.5969ZM6.23439 32.7562L6.1573 32.389L6.14511 32.392L6.23439 32.7562ZM5.51954 32.9492L5.41333 32.5894L5.40124 32.5934L5.51954 32.9492ZM5.07423 31.4523L5.16973 31.8152L5.18133 31.8117L5.07423 31.4523ZM5.86329 31.2383L5.78731 30.8708L5.77402 30.8741L5.86329 31.2383ZM15.082 31.0625L15.0201 31.4325L15.0309 31.434L15.082 31.0625ZM24.6727 33.007L24.7589 32.6421L24.7588 32.642L24.6727 33.007ZM32.7195 34.7141L32.6586 35.0841L32.6586 35.0841L32.7195 34.7141ZM37.7195 35.3812L37.6898 35.7551L38.0953 35.7873L38.0945 35.3806L37.7195 35.3812ZM40.5176 33.0778L40.4449 33.4456L40.5176 33.0778ZM41.7188 33.718L41.9885 33.4574L41.9836 33.4525L41.7188 33.718ZM40.6141 34.8227L40.3488 35.0878L40.3536 35.0924L40.6141 34.8227ZM40.6141 35.9273L40.3535 35.6576L40.3489 35.6622L40.6141 35.9273ZM41.7188 37.032L41.9839 37.2973L41.9885 37.2925L41.7188 37.032ZM38.4047 37.032L38.1395 37.2972L38.1396 37.2972L38.4047 37.032ZM38.3758 36.9969L38.641 36.7317L38.5418 36.6325L38.4019 36.6228L38.3758 36.9969ZM32.4625 36.2555L32.5296 35.8865L32.5233 35.8854L32.4625 36.2555ZM24.3125 34.5281L24.3987 34.1632L24.3987 34.1632L24.3125 34.5281ZM14.868 32.6102L14.8034 32.9798L14.8172 32.9817L14.868 32.6102ZM26 0.625C20.9813 0.625 16.0753 2.11322 11.9024 4.90146L12.3191 5.52506C16.3687 2.81923 21.1296 1.375 26 1.375V0.625ZM11.9024 4.90146C7.72952 7.6897 4.47714 11.6527 2.55657 16.2894L3.24948 16.5764C5.11329 12.0768 8.26953 8.23089 12.3191 5.52506L11.9024 4.90146ZM2.55657 16.2894C0.635994 20.9261 0.133485 26.0281 1.11258 30.9504L1.84817 30.8041C0.898013 26.0273 1.38567 21.076 3.24948 16.5764L2.55657 16.2894ZM1.11258 30.9504C2.09168 35.8727 4.50842 40.3941 8.05718 43.9428L8.58751 43.4125C5.14364 39.9686 2.79833 35.5809 1.84817 30.8041L1.11258 30.9504ZM8.05718 43.9428C11.6059 47.4916 16.1273 49.9083 21.0496 50.8874L21.1959 50.1518C16.4191 49.2017 12.0314 46.8564 8.58751 43.4125L8.05718 43.9428ZM21.0496 50.8874C25.9719 51.8665 31.0739 51.364 35.7106 49.4434L35.4236 48.7505C30.924 50.6143 25.9727 51.102 21.1959 50.1518L21.0496 50.8874ZM35.7106 49.4434C40.3473 47.5229 44.3103 44.2705 47.0986 40.0976L46.475 39.6809C43.7691 43.7305 39.9232 46.8867 35.4236 48.7505L35.7106 49.4434ZM47.0986 40.0976C49.8868 35.9247 51.375 31.0187 51.375 26H50.625C50.625 30.8704 49.1808 35.6314 46.475 39.6809L47.0986 40.0976ZM51.375 25.9996C51.3675 19.2721 48.6916 12.8224 43.9346 8.06539L43.4043 8.59572C48.0209 13.2123 50.6177 19.4716 50.625 26.0004L51.375 25.9996ZM43.9346 8.06539C39.1776 3.30837 32.7279 0.632556 26.0004 0.625L25.9996 1.375C32.5284 1.38233 38.7877 3.97914 43.4043 8.59572L43.9346 8.06539ZM40.0571 44.4353C40.0117 44.4253 39.9657 44.418 39.9193 44.4135L39.8463 45.1599C39.863 45.1616 39.8796 45.1642 39.896 45.1678L40.0571 44.4353ZM39.8721 44.4119C37.5358 44.4785 35.199 44.2918 32.9029 43.855L32.7627 44.5918C35.1121 45.0387 37.503 45.2297 39.8935 45.1616L39.8721 44.4119ZM32.8887 43.8526C31.4342 43.6335 29.9127 43.4038 28.4004 43.2947L28.3465 44.0428C29.8248 44.1494 31.3174 44.3743 32.777 44.5943L32.8887 43.8526ZM28.3994 43.2946C24.7188 43.0391 21.0231 43.4874 17.5103 44.6156L17.7397 45.3297C21.1617 44.2306 24.7619 43.7939 28.3475 44.0428L28.3994 43.2946ZM17.5102 44.6157C17.2478 44.7 17.0241 44.8754 16.8795 45.1102L17.5182 45.5034C17.569 45.4209 17.6476 45.3593 17.7398 45.3297L17.5102 44.6157ZM16.8795 45.1102C16.735 45.345 16.6791 45.6237 16.7219 45.896L17.4628 45.7795C17.4478 45.6838 17.4674 45.5859 17.5182 45.5034L16.8795 45.1102ZM16.7219 45.896C16.7648 46.1684 16.9035 46.4165 17.1131 46.5956L17.6003 46.0253C17.5266 45.9624 17.4779 45.8752 17.4628 45.7795L16.7219 45.896ZM17.1131 46.5956C17.3228 46.7746 17.5895 46.8729 17.8652 46.8727L17.8645 46.1227C17.7676 46.1227 17.6739 46.0882 17.6003 46.0253L17.1131 46.5956ZM17.8655 46.8727C17.9853 46.8724 18.1044 46.8538 18.2185 46.8175L17.9908 46.1029C17.9499 46.1159 17.9072 46.1226 17.8642 46.1227L17.8655 46.8727ZM18.2194 46.8172C21.4504 45.7796 24.8496 45.3667 28.2351 45.6007L28.2868 44.8525C24.8063 44.6119 21.3118 45.0364 17.99 46.1031L18.2194 46.8172ZM28.2338 45.6006C29.6505 45.7033 31.1125 45.9235 32.5434 46.1388L32.655 45.3971C31.2297 45.1827 29.7386 44.9577 28.2881 44.8525L28.2338 45.6006ZM32.5433 46.1388C34.1817 46.3861 35.8799 46.6383 37.5801 46.7253L37.6184 45.9763C35.9607 45.8914 34.298 45.6451 32.6552 45.3972L32.5433 46.1388ZM37.4135 46.025C34.3453 47.7747 30.9162 48.7962 27.3908 49.0106L27.4363 49.7592C31.0764 49.5378 34.6171 48.4831 37.785 46.6765L37.4135 46.025ZM27.3908 49.0106C23.8653 49.225 20.3377 48.6267 17.0801 47.2617L16.7903 47.9534C20.1538 49.3628 23.7962 49.9806 27.4363 49.7592L27.3908 49.0106ZM17.0801 47.2617C13.8226 45.8967 10.9221 43.8017 8.60254 41.1381L8.03695 41.6307C10.432 44.3809 13.4268 46.5441 16.7903 47.9534L17.0801 47.2617ZM8.60254 41.1381C6.28297 38.4746 4.60631 35.3138 3.7019 31.8995L2.97691 32.0916C3.91073 35.6169 5.64193 38.8805 8.03695 41.6307L8.60254 41.1381ZM3.7019 31.8995C2.7975 28.4853 2.68953 24.9089 3.38633 21.4464L2.65107 21.2984C1.93161 24.8736 2.04309 28.5663 2.97691 32.0916L3.7019 31.8995ZM3.38633 21.4464C4.08313 17.9838 5.56607 14.7276 7.72074 11.929L7.12647 11.4715C4.90171 14.3611 3.37054 17.7232 2.65107 21.2984L3.38633 21.4464ZM7.72074 11.929C9.87541 9.13038 12.6442 6.86415 15.8135 5.30517L15.4825 4.63219C12.2101 6.24187 9.35122 8.58181 7.12647 11.4715L7.72074 11.929ZM15.8135 5.30517C18.9828 3.7462 22.4679 2.93614 25.9999 2.9375L26.0002 2.1875C22.3533 2.18609 18.7549 3.0225 15.4825 4.63219L15.8135 5.30517ZM26.0003 2.9375C30.0919 2.93396 34.1098 4.02614 37.6364 6.10057L38.0167 5.45411C34.3746 3.31178 30.2252 2.18384 25.9997 2.1875L26.0003 2.9375ZM37.6551 5.44383C36.1682 6.20815 34.5632 6.7167 32.9075 6.94814L33.0113 7.69092C34.7504 7.44782 36.4362 6.91367 37.998 6.11086L37.6551 5.44383ZM32.9156 6.9471C30.3103 7.25354 27.6765 7.22501 25.0784 6.8622L24.9747 7.60499C27.6362 7.97666 30.3343 8.00589 33.0032 7.69196L32.9156 6.9471ZM25.0694 6.86105C24.3526 6.77863 23.6348 6.68377 22.9133 6.58985L22.8165 7.33358C23.5355 7.42717 24.26 7.52293 24.9837 7.60614L25.0694 6.86105ZM22.9233 6.59131C20.4462 6.20024 17.9413 6.01189 15.4335 6.02813L15.4384 6.77812C17.9054 6.76214 20.3695 6.94742 22.8064 7.33213L22.9233 6.59131ZM15.4238 6.02832C15.1175 6.03828 14.8276 6.16944 14.618 6.39296L15.165 6.90604C15.2387 6.82751 15.3405 6.78143 15.4481 6.77793L15.4238 6.02832ZM14.618 6.39296C14.4083 6.61649 14.296 6.91411 14.3057 7.22042L15.0553 7.19677C15.0519 7.08915 15.0914 6.98458 15.165 6.90604L14.618 6.39296ZM14.3055 7.20523C14.3041 7.36093 14.335 7.51522 14.3963 7.65836L15.0858 7.36321C15.0653 7.31543 15.055 7.26393 15.0555 7.21196L14.3055 7.20523ZM14.3963 7.65836C14.4576 7.80149 14.5479 7.93037 14.6615 8.03683L15.1743 7.48955C15.1364 7.45401 15.1062 7.411 15.0858 7.36321L14.3963 7.65836ZM14.6615 8.03683C14.7751 8.1433 14.9096 8.22503 15.0564 8.27688L15.3061 7.56967C15.2571 7.55237 15.2122 7.52508 15.1743 7.48955L14.6615 8.03683ZM15.0564 8.27688C15.2032 8.32872 15.3592 8.34955 15.5144 8.33804L15.459 7.59009C15.4072 7.59393 15.3551 7.58698 15.3061 7.56967L15.0564 8.27688ZM15.488 8.33906C17.871 8.33098 20.2509 8.51233 22.6052 8.88141L22.7214 8.14046C20.3278 7.76523 17.9082 7.58085 15.4855 7.58906L15.488 8.33906ZM22.6146 8.88277C23.3427 8.97807 24.0734 9.07294 24.8078 9.15768L24.8938 8.41263C24.1657 8.32862 23.4402 8.23443 22.712 8.13911L22.6146 8.88277ZM24.8047 9.15731C26.4238 9.35794 28.0531 9.46505 29.6845 9.47811L29.6905 8.72814C28.0879 8.71531 26.4874 8.61009 24.8969 8.413L24.8047 9.15731ZM29.6854 9.47812C30.8748 9.48494 32.0632 9.4054 33.2412 9.24011L33.137 8.49739C31.995 8.65763 30.8428 8.73475 29.6897 8.72813L29.6854 9.47812ZM33.2403 9.24024C35.454 8.9351 37.5842 8.19006 39.5056 7.04899L39.1226 6.40414C37.2873 7.49411 35.2524 8.20579 33.1379 8.49726L33.2403 9.24024ZM39.1004 7.0347C39.5891 7.37368 40.0642 7.73007 40.5257 8.1039L40.9978 7.5211C40.5218 7.13555 40.0318 6.76799 39.5278 6.41843L39.1004 7.0347ZM40.5181 7.5274C37.7293 9.91034 34.1869 11.8211 29.3811 13.5111L29.6299 14.2186C34.4928 12.5086 38.1254 10.5584 41.0053 8.0976L40.5181 7.5274ZM29.3807 13.5112C21.9508 16.1329 14.1091 17.3934 6.23191 17.2321L6.21655 17.982C14.1839 18.1451 22.1154 16.8702 29.6303 14.2185L29.3807 13.5112ZM6.21996 17.2321C5.91911 17.2355 5.6309 17.3536 5.41415 17.5622L5.93431 18.1026C6.01344 18.0264 6.11866 17.9833 6.2285 17.982L6.21996 17.2321ZM5.41415 17.5622C5.1974 17.7709 5.06844 18.0544 5.05359 18.3549L5.80268 18.3919C5.8081 18.2822 5.85518 18.1787 5.93431 18.1026L5.41415 17.5622ZM5.05321 18.3662C5.05029 18.5181 5.07732 18.669 5.13276 18.8104L5.83102 18.5367C5.81154 18.487 5.80204 18.434 5.80307 18.3806L5.05321 18.3662ZM5.13276 18.8104C5.18819 18.9518 5.27093 19.0809 5.37627 19.1903L5.91657 18.6702C5.87957 18.6317 5.85049 18.5864 5.83102 18.5367L5.13276 18.8104ZM5.37627 19.1903C5.4816 19.2997 5.60746 19.3873 5.74665 19.4481L6.04671 18.7607C5.9978 18.7394 5.95358 18.7086 5.91657 18.6702L5.37627 19.1903ZM5.74665 19.4481C5.88584 19.5089 6.03564 19.5416 6.18749 19.5445L6.2016 18.7946C6.14824 18.7936 6.09561 18.7821 6.04671 18.7607L5.74665 19.4481ZM6.18739 19.5445C6.62675 19.5528 7.06585 19.557 7.5047 19.557V18.807C7.07063 18.807 6.63629 18.8029 6.20169 18.7946L6.18739 19.5445ZM7.50446 19.557C15.2168 19.5619 22.8738 18.2552 30.148 15.6928L29.8989 14.9854C22.7048 17.5196 15.1322 18.8119 7.50494 18.807L7.50446 19.557ZM30.1476 15.6929C35.2975 13.8854 39.14 11.7924 42.1989 9.13791L41.7074 8.57146C38.7397 11.1467 34.9885 13.199 29.8993 14.9852L30.1476 15.6929ZM41.6977 9.12924C43.8795 11.1591 45.6493 13.5906 46.9102 16.2907L47.5898 15.9734C46.2881 13.1859 44.461 10.6756 42.2086 8.58013L41.6977 9.12924ZM46.9523 15.904C44.6883 18.86 40.8826 21.006 36.131 21.9169L36.2722 22.6534C41.1549 21.7174 45.1446 19.4978 47.5477 16.36L46.9523 15.904ZM36.1381 21.9156C33.4351 22.3798 30.6954 22.5963 27.9531 22.5625L27.9438 23.3125C30.7318 23.3468 33.5171 23.1267 36.265 22.6547L36.1381 21.9156ZM27.9484 22.5625C27.6418 22.5625 27.3477 22.6843 27.1309 22.9012L27.6612 23.4315C27.7374 23.3553 27.8407 23.3125 27.9484 23.3125L27.9484 22.5625ZM27.1309 22.9012C26.914 23.118 26.7922 23.4121 26.7922 23.7187H27.5422C27.5422 23.611 27.585 23.5077 27.6612 23.4315L27.1309 22.9012ZM26.7922 23.7187C26.7922 24.0254 26.914 24.3195 27.1309 24.5363L27.6612 24.006C27.585 23.9298 27.5422 23.8265 27.5422 23.7187H26.7922ZM27.1309 24.5363C27.3477 24.7532 27.6418 24.875 27.9484 24.875V24.125C27.8407 24.125 27.7374 24.0822 27.6612 24.006L27.1309 24.5363ZM27.944 24.875C30.829 24.9092 33.7111 24.6799 36.5543 24.1899L36.4269 23.4508C33.6287 23.933 30.7922 24.1587 27.9529 24.125L27.944 24.875ZM36.5612 24.1886C41.4618 23.249 45.5448 21.0763 48.2143 18.0046L47.6482 17.5126C45.1115 20.4315 41.1929 22.5369 36.42 23.452L36.5612 24.1886ZM47.5803 17.8907C49.4003 22.7259 49.5419 28.0325 47.9824 32.9579L48.6974 33.1843C50.3077 28.0986 50.1615 22.6191 48.2822 17.6265L47.5803 17.8907ZM48.1638 32.74C46.7469 33.4935 45.2528 34.0919 43.7074 34.5248L43.9098 35.247C45.507 34.7996 47.0514 34.181 48.5159 33.4022L48.1638 32.74ZM43.7089 34.5244C43.4391 34.5989 43.2054 34.7686 43.0513 35.0022L43.6773 35.4153C43.7314 35.3332 43.8135 35.2736 43.9083 35.2474L43.7089 34.5244ZM43.0513 35.0022C42.8971 35.2359 42.8329 35.5175 42.8706 35.7948L43.6138 35.6938C43.6005 35.5963 43.6231 35.4974 43.6773 35.4153L43.0513 35.0022ZM42.8706 35.7948C42.9083 36.0722 43.0454 36.3264 43.2563 36.5104L43.7493 35.9452C43.6752 35.8806 43.627 35.7912 43.6138 35.6938L42.8706 35.7948ZM43.2563 36.5104C43.4672 36.6944 43.7377 36.7956 44.0176 36.7953L44.0168 36.0453C43.9184 36.0454 43.8234 36.0099 43.7493 35.9452L43.2563 36.5104ZM44.0171 36.7953C44.1215 36.7953 44.2254 36.7814 44.3261 36.754L44.1287 36.0304C44.0924 36.0403 44.0549 36.0453 44.0173 36.0453L44.0171 36.7953ZM44.3286 36.7533C45.4868 36.4286 46.6191 36.018 47.7162 35.5249L47.4088 34.8408C46.3457 35.3186 45.2484 35.7165 44.1261 36.0311L44.3286 36.7533ZM47.2177 35.0354C46.9164 35.74 46.5815 36.4255 46.2132 37.092L46.8696 37.4548C47.2502 36.7661 47.5961 36.0579 47.9073 35.3303L47.2177 35.0354ZM46.4195 36.9188C42.544 38.2509 38.512 38.0888 33.9441 37.7409L33.8872 38.4888C38.449 38.8362 42.6248 39.0163 46.6633 37.6281L46.4195 36.9188ZM33.9444 37.7409C32.0503 37.5954 30.123 37.3813 28.2541 37.1726L28.1709 37.918C30.038 38.1265 31.9779 38.3421 33.8869 38.4887L33.9444 37.7409ZM28.254 37.1726C25.3464 36.8487 22.3225 36.5116 19.3123 36.4252L19.2908 37.1748C22.265 37.2603 25.2583 37.5935 28.171 37.918L28.254 37.1726ZM19.3184 36.4254C15.8446 36.2695 12.3667 36.6211 8.99449 37.4691L9.1774 38.1965C12.4789 37.3662 15.8839 37.022 19.2848 37.1746L19.3184 36.4254ZM8.98849 37.4707C8.69229 37.5504 8.4399 37.7445 8.28683 38.0103L8.93677 38.3846C8.99057 38.2912 9.07929 38.2229 9.18341 38.1949L8.98849 37.4707ZM8.28683 38.0103C8.13376 38.2762 8.09255 38.5919 8.17227 38.8881L8.8965 38.6932C8.86848 38.589 8.88296 38.4781 8.93677 38.3846L8.28683 38.0103ZM8.17227 38.8881C8.25199 39.1843 8.44611 39.4367 8.71192 39.5897L9.0862 38.9398C8.99276 38.886 8.92452 38.7973 8.8965 38.6932L8.17227 38.8881ZM8.71192 39.5897C8.97774 39.7428 9.29347 39.784 9.58966 39.7043L9.39474 38.9801C9.29062 39.0081 9.17963 38.9936 9.0862 38.9398L8.71192 39.5897ZM9.58395 39.7058C12.7376 38.91 15.9913 38.5836 19.2401 38.7371L19.2755 37.9879C15.953 37.831 12.6256 38.1648 9.40045 38.9786L9.58395 39.7058ZM19.2472 38.7373C22.1564 38.8196 25.1174 39.1497 27.9984 39.4704L28.0813 38.725C25.206 38.405 22.2139 38.071 19.2684 37.9876L19.2472 38.7373ZM27.9983 39.4703C29.8816 39.6804 31.8358 39.8983 33.7715 40.0458L33.8285 39.298C31.908 39.1517 29.9669 38.9352 28.0814 38.725L27.9983 39.4703ZM33.7714 40.0458C35.5523 40.1819 37.325 40.2945 39.0781 40.2945V39.5445C37.3547 39.5445 35.6055 39.4337 33.8286 39.298L33.7714 40.0458ZM39.0731 40.2945C41.2005 40.323 43.3238 40.0986 45.3982 39.6258L45.2315 38.8945C43.2151 39.3541 41.1511 39.5723 39.0832 39.5446L39.0731 40.2945ZM45.006 39.0474C43.5645 41.1401 41.7898 42.9823 39.7525 44.5009L40.2007 45.1022C42.3038 43.5347 44.1357 41.633 45.6237 39.4729L45.006 39.0474ZM4.89148 26.2688C4.79595 26.2687 4.70348 26.235 4.63031 26.1736L4.14802 26.748C4.35625 26.9228 4.61944 27.0187 4.89135 27.0188L4.89148 26.2688ZM4.63031 26.1736C4.55715 26.1122 4.50798 26.0269 4.49144 25.9328L3.75276 26.0627C3.79983 26.3305 3.93978 26.5731 4.14802 26.748L4.63031 26.1736ZM4.49144 25.9328C4.4749 25.8387 4.49205 25.7418 4.53988 25.6591L3.89063 25.2837C3.7545 25.519 3.70569 25.7949 3.75276 26.0627L4.49144 25.9328ZM4.53988 25.6591C4.5877 25.5764 4.66315 25.5132 4.75295 25.4806L4.49707 24.7756C4.24148 24.8684 4.02675 25.0483 3.89063 25.2837L4.53988 25.6591ZM4.75263 25.4807C6.51546 24.8428 8.31776 24.3196 10.1482 23.9146L9.98618 23.1823C8.12411 23.5943 6.29068 24.1265 4.49739 24.7755L4.75263 25.4807ZM10.1436 23.9156C11.8388 23.5628 13.5609 23.3547 15.2914 23.2935L15.2649 22.544C13.492 22.6066 11.7276 22.8198 9.99079 23.1813L10.1436 23.9156ZM15.6383 23.0232C15.8849 22.1729 16.3488 21.4015 16.9844 20.7852L16.4622 20.2468C15.7331 20.9539 15.2008 21.8388 14.918 22.8143L15.6383 23.0232ZM16.9844 20.7852C17.6199 20.1688 18.4051 19.7288 19.2626 19.5084L19.0759 18.782C18.0922 19.0348 17.1914 19.5397 16.4622 20.2468L16.9844 20.7852ZM19.2626 19.5084C20.1201 19.288 21.0202 19.2949 21.8741 19.5285L22.072 18.805C21.0923 18.5371 20.0596 18.5292 19.0759 18.782L19.2626 19.5084ZM21.8741 19.5285C22.7281 19.762 23.5065 20.2141 24.1325 20.8402L24.6628 20.3098C23.9447 19.5916 23.0517 19.073 22.072 18.805L21.8741 19.5285ZM24.1279 20.8355C24.2019 20.9121 24.2429 21.0148 24.242 21.1213L24.9919 21.1278C24.9946 20.8246 24.878 20.5326 24.6674 20.3145L24.1279 20.8355ZM24.242 21.1213C24.241 21.2278 24.1983 21.3297 24.123 21.405L24.6533 21.9353C24.8677 21.721 24.9893 21.431 24.9919 21.1278L24.242 21.1213ZM24.123 21.405C24.0477 21.4803 23.9458 21.5231 23.8393 21.524L23.8458 22.2739C24.1489 22.2713 24.4389 22.1497 24.6533 21.9353L24.123 21.405ZM23.8393 21.524C23.7327 21.5249 23.6301 21.484 23.5535 21.41L23.0325 21.9494C23.2505 22.16 23.5426 22.2766 23.8458 22.2739L23.8393 21.524ZM23.5582 21.4146C22.9595 20.8157 22.1966 20.4078 21.3661 20.2425L21.2197 20.9781C21.9048 21.1144 22.534 21.4508 23.0278 21.9448L23.5582 21.4146ZM21.3661 20.2425C20.5356 20.0772 19.6747 20.1619 18.8924 20.4859L19.1793 21.1789C19.8246 20.9116 20.5347 20.8417 21.2197 20.9781L21.3661 20.2425ZM18.8924 20.4859C18.11 20.8099 17.4413 21.3587 16.9708 22.0627L17.5944 22.4794C17.9824 21.8987 18.534 21.4461 19.1793 21.1789L18.8924 20.4859ZM16.9708 22.0627C16.5003 22.7668 16.2492 23.5946 16.2492 24.4414H16.9992C16.9992 23.7429 17.2063 23.0602 17.5944 22.4794L16.9708 22.0627ZM16.2492 24.4414C16.2492 25.2882 16.5003 26.116 16.9708 26.8201L17.5944 26.4034C17.2063 25.8226 16.9992 25.1399 16.9992 24.4414H16.2492ZM16.9708 26.8201C17.4413 27.5241 18.11 28.0729 18.8924 28.3969L19.1793 27.704C18.534 27.4367 17.9824 26.9841 17.5944 26.4034L16.9708 26.8201ZM18.8924 28.3969C19.6747 28.7209 20.5356 28.8056 21.3661 28.6403L21.2197 27.9047C20.5347 28.0411 19.8246 27.9712 19.1793 27.704L18.8924 28.3969ZM21.3661 28.6403C22.1966 28.475 22.9595 28.0671 23.5582 27.4682L23.0278 26.938C22.534 27.432 21.9048 27.7684 21.2197 27.9047L21.3661 28.6403ZM23.5535 27.4729C23.6301 27.3989 23.7327 27.3579 23.8393 27.3588L23.8458 26.6089C23.5426 26.6062 23.2505 26.7228 23.0325 26.9334L23.5535 27.4729ZM23.8393 27.3588C23.9458 27.3598 24.0477 27.4025 24.123 27.4778L24.6533 26.9475C24.4389 26.7331 24.1489 26.6115 23.8458 26.6089L23.8393 27.3588ZM24.123 27.4778C24.1983 27.5531 24.241 27.655 24.242 27.7615L24.9919 27.755C24.9893 27.4519 24.8677 27.1619 24.6533 26.9475L24.123 27.4778ZM24.242 27.7615C24.2429 27.8681 24.2019 27.9707 24.1279 28.0473L24.6674 28.5683C24.878 28.3503 24.9946 28.0582 24.9919 27.755L24.242 27.7615ZM24.1325 28.0426C23.4232 28.7518 22.5203 29.2358 21.5369 29.4339L21.6851 30.1692C22.8132 29.9419 23.849 29.3866 24.6628 28.573L24.1325 28.0426ZM21.5369 29.4339C20.5536 29.632 19.5337 29.5354 18.6051 29.1562L18.3215 29.8505C19.3869 30.2856 20.557 30.3964 21.6851 30.1692L21.5369 29.4339ZM18.6051 29.1562C17.6765 28.7769 16.8805 28.1319 16.317 27.3021L15.6966 27.7235C16.343 28.6755 17.2562 29.4154 18.3215 29.8505L18.6051 29.1562ZM16.317 27.3021C15.7535 26.4723 15.4475 25.4946 15.4375 24.4916L14.6875 24.4991C14.6991 25.6498 15.0501 26.7715 15.6966 27.7235L16.317 27.3021ZM15.0468 24.1206C13.4597 24.1873 11.8806 24.3832 10.3253 24.7063L10.4778 25.4406C11.9933 25.1258 13.5318 24.935 15.0783 24.87L15.0468 24.1206ZM10.3206 24.7073C8.52464 25.1044 6.75638 25.6179 5.02698 26.2443L5.28241 26.9495C6.98126 26.3341 8.7183 25.8297 10.4825 25.4396L10.3206 24.7073ZM5.02777 26.244C4.98316 26.2601 4.93615 26.2684 4.88875 26.2688L4.89408 27.0187C5.02624 27.0178 5.15727 26.9945 5.28162 26.9497L5.02777 26.244ZM6.14511 32.392C5.89936 32.4523 5.65545 32.5181 5.41339 32.5896L5.6257 33.3089C5.85655 33.2407 6.08921 33.1779 6.32366 33.1205L6.14511 32.392ZM5.40124 32.5934C5.34958 32.6105 5.295 32.6172 5.24074 32.6128L5.18103 33.3604C5.33548 33.3728 5.49082 33.3539 5.63785 33.3051L5.40124 32.5934ZM5.24074 32.6128C5.18648 32.6085 5.13364 32.5933 5.08536 32.5681L4.73879 33.2333C4.87619 33.3049 5.02658 33.3481 5.18103 33.3604L5.24074 32.6128ZM5.08536 32.5681C5.03708 32.543 4.99435 32.5084 4.95971 32.4664L4.38118 32.9437C4.47978 33.0632 4.60139 33.1617 4.73879 33.2333L5.08536 32.5681ZM4.95971 32.4664C4.92507 32.4244 4.89921 32.3759 4.88369 32.3237L4.16483 32.5376C4.20901 32.6861 4.28258 32.8242 4.38118 32.9437L4.95971 32.4664ZM4.88369 32.3237C4.86817 32.2715 4.86329 32.2168 4.86935 32.1627L4.12401 32.0792C4.10677 32.2332 4.12065 32.3891 4.16483 32.5376L4.88369 32.3237ZM4.86935 32.1627C4.87541 32.1086 4.89227 32.0562 4.91895 32.0088L4.26518 31.6412C4.18925 31.7763 4.14124 31.9252 4.12401 32.0792L4.86935 32.1627ZM4.91895 32.0088C4.94562 31.9613 4.98156 31.9197 5.02464 31.8864L4.56598 31.293C4.4434 31.3878 4.3411 31.5062 4.26518 31.6412L4.91895 32.0088ZM5.02464 31.8864C5.06771 31.8531 5.11704 31.8288 5.16968 31.815L4.97878 31.0897C4.82895 31.1291 4.68857 31.1983 4.56598 31.293L5.02464 31.8864ZM5.18133 31.8117C5.4358 31.7359 5.69288 31.6661 5.95256 31.6025L5.77402 30.8741C5.50246 30.9406 5.23349 31.0136 4.96713 31.093L5.18133 31.8117ZM5.93922 31.6055C8.92951 30.9872 12.0085 30.9285 15.0202 31.4324L15.1439 30.6926C12.0408 30.1735 8.8684 30.234 5.78736 30.871L5.93922 31.6055ZM15.0309 31.434C18.2556 31.878 21.464 32.6354 24.5866 33.372L24.7588 32.642C21.6422 31.9068 18.3991 31.1407 15.1332 30.691L15.0309 31.434ZM24.5865 33.372C27.2141 33.9926 29.9461 34.6371 32.6586 35.0841L32.7805 34.3441C30.0977 33.902 27.3906 33.2637 24.7589 32.6421L24.5865 33.372ZM32.6586 35.0841C34.2106 35.3395 35.9536 35.617 37.6898 35.7551L37.7493 35.0074C36.048 34.8721 34.3332 34.5996 32.7804 34.344L32.6586 35.0841ZM38.0945 35.3806C38.0938 34.9911 38.2087 34.6101 38.4246 34.2859L37.8003 33.8703C37.5022 34.318 37.3436 34.844 37.3445 35.3819L38.0945 35.3806ZM38.4246 34.2859C38.6404 33.9617 38.9476 33.7088 39.3073 33.5593L39.0192 32.8668C38.5226 33.0733 38.0984 33.4225 37.8003 33.8703L38.4246 34.2859ZM39.3073 33.5593C39.6669 33.4097 40.0628 33.3701 40.4449 33.4456L40.5903 32.7099C40.0626 32.6056 39.5159 32.6602 39.0192 32.8668L39.3073 33.5593ZM40.4449 33.4456C40.827 33.5212 41.1782 33.7083 41.4539 33.9834L41.9836 33.4525C41.6029 33.0726 41.118 32.8141 40.5903 32.7099L40.4449 33.4456ZM41.449 33.9785C41.523 34.0551 41.564 34.1577 41.563 34.2642L42.313 34.2708C42.3157 33.9676 42.1991 33.6755 41.9885 33.4575L41.449 33.9785ZM41.563 34.2642C41.5621 34.3708 41.5194 34.4727 41.4441 34.548L41.9744 35.0783C42.1888 34.8639 42.3104 34.5739 42.313 34.2708L41.563 34.2642ZM41.4441 34.548C41.3688 34.6233 41.2669 34.666 41.1603 34.6669L41.1669 35.4169C41.47 35.4143 41.76 35.2927 41.9744 35.0783L41.4441 34.548ZM41.1603 34.6669C41.0538 34.6679 40.9512 34.6269 40.8746 34.5529L40.3536 35.0924C40.5716 35.303 40.8637 35.4196 41.1669 35.4169L41.1603 34.6669ZM40.8793 34.5575C40.7176 34.3958 40.5116 34.2856 40.2873 34.241L40.1409 34.9766C40.2197 34.9922 40.2921 35.031 40.3489 35.0878L40.8793 34.5575ZM40.2873 34.241C40.063 34.1963 39.8305 34.2192 39.6192 34.3067L39.9061 34.9997C39.9804 34.9689 40.0621 34.9609 40.1409 34.9766L40.2873 34.241ZM39.6192 34.3067C39.4079 34.3942 39.2273 34.5424 39.1002 34.7326L39.7238 35.1493C39.7684 35.0825 39.8319 35.0304 39.9061 34.9997L39.6192 34.3067ZM39.1002 34.7326C38.9731 34.9227 38.9053 35.1463 38.9053 35.375H39.6553C39.6553 35.2946 39.6791 35.2161 39.7238 35.1493L39.1002 34.7326ZM38.9053 35.375C38.9053 35.6037 38.9731 35.8273 39.1002 36.0174L39.7238 35.6007C39.6791 35.5339 39.6553 35.4554 39.6553 35.375H38.9053ZM39.1002 36.0174C39.2273 36.2076 39.4079 36.3558 39.6192 36.4433L39.9061 35.7503C39.8319 35.7196 39.7684 35.6675 39.7238 35.6007L39.1002 36.0174ZM39.6192 36.4433C39.8305 36.5308 40.063 36.5536 40.2873 36.509L40.1409 35.7734C40.0621 35.7891 39.9804 35.7811 39.9061 35.7503L39.6192 36.4433ZM40.2873 36.509C40.5116 36.4644 40.7176 36.3542 40.8793 36.1925L40.3489 35.6622C40.2921 35.719 40.2197 35.7577 40.1409 35.7734L40.2873 36.509ZM40.8746 36.1971C40.9512 36.1231 41.0538 36.0821 41.1603 36.0831L41.1669 35.3331C40.8637 35.3304 40.5716 35.447 40.3536 35.6576L40.8746 36.1971ZM41.1603 36.0831C41.2669 36.084 41.3688 36.1267 41.4441 36.202L41.9744 35.6717C41.76 35.4573 41.47 35.3357 41.1669 35.3331L41.1603 36.0831ZM41.4441 36.202C41.5194 36.2773 41.5621 36.3792 41.563 36.4858L42.313 36.4792C42.3104 36.1761 42.1888 35.8861 41.9744 35.6717L41.4441 36.202ZM41.563 36.4858C41.564 36.5923 41.523 36.6949 41.449 36.7715L41.9885 37.2925C42.1991 37.0745 42.3157 36.7824 42.313 36.4792L41.563 36.4858ZM41.4536 36.7668C41.0844 37.1359 40.5838 37.3432 40.0617 37.3432V38.0932C40.7826 38.0932 41.474 37.8069 41.9839 37.2972L41.4536 36.7668ZM40.0617 37.3432C39.5397 37.3432 39.039 37.1359 38.6698 36.7668L38.1396 37.2972C38.6494 37.8069 39.3408 38.0932 40.0617 38.0932V37.3432ZM38.6699 36.7669C38.6796 36.7766 38.6864 36.7848 38.6897 36.7889C38.6924 36.7923 38.6943 36.795 38.6914 36.791C38.6898 36.7889 38.6835 36.7802 38.676 36.7709C38.6679 36.7609 38.6562 36.7469 38.641 36.7317L38.1106 37.262C38.1009 37.2523 38.0941 37.2441 38.0908 37.24C38.088 37.2366 38.0861 37.2339 38.0891 37.2379C38.0906 37.24 38.097 37.2487 38.1045 37.258C38.1126 37.268 38.1243 37.282 38.1395 37.2972L38.6699 36.7669ZM38.4019 36.6228C36.4324 36.4855 34.472 36.2397 32.5296 35.8865L32.3954 36.6244C34.3649 36.9826 36.3527 37.2318 38.3497 37.371L38.4019 36.6228ZM32.5233 35.8854C29.789 35.4363 27.0563 34.791 24.3987 34.1632L24.2263 34.8931C26.8797 35.5199 29.6376 36.1715 32.4017 36.6255L32.5233 35.8854ZM24.3987 34.1632C21.3186 33.4359 18.1116 32.6751 14.9188 32.2386L14.8172 32.9817C17.9681 33.4124 21.1393 34.1641 24.2263 34.8931L24.3987 34.1632ZM14.9326 32.2408C12.0246 31.7324 9.04643 31.7828 6.15735 32.3892L6.31142 33.1232C9.10726 32.5364 11.9893 32.4876 14.8034 32.9796L14.9326 32.2408Z" fill="white"/>
</svg>
