<svg width="62" height="61" viewBox="0 0 62 61" fill="none" xmlns="http://www.w3.org/2000/svg">
<path d="M52.6237 41.2703C53.7192 38.4391 54.3051 35.4072 54.3051 32.291C54.3051 18.5783 43.1488 7.41997 29.4361 7.41997C26.0711 7.41997 22.8165 8.08213 19.8127 9.34224C16.3936 6.73775 13.3055 4.67703 10.6428 3.24637C6.1562 0.836513 3.26879 0.370996 1.81605 1.82373C-0.958992 4.60078 3.8567 12.4785 8.55803 18.793C5.95153 22.8162 4.56301 27.4713 4.56301 32.293C4.56301 46.0057 15.7194 57.1621 29.4341 57.1621C34.5026 57.1621 39.3544 55.6431 43.5059 52.7858C48.4741 56.4578 54.3212 60.1278 57.8968 60.1278C58.8319 60.1278 59.6104 59.8769 60.1763 59.3111C61.629 57.8584 61.1635 54.971 58.7536 50.4863C57.3149 47.8076 55.2442 44.7035 52.6237 41.2703ZM52.6337 32.293C52.6337 35.3329 52.0458 38.2886 50.9301 41.0335C50.9261 41.0436 50.9141 41.0476 50.9101 41.0596C50.2961 42.4441 49.6801 43.7805 48.9075 44.9082C48.2193 45.9656 47.4267 46.9629 46.5639 47.9079L44.5654 46.4371C40.2433 43.6701 33.7802 38.1321 27.275 31.6269C21.44 25.7919 16.2993 19.8786 13.3376 15.6207C14.2566 14.7338 15.2238 13.9171 16.2531 13.2028C16.2772 13.1888 16.3073 13.1948 16.3314 13.1787C17.5092 12.3721 18.7673 11.6698 20.0695 11.0919C20.0976 11.0799 20.1137 11.0498 20.1398 11.0358C23.0312 9.77164 26.1755 9.09543 29.4361 9.09543C42.2278 9.09343 52.6337 19.4993 52.6337 32.293ZM49.5657 46.8545C51.1167 49.2664 51.2391 50.1492 51.2532 50.3479C51.0004 50.3439 50.1315 50.2034 47.9584 48.847C48.5323 48.2069 49.0661 47.5427 49.5657 46.8545ZM10.7813 10.7849C11.0923 10.799 12.0494 11.0057 14.3951 12.5166C13.7028 13.0463 13.0366 13.6122 12.3945 14.2181C11.004 12.023 10.7993 11.0879 10.7813 10.7849ZM6.23445 32.293C6.23445 27.993 7.42032 23.8395 9.64758 20.2036C13.4279 25.1197 18.1031 30.4149 23.2941 35.6078C28.6395 40.9533 34.1354 45.8111 39.2059 49.6677L42.0753 51.7304C38.311 54.1864 33.9689 55.4927 29.4341 55.4927C16.6424 55.4927 6.23445 45.0847 6.23445 32.293ZM58.9944 58.1293C58.0975 59.0262 53.8717 58.5105 43.7287 50.8756L43.3374 50.5786C43.3314 50.5746 43.3254 50.5686 43.3193 50.5646L40.1992 48.3233C35.2069 44.5269 29.7692 39.7213 24.4759 34.426C19.0161 28.9642 14.0961 23.378 10.2515 18.2693C2.61666 8.13029 2.09897 3.90451 2.9979 3.00558C3.19856 2.80493 3.55372 2.68253 4.08344 2.68253C5.19507 2.68253 7.06717 3.22229 9.85024 4.71716C12.226 5.99332 15.0672 7.86141 18.1212 10.1529C17.3427 10.5522 16.5842 10.9896 15.8478 11.4732C12.4106 9.16767 10.5144 8.59982 9.55327 9.56095C8.59214 10.5201 9.164 12.4022 11.4434 15.8173C11.4856 15.9277 11.5458 16.03 11.6361 16.1183C11.6421 16.1243 11.6481 16.1243 11.6541 16.1304C14.6579 20.5548 19.907 26.6185 26.0952 32.8087C32.6807 39.3942 39.2481 45.0145 43.6163 47.8116L45.687 49.3547L46.0081 49.5734C49.5396 51.9551 51.4619 52.5531 52.4391 51.5779C53.4022 50.6148 52.8524 48.7507 50.595 45.3817C50.7054 45.2071 50.7877 45.0065 50.892 44.8259C51.2371 44.236 51.5602 43.636 51.8531 43.022L51.8552 43.018C54.1406 46.0659 56.0047 48.9032 57.2808 51.2789C59.49 55.3843 59.6144 57.5092 58.9944 58.1293Z" fill="white"/>
<path d="M52.6237 41.2703L52.3905 41.1801L52.34 41.3107L52.4249 41.422L52.6237 41.2703ZM19.8127 9.34224L19.6612 9.54111L19.7762 9.62867L19.9094 9.57277L19.8127 9.34224ZM10.6428 3.24637L10.7612 3.02614L10.7611 3.02613L10.6428 3.24637ZM1.81605 1.82373L1.63928 1.64695L1.63921 1.64702L1.81605 1.82373ZM8.55803 18.793L8.76784 18.929L8.86233 18.7831L8.75855 18.6437L8.55803 18.793ZM43.5059 52.7858L43.6545 52.5848L43.5111 52.4788L43.3642 52.5799L43.5059 52.7858ZM58.7536 50.4863L58.5334 50.6046L58.5334 50.6047L58.7536 50.4863ZM50.9301 41.0335L50.6985 40.9394L50.698 40.9407L50.9301 41.0335ZM50.9101 41.0596L51.1386 41.161L51.1435 41.15L51.1472 41.1387L50.9101 41.0596ZM48.9075 44.9082L48.7012 44.7668L48.698 44.7718L48.9075 44.9082ZM46.5639 47.9079L46.4157 48.1093L46.5969 48.2426L46.7485 48.0765L46.5639 47.9079ZM44.5654 46.4371L44.7136 46.2358L44.707 46.231L44.7002 46.2266L44.5654 46.4371ZM13.3376 15.6207L13.164 15.4408L13.0108 15.5887L13.1324 15.7635L13.3376 15.6207ZM16.2531 13.2028L16.1271 12.9869L16.1187 12.9918L16.1106 12.9974L16.2531 13.2028ZM16.3314 13.1787L16.4701 13.3868L16.4726 13.385L16.3314 13.1787ZM20.0695 11.0919L19.9711 10.8621L19.9681 10.8634L20.0695 11.0919ZM20.1398 11.0358L20.0396 10.8067L20.0303 10.8108L20.0213 10.8156L20.1398 11.0358ZM29.4361 9.09543L29.4361 9.34543L29.4361 9.34543L29.4361 9.09543ZM49.5657 46.8545L49.776 46.7193L49.5782 46.4117L49.3634 46.7076L49.5657 46.8545ZM51.2532 50.3479L51.2492 50.5979L51.5218 50.6022L51.5026 50.3303L51.2532 50.3479ZM47.9584 48.847L47.7723 48.6801L47.5738 48.9016L47.8261 49.0591L47.9584 48.847ZM10.7813 10.7849L10.7926 10.5352L10.5152 10.5227L10.5317 10.7998L10.7813 10.7849ZM14.3951 12.5166L14.547 12.7151L14.8294 12.499L14.5304 12.3064L14.3951 12.5166ZM12.3945 14.2181L12.1833 14.3519L12.3456 14.6081L12.5661 14.3999L12.3945 14.2181ZM9.64758 20.2036L9.84576 20.0512L9.62423 19.7632L9.4344 20.073L9.64758 20.2036ZM23.2941 35.6078L23.1172 35.7846L23.1173 35.7846L23.2941 35.6078ZM39.2059 49.6677L39.0545 49.8667L39.06 49.8707L39.2059 49.6677ZM42.0753 51.7304L42.2119 51.9398L42.5175 51.7404L42.2212 51.5274L42.0753 51.7304ZM43.7287 50.8756L43.5775 51.0748L43.5783 51.0753L43.7287 50.8756ZM43.3374 50.5786L43.4885 50.3795L43.4824 50.3749L43.4761 50.3706L43.3374 50.5786ZM43.3193 50.5646L43.1734 50.7678L43.1807 50.7726L43.3193 50.5646ZM40.1992 48.3233L40.0478 48.5224L40.0533 48.5263L40.1992 48.3233ZM24.4759 34.426L24.6527 34.2493L24.6527 34.2493L24.4759 34.426ZM10.2515 18.2693L10.4513 18.119L10.4513 18.1189L10.2515 18.2693ZM9.85024 4.71716L9.96854 4.49692L9.96854 4.49692L9.85024 4.71716ZM18.1212 10.1529L18.2353 10.3753L18.591 10.1929L18.2712 9.95291L18.1212 10.1529ZM15.8478 11.4732L15.7085 11.6808L15.8463 11.7732L15.985 11.6822L15.8478 11.4732ZM9.55327 9.56095L9.72986 9.73791L9.73005 9.73773L9.55327 9.56095ZM11.4434 15.8173L11.677 15.7282L11.667 15.7019L11.6514 15.6786L11.4434 15.8173ZM11.6361 16.1183L11.8128 15.9415L11.8108 15.9396L11.6361 16.1183ZM11.6541 16.1304L11.861 15.9899L11.8476 15.9703L11.8309 15.9536L11.6541 16.1304ZM26.0952 32.8087L25.9184 32.9855L25.9184 32.9855L26.0952 32.8087ZM43.6163 47.8116L43.7657 47.6112L43.7586 47.6059L43.7511 47.6011L43.6163 47.8116ZM45.687 49.3547L45.5375 49.5553L45.5463 49.5613L45.687 49.3547ZM46.0081 49.5734L45.8673 49.78L45.8683 49.7806L46.0081 49.5734ZM52.4391 51.5779L52.6157 51.7549L52.6158 51.7547L52.4391 51.5779ZM50.595 45.3817L50.3837 45.2481L50.2968 45.3857L50.3874 45.5209L50.595 45.3817ZM50.892 44.8259L50.6762 44.6996L50.6755 44.7008L50.892 44.8259ZM51.8531 43.022L51.6296 42.91L51.6275 42.9144L51.8531 43.022ZM51.8552 43.018L52.0552 42.868L51.8127 42.5446L51.6316 42.906L51.8552 43.018ZM57.2808 51.2789L57.0606 51.3972L57.0607 51.3974L57.2808 51.2789ZM52.8568 41.3605C53.9633 38.5011 54.5551 35.4387 54.5551 32.291H54.0551C54.0551 35.3757 53.4752 38.377 52.3905 41.1801L52.8568 41.3605ZM54.5551 32.291C54.5551 18.4403 43.2869 7.16997 29.4361 7.16997V7.66997C43.0107 7.66997 54.0551 18.7164 54.0551 32.291H54.5551ZM29.4361 7.16997C26.0381 7.16997 22.7506 7.83867 19.716 9.1117L19.9094 9.57277C22.8824 8.32558 26.1041 7.66997 29.4361 7.66997V7.16997ZM19.9642 9.14336C16.539 6.53425 13.4395 4.4652 10.7612 3.02614L10.5245 3.46659C13.1715 4.88886 16.2481 6.94124 19.6612 9.54111L19.9642 9.14336ZM10.7611 3.02613C8.50844 1.81617 6.63623 1.0823 5.13151 0.839764C3.62452 0.596858 2.44429 0.841944 1.63928 1.64695L1.99283 2.00051C2.64055 1.35278 3.6304 1.10426 5.05195 1.33339C6.47578 1.56289 8.29058 2.26671 10.5245 3.46661L10.7611 3.02613ZM1.63921 1.64702C0.870523 2.41626 0.650157 3.51925 0.789132 4.78603C0.928108 6.05283 1.42942 7.52367 2.15673 9.08725C3.61243 12.2168 6.00401 15.7812 8.3575 18.9423L8.75855 18.6437C6.41073 15.4903 4.04379 11.9586 2.61008 8.87637C1.89268 7.33408 1.41655 5.92015 1.28615 4.7315C1.15575 3.54284 1.37406 2.61972 1.99289 2.00044L1.63921 1.64702ZM8.34821 18.6571C5.71565 22.7205 4.31301 27.4228 4.31301 32.293H4.81301C4.81301 27.5199 6.18742 22.9118 8.76784 18.929L8.34821 18.6571ZM4.31301 32.293C4.31301 46.1438 15.5813 57.4121 29.4341 57.4121V56.9121C15.8574 56.9121 4.81301 45.8677 4.81301 32.293H4.31301ZM29.4341 57.4121C34.5534 57.4121 39.4546 55.8777 43.6477 52.9918L43.3642 52.5799C39.2542 55.4086 34.4518 56.9121 29.4341 56.9121V57.4121ZM43.3573 52.9869C45.8458 54.8261 48.56 56.6691 51.1041 58.0534C53.6375 59.4319 56.0413 60.3778 57.8968 60.3778V59.8778C56.1768 59.8778 53.8692 58.9887 51.3431 57.6142C48.8277 56.2455 46.1343 54.4176 43.6545 52.5848L43.3573 52.9869ZM57.8968 60.3778C58.8763 60.3778 59.7268 60.1141 60.3531 59.4879L59.9995 59.1343C59.494 59.6398 58.7875 59.8778 57.8968 59.8778V60.3778ZM60.3531 59.4879C61.1581 58.6829 61.4032 57.5026 61.1602 55.9959C60.9177 54.4914 60.1838 52.6197 58.9739 50.368L58.5334 50.6047C59.7333 52.8376 60.4371 54.6519 60.6666 56.0755C60.8957 57.4968 60.6472 58.4866 59.9995 59.1343L60.3531 59.4879ZM58.9739 50.3681C57.5268 47.6737 55.4477 44.558 52.8224 41.1186L52.4249 41.422C55.0407 44.849 57.1031 47.9416 58.5334 50.6046L58.9739 50.3681ZM52.3837 32.293C52.3837 35.3005 51.8021 38.2242 50.6985 40.9394L51.1617 41.1277C52.2895 38.353 52.8837 35.3654 52.8837 32.293H52.3837ZM50.698 40.9407C50.7111 40.9079 50.7287 40.8856 50.739 40.8741C50.744 40.8684 50.7481 40.8644 50.7496 40.863C50.7503 40.8624 50.7522 40.8606 50.7491 40.8634C50.7463 40.866 50.7323 40.8789 50.718 40.8971C50.7023 40.917 50.6848 40.9447 50.6729 40.9806L51.1472 41.1387C51.1424 41.1532 51.1364 41.1663 51.1298 41.178C51.1233 41.1897 51.1165 41.1992 51.1106 41.2067C51.1048 41.2141 51.0997 41.2196 51.0963 41.223C51.0947 41.2247 51.0933 41.2261 51.0924 41.2269C51.092 41.2273 51.0917 41.2277 51.0914 41.2279C51.0913 41.228 51.0912 41.2281 51.0912 41.2281C51.0912 41.2281 51.0911 41.2282 51.0911 41.2282C51.0911 41.2282 51.0911 41.2282 51.0911 41.2282C51.0911 41.2282 51.0911 41.2282 51.0911 41.2282C51.0911 41.2282 51.0911 41.2282 51.0912 41.2281C51.0912 41.2281 51.0913 41.228 51.0914 41.2279C51.0916 41.2277 51.092 41.2273 51.0925 41.2269C51.0933 41.2261 51.0948 41.2247 51.0966 41.223C51.1 41.2197 51.1059 41.2139 51.1127 41.2062C51.1265 41.1907 51.1471 41.1642 51.1623 41.1264L50.698 40.9407ZM50.6815 40.9583C50.0669 42.3443 49.4591 43.6606 48.7013 44.7669L49.1138 45.0494C49.901 43.9003 50.5253 42.5439 51.1386 41.161L50.6815 40.9583ZM48.698 44.7718C48.0184 45.816 47.2345 46.8026 46.3793 47.7394L46.7485 48.0765C47.6189 47.1231 48.4202 46.1152 49.1171 45.0445L48.698 44.7718ZM46.7121 47.7066L44.7136 46.2358L44.4172 46.6385L46.4157 48.1093L46.7121 47.7066ZM44.7002 46.2266C40.4007 43.4741 33.9527 37.9509 27.4518 31.4501L27.0983 31.8036C33.6078 38.3132 40.0859 43.8662 44.4306 46.6477L44.7002 46.2266ZM27.4518 31.4501C21.6221 25.6204 16.4927 19.7189 13.5428 15.4779L13.1324 15.7635C16.1058 20.0383 21.2579 25.9633 27.0983 31.8036L27.4518 31.4501ZM13.5112 15.8006C14.4224 14.9212 15.3793 14.1135 16.3956 13.4082L16.1106 12.9974C15.0682 13.7208 14.0908 14.5464 13.164 15.4408L13.5112 15.8006ZM16.3791 13.4188C16.3587 13.4307 16.3412 13.4358 16.3333 13.4378C16.3276 13.4392 16.3225 13.4399 16.3333 13.4381C16.3398 13.4371 16.3598 13.4339 16.3821 13.4274C16.4062 13.4204 16.4375 13.4084 16.47 13.3868L16.1927 12.9707C16.2132 12.9571 16.2317 12.9504 16.2426 12.9472C16.2518 12.9446 16.2582 12.9438 16.2511 12.9449C16.2485 12.9454 16.2298 12.9482 16.2109 12.953C16.1898 12.9583 16.1596 12.9679 16.1271 12.9869L16.3791 13.4188ZM16.4726 13.385C17.6379 12.587 18.8827 11.8921 20.171 11.3205L19.9681 10.8634C18.6519 11.4475 17.3805 12.1572 16.1901 12.9725L16.4726 13.385ZM20.168 11.3217C20.2019 11.3072 20.2277 11.2891 20.2458 11.2746C20.2629 11.2607 20.2765 11.2471 20.2822 11.2414C20.2907 11.2328 20.2892 11.2344 20.2878 11.2357C20.285 11.2382 20.2748 11.247 20.2583 11.2559L20.0213 10.8156C19.9917 10.8315 19.9697 10.8494 19.9557 10.8619C19.9431 10.8731 19.9309 10.8856 19.9286 10.8878C19.9236 10.8929 19.9263 10.8899 19.9316 10.8856C19.9379 10.8805 19.9513 10.8706 19.9711 10.8622L20.168 11.3217ZM20.2399 11.2648C23.1002 10.0143 26.2103 9.34543 29.4361 9.34543V8.84543C26.1406 8.84543 22.9623 9.52893 20.0396 10.8067L20.2399 11.2648ZM29.4361 9.34543C42.0897 9.34345 52.3837 19.6374 52.3837 32.293H52.8837C52.8837 19.3613 42.3659 8.8434 29.436 8.84543L29.4361 9.34543ZM49.3554 46.9897C50.8988 49.3897 50.9942 50.2297 51.0038 50.3655L51.5026 50.3303C51.4841 50.0688 51.3347 49.143 49.776 46.7193L49.3554 46.9897ZM51.2572 50.0979C51.0755 50.095 50.2554 49.9861 48.0908 48.6349L47.8261 49.0591C50.0076 50.4208 50.9252 50.5927 51.2492 50.5979L51.2572 50.0979ZM48.1446 49.0139C48.7244 48.3671 49.2635 47.6963 49.768 47.0014L49.3634 46.7076C48.8686 47.3892 48.3402 48.0467 47.7723 48.6801L48.1446 49.0139ZM10.77 11.0347C11.0105 11.0455 11.9198 11.2196 14.2597 12.7268L14.5304 12.3064C12.179 10.7918 11.1741 10.5524 10.7926 10.5352L10.77 11.0347ZM14.2431 12.318C13.5441 12.853 12.8713 13.4244 12.2229 14.0363L12.5661 14.3999C13.2019 13.7999 13.8615 13.2397 14.547 12.7151L14.2431 12.318ZM12.6057 14.0843C11.2203 11.8972 11.045 11.0071 11.0308 10.7701L10.5317 10.7998C10.5537 11.1688 10.7877 12.1487 12.1833 14.3519L12.6057 14.0843ZM6.48445 32.293C6.48445 28.0395 7.65738 23.9311 9.86076 20.3342L9.4344 20.073C7.18326 23.7479 5.98445 27.9466 5.98445 32.293H6.48445ZM9.4494 20.356C13.2371 25.2817 17.9197 30.585 23.1172 35.7846L23.4709 35.4311C18.2866 30.2448 13.6187 24.9576 9.84576 20.0512L9.4494 20.356ZM23.1173 35.7846C28.4692 41.1366 33.9736 46.0021 39.0546 49.8667L39.3573 49.4687C34.2972 45.6201 28.8097 40.77 23.4708 35.4311L23.1173 35.7846ZM39.06 49.8707L41.9293 51.9334L42.2212 51.5274L39.3518 49.4647L39.06 49.8707ZM41.9387 51.521C38.2147 53.9507 33.92 55.2427 29.4341 55.2427V55.7427C34.0177 55.7427 38.4073 54.4221 42.2119 51.9398L41.9387 51.521ZM29.4341 55.2427C16.7805 55.2427 6.48445 44.9467 6.48445 32.293H5.98445C5.98445 45.2228 16.5043 55.7427 29.4341 55.7427V55.2427ZM58.8176 57.9525C58.6691 58.101 58.327 58.2383 57.6723 58.1984C57.0276 58.1591 56.1257 57.9497 54.9214 57.4696C52.514 56.5101 48.942 54.4869 43.879 50.6759L43.5783 51.0753C48.6584 54.8993 52.2708 56.9513 54.7363 57.9341C55.9684 58.4252 56.9251 58.6537 57.6419 58.6975C58.3488 58.7406 58.8713 58.6059 59.1712 58.306L58.8176 57.9525ZM43.8798 50.6765L43.4885 50.3795L43.1862 50.7778L43.5775 51.0747L43.8798 50.6765ZM43.4761 50.3706C43.4822 50.3747 43.4865 50.3781 43.4881 50.3793C43.4894 50.3804 43.4904 50.3812 43.4884 50.3796C43.4874 50.3787 43.4834 50.3754 43.479 50.3719C43.4745 50.3683 43.4672 50.3627 43.458 50.3566L43.1807 50.7726C43.1745 50.7685 43.1702 50.7651 43.1687 50.7639C43.1673 50.7628 43.1664 50.762 43.1683 50.7637C43.1694 50.7645 43.1733 50.7678 43.1777 50.7713C43.1822 50.7749 43.1895 50.7805 43.1987 50.7867L43.4761 50.3706ZM43.4652 50.3616L40.345 48.1202L40.0533 48.5263L43.1735 50.7676L43.4652 50.3616ZM40.3505 48.1243C35.3687 44.3359 29.9395 39.538 24.6527 34.2493L24.2991 34.6027C29.5989 39.9045 35.0451 44.7179 40.0478 48.5223L40.3505 48.1243ZM24.6527 34.2493C19.1995 28.794 14.2875 23.2166 10.4513 18.119L10.0518 18.4197C13.9046 23.5394 18.8327 29.1344 24.2991 34.6027L24.6527 34.2493ZM10.4513 18.1189C6.64027 13.058 4.61658 9.48692 3.65677 7.07982C3.17662 5.87566 2.96715 4.97371 2.92793 4.3288C2.88812 3.67408 3.02557 3.33147 3.17468 3.18236L2.82113 2.82881C2.52078 3.12916 2.38584 3.65187 2.42886 4.35915C2.47247 5.07624 2.70106 6.03298 3.19233 7.26501C4.17534 9.73029 6.22794 13.3416 10.0518 18.4197L10.4513 18.1189ZM3.17468 3.18236C3.30745 3.04959 3.58283 2.93253 4.08344 2.93253V2.43253C3.52461 2.43253 3.08966 2.56027 2.82113 2.82881L3.17468 3.18236ZM4.08344 2.93253C5.13101 2.93253 6.95775 3.4473 9.73194 4.9374L9.96854 4.49692C7.17659 2.99728 5.25912 2.43253 4.08344 2.43253V2.93253ZM9.73194 4.9374C12.0931 6.20571 14.9234 8.06605 17.9712 10.3528L18.2712 9.95291C15.2111 7.65677 12.3589 5.78093 9.96854 4.49692L9.73194 4.9374ZM18.0071 9.93043C17.2213 10.3335 16.455 10.7754 15.7106 11.2642L15.985 11.6822C16.7134 11.2039 17.4641 10.7709 18.2353 10.3753L18.0071 9.93043ZM15.9871 11.2656C14.2641 10.1099 12.9054 9.37403 11.8445 9.0528C10.7819 8.73106 9.9521 8.80857 9.3765 9.38417L9.73005 9.73773C10.1156 9.3522 10.7145 9.23307 11.6996 9.53134C12.6863 9.83013 13.9943 10.531 15.7085 11.6808L15.9871 11.2656ZM9.37668 9.38399C8.80094 9.95853 8.72434 10.7844 9.04385 11.8405C9.36278 12.8948 10.093 14.2444 11.2355 15.9561L11.6514 15.6786C10.5144 13.9751 9.81901 12.6761 9.52243 11.6958C9.22643 10.7173 9.34447 10.1225 9.72986 9.73791L9.37668 9.38399ZM11.2099 15.9065C11.2623 16.0437 11.3403 16.1788 11.4613 16.2971L11.8108 15.9396C11.7512 15.8813 11.7089 15.8117 11.677 15.7282L11.2099 15.9065ZM11.4593 16.2951C11.4675 16.3033 11.4759 16.3107 11.4844 16.3173C11.4929 16.324 11.5009 16.3294 11.5081 16.3339C11.5152 16.3383 11.5213 16.3417 11.5256 16.344C11.5295 16.3461 11.533 16.3478 11.5333 16.348C11.5345 16.3486 11.5325 16.3476 11.5301 16.3463C11.5273 16.3448 11.5227 16.3423 11.5171 16.3388C11.5114 16.3352 11.5049 16.3308 11.498 16.3254C11.491 16.3199 11.484 16.3138 11.4773 16.3071L11.8309 15.9536C11.8227 15.9454 11.8143 15.938 11.8058 15.9314C11.7973 15.9247 11.7893 15.9193 11.7821 15.9148C11.775 15.9104 11.7689 15.907 11.7646 15.9047C11.7607 15.9026 11.7572 15.9009 11.7569 15.9007C11.7557 15.9001 11.7577 15.9011 11.7601 15.9024C11.7629 15.9039 11.7675 15.9064 11.7731 15.9099C11.7787 15.9134 11.7853 15.9179 11.7922 15.9233C11.7992 15.9288 11.8061 15.9348 11.8128 15.9415L11.4593 16.2951ZM11.4473 16.2708C14.4637 20.7138 19.7251 26.7902 25.9184 32.9855L26.272 32.632C20.0889 26.4469 14.8521 20.3958 11.861 15.9899L11.4473 16.2708ZM25.9184 32.9855C32.5083 39.5754 39.0907 45.2106 43.4815 48.0222L43.7511 47.6011C39.4054 44.8184 32.853 39.2129 26.272 32.6319L25.9184 32.9855ZM43.4669 48.0121L45.5377 49.5551L45.8364 49.1542L43.7657 47.6112L43.4669 48.0121ZM45.5463 49.5613L45.8673 49.78L46.1489 49.3668L45.8278 49.148L45.5463 49.5613ZM45.8683 49.7806C47.638 50.9742 49.0264 51.7365 50.1071 52.0732C51.1891 52.4103 52.0308 52.3385 52.6157 51.7549L52.2625 51.4009C51.8702 51.7924 51.2621 51.9093 50.2558 51.5958C49.2482 51.2819 47.9097 50.5543 46.1479 49.3661L45.8683 49.7806ZM52.6158 51.7547C53.1907 51.1798 53.2758 50.3594 52.9644 49.3108C52.654 48.2655 51.9344 46.9315 50.8027 45.2425L50.3874 45.5209C51.5131 47.2009 52.1971 48.4834 52.4851 49.4532C52.7721 50.4196 52.6505 51.0129 52.2623 51.4011L52.6158 51.7547ZM50.8064 45.5153C50.8688 45.4165 50.9218 45.3127 50.9693 45.2181C51.0184 45.1201 51.061 45.0332 51.1085 44.951L50.6755 44.7008C50.6187 44.7992 50.568 44.9029 50.5223 44.994C50.4749 45.0885 50.4316 45.1724 50.3837 45.2481L50.8064 45.5153ZM51.1078 44.9521C51.4559 44.3572 51.7823 43.751 52.0788 43.1297L51.6275 42.9144C51.338 43.521 51.0184 44.1148 50.6762 44.6996L51.1078 44.9521ZM52.0767 43.134L52.0787 43.13L51.6316 42.906L51.6296 42.91L52.0767 43.134ZM51.6551 43.168C53.9359 46.2097 55.7923 49.036 57.0606 51.3972L57.5011 51.1606C56.2171 48.7703 54.3453 45.9222 52.0552 42.868L51.6551 43.168ZM57.0607 51.3974C58.1592 53.4387 58.7307 54.9723 58.9537 56.0613C59.0652 56.6058 59.0876 57.0297 59.0506 57.3456C59.0134 57.6633 58.9191 57.8511 58.8176 57.9525L59.1712 58.306C59.3798 58.0974 59.5024 57.7871 59.5472 57.4037C59.5923 57.0184 59.5617 56.5383 59.4435 55.9609C59.207 54.8061 58.6117 53.2246 57.501 51.1605L57.0607 51.3974Z" fill="white"/>
</svg>
