<svg width="72" height="72" viewBox="0 0 72 72" fill="none" xmlns="http://www.w3.org/2000/svg">
<path fill-rule="evenodd" clip-rule="evenodd" d="M3.91324 18.1241C5.67733 21.7459 8.12834 25.7215 11.1092 29.8366C10.4595 32.0875 10.13 34.4186 10.1304 36.7613C10.1304 50.4965 21.3051 61.668 35.0371 61.668C37.3441 61.6682 39.6399 61.3478 41.8587 60.7162C41.8853 60.7081 41.9113 60.698 41.9364 60.686C54.596 69.8872 65.1472 73.4122 69.2624 69.2971C72.1322 66.4273 71.4374 60.6289 67.2508 52.5287C67.1431 52.32 66.9569 52.1627 66.7332 52.0912C66.5095 52.0198 66.2665 52.0402 66.0578 52.148C65.8491 52.2557 65.6918 52.4419 65.6204 52.6656C65.549 52.8893 65.5694 53.1322 65.6771 53.3409C69.3639 60.4798 70.2142 65.8371 68.0091 68.0438C65.9896 70.0633 61.205 69.4986 54.8815 66.4923C48.2583 63.3512 40.2976 57.7385 32.475 50.7091C32.3885 50.6308 32.2874 50.5704 32.1774 50.5313C32.0675 50.4921 31.951 50.475 31.8345 50.4809C31.7179 50.4868 31.6037 50.5156 31.4983 50.5656C31.3929 50.6157 31.2984 50.686 31.2202 50.7725C31.142 50.8591 31.0815 50.9602 31.0424 51.0701C31.0032 51.18 30.9861 51.2966 30.992 51.4131C30.9979 51.5296 31.0267 51.6438 31.0767 51.7492C31.1268 51.8546 31.1971 51.9492 31.2836 52.0274C34.2867 54.7243 37.2422 57.1721 40.1041 59.3408C38.4402 59.7126 36.7405 59.9004 35.0355 59.9008C22.276 59.9008 11.8977 49.5209 11.8977 36.7629C11.8974 35.0515 12.0863 33.3452 12.4608 31.6753C14.9309 34.9481 17.7182 38.2875 20.7467 41.5904C20.8243 41.6799 20.9191 41.7529 21.0254 41.8052C21.1318 41.8574 21.2475 41.8878 21.3658 41.8946C21.4841 41.9014 21.6026 41.8844 21.7142 41.8446C21.8258 41.8049 21.9283 41.7432 22.0157 41.6631C22.103 41.5831 22.1734 41.4863 22.2228 41.3786C22.2721 41.2709 22.2994 41.1544 22.303 41.0359C22.3065 40.9175 22.2863 40.7996 22.2435 40.6891C22.2008 40.5786 22.1363 40.4778 22.0539 40.3926C14.7231 32.3987 8.84381 24.2112 5.49966 17.35C2.31889 10.8044 1.67957 5.86273 3.74984 3.80039C4.05581 3.49705 4.41364 3.25097 4.80639 3.07382C4.91212 3.02527 5.00725 2.95638 5.08635 2.87108C5.16546 2.78577 5.22699 2.68572 5.26743 2.57663C5.34909 2.35633 5.3399 2.1126 5.24186 1.89908C5.14383 1.68555 4.96499 1.51971 4.74468 1.43804C4.52437 1.35638 4.28065 1.36557 4.06712 1.46361C3.48297 1.72786 2.95101 2.09486 2.49657 2.54713C1.34166 3.70204 0.767379 5.33922 0.767379 7.41424C0.767379 10.2143 1.81918 13.8234 3.91324 18.1241ZM32.5037 39.2997C31.0997 37.8957 29.7132 36.4648 28.379 35.0449C28.2168 34.8787 27.9959 34.7828 27.7638 34.7777C27.5316 34.7726 27.3067 34.8588 27.1374 35.0177C26.9681 35.1766 26.8679 35.3956 26.8583 35.6276C26.8487 35.8596 26.9305 36.0862 27.0861 36.2585C28.4313 37.6863 29.8322 39.1363 31.2488 40.5529C38.6225 47.9266 46.15 54.2738 52.4465 58.4271C59.2681 62.9325 63.6957 64.2603 65.582 62.3741C66.7956 61.1605 66.6925 58.9887 65.2869 55.7333C65.1885 55.5251 65.013 55.3634 64.7974 55.2823C64.5819 55.2012 64.3432 55.2071 64.132 55.2988C63.9208 55.3906 63.7535 55.5608 63.6655 55.7737C63.5776 55.9865 63.5759 56.2252 63.6608 56.4393C64.6746 58.7745 64.93 60.5259 64.3287 61.1208C63.4895 61.96 60.1279 61.3715 53.4221 56.9485C47.224 52.8588 39.7948 46.5908 32.5037 39.2997ZM62.9278 51.2723C63.0505 51.4733 63.1695 51.6721 63.2848 51.8688C63.3494 51.9691 63.393 52.0815 63.4132 52.1991C63.4333 52.3167 63.4295 52.4372 63.402 52.5533C63.3745 52.6694 63.3238 52.7788 63.253 52.8749C63.1822 52.9709 63.0927 53.0517 62.99 53.1124C62.8872 53.1731 62.7733 53.2124 62.6549 53.228C62.5366 53.2436 62.4164 53.2351 62.3014 53.2031C62.1865 53.1712 62.0791 53.1163 61.9859 53.0418C61.8926 52.9674 61.8153 52.8749 61.7587 52.7699L61.7394 52.7374L61.7393 52.7372L61.7391 52.7368L61.7389 52.7365L61.7387 52.7362L61.7385 52.7358C61.6324 52.5564 61.5247 52.3744 61.4128 52.1924C61.3004 51.9919 61.2702 51.7556 61.3286 51.5333C61.387 51.3109 61.5294 51.12 61.7259 51.0006C61.9224 50.8813 62.1576 50.843 62.3818 50.8936C62.606 50.9443 62.8018 51.0801 62.9278 51.2723ZM53.7027 50.7409C53.7001 50.5566 53.7556 50.3762 53.8614 50.2253C56.6825 46.3035 58.1962 41.5925 58.1875 36.7614C58.1879 34.9837 57.9846 33.2117 57.5815 31.4802C57.5375 31.2549 57.5826 31.0213 57.7074 30.8285C57.8321 30.6358 58.0267 30.4989 58.2503 30.4467C58.4739 30.3945 58.709 30.431 58.9062 30.5487C59.1033 30.6663 59.2472 30.8558 59.3075 31.0773C59.7418 32.9408 59.9605 34.848 59.9596 36.7614C59.971 41.9616 58.3441 47.0333 55.3098 51.2565C55.2004 51.4088 55.0455 51.5225 54.8674 51.5812C54.6893 51.64 54.4972 51.6408 54.3186 51.5835C54.1401 51.5262 53.9843 51.4138 53.8736 51.2624C53.7629 51.111 53.7031 50.9284 53.7027 50.7409ZM55.4895 25.7737C55.3983 25.7015 55.3221 25.6121 55.2655 25.5105C53.2569 21.9092 50.3237 18.9089 46.7687 16.8193C43.2137 14.7298 39.1655 13.6266 35.0419 13.6235C29.9073 13.606 24.9156 15.3133 20.8673 18.4716C20.7753 18.5429 20.6702 18.5953 20.5579 18.6259C20.4457 18.6566 20.3285 18.6648 20.2131 18.6501C20.0977 18.6355 19.9863 18.5982 19.8852 18.5405C19.7842 18.4828 19.6955 18.4057 19.6243 18.3138C19.553 18.2218 19.5006 18.1167 19.47 18.0044C19.4394 17.8922 19.4311 17.775 19.4458 17.6596C19.4605 17.5442 19.4977 17.4328 19.5554 17.3318C19.6131 17.2307 19.6902 17.1421 19.7821 17.0708C24.1403 13.6705 29.5142 11.8325 35.0419 11.8515C39.4809 11.8549 43.8386 13.0425 47.6655 15.2918C51.4924 17.5412 54.6499 20.7708 56.8122 24.6475C56.9267 24.8526 56.9549 25.0948 56.8908 25.3208C56.8591 25.4327 56.8056 25.5372 56.7335 25.6284C56.6613 25.7196 56.5719 25.7957 56.4704 25.8524C56.3688 25.9091 56.2571 25.9452 56.1415 25.9587C56.026 25.9722 55.909 25.9628 55.7971 25.931C55.6852 25.8993 55.5807 25.8458 55.4895 25.7737ZM15.9081 7.39064C15.9943 7.17185 15.9901 6.92777 15.8964 6.71208C15.8027 6.49639 15.6272 6.32676 15.4084 6.24049C12.5148 5.09668 10.5587 5.08875 9.42919 6.21986C8.86549 6.78146 8.58363 7.55563 8.58363 8.54238C8.58363 10.3223 9.499 12.8082 11.3361 16.0445C13.8743 20.5214 17.9641 26.0151 23.1564 31.9309C23.232 32.0225 23.3252 32.0979 23.4304 32.1528C23.5357 32.2077 23.6509 32.241 23.7693 32.2505C23.8876 32.26 24.0067 32.2457 24.1194 32.2084C24.2321 32.171 24.3361 32.1115 24.4254 32.0332C24.5146 31.9549 24.5872 31.8594 24.6389 31.7525C24.6906 31.6456 24.7203 31.5295 24.7262 31.4109C24.7321 31.2923 24.7142 31.1738 24.6735 31.0622C24.6327 30.9507 24.57 30.8485 24.489 30.7617C12.5275 17.136 9.21503 8.93898 10.6872 7.47313C10.9442 7.21455 11.8564 6.74021 14.7627 7.88877C14.9808 7.97318 15.2233 7.96822 15.4377 7.87497C15.6521 7.78172 15.8212 7.60769 15.9081 7.39064ZM18.998 9.88914C18.9224 9.75567 18.8826 9.60486 18.8827 9.45146C18.8845 9.29084 18.9307 9.13383 19.016 8.99774C19.0756 8.89776 19.1543 8.81051 19.2477 8.74099C19.341 8.67147 19.4472 8.62105 19.5601 8.59261C19.673 8.56417 19.7903 8.55828 19.9055 8.57525C20.0206 8.59223 20.1313 8.63176 20.2312 8.69156L20.2729 8.71632C20.4202 8.80377 20.5717 8.89375 20.7166 8.98505C20.9113 9.1106 21.0492 9.30736 21.1007 9.53323C21.1521 9.75911 21.1132 9.99616 20.9922 10.1937C20.8711 10.3912 20.6776 10.5335 20.4529 10.5902C20.2283 10.6469 19.9904 10.6134 19.7902 10.4969C19.6315 10.4001 19.4729 10.3049 19.3142 10.2129C19.1826 10.1342 19.0736 10.0226 18.998 9.88914ZM61.5843 46.1877C61.5846 46.3608 61.6353 46.5301 61.7303 46.6748C62.2585 47.468 62.7678 48.2755 63.2453 49.0544C63.3723 49.2453 63.5684 49.3796 63.7924 49.429C64.0163 49.4784 64.2507 49.4392 64.4463 49.3195C64.6419 49.1998 64.7836 49.009 64.8415 48.7871C64.8995 48.5653 64.8692 48.3296 64.7571 48.1295C64.2685 47.3363 63.7482 46.5145 63.2104 45.6991C63.1052 45.5404 62.9517 45.4197 62.7726 45.3549C62.5935 45.2902 62.3983 45.2848 62.2159 45.3396C62.0335 45.3944 61.8736 45.5065 61.7599 45.6592C61.6461 45.812 61.5846 45.9973 61.5843 46.1877ZM26.8512 45.3865L27.3176 45.8498L27.3223 45.8498C27.4894 46.0149 27.5839 46.2397 27.5853 46.4745C27.5866 46.7094 27.4946 46.9352 27.3295 47.1022C27.1643 47.2693 26.9396 47.3639 26.7047 47.3652C26.4698 47.3666 26.244 47.2745 26.077 47.1094L25.6011 46.643C25.5135 46.5621 25.4431 46.4644 25.3942 46.3556C25.3452 46.2469 25.3187 46.1295 25.3162 46.0103C25.3137 45.8911 25.3352 45.7726 25.3796 45.6619C25.4239 45.5512 25.4901 45.4506 25.5742 45.3661C25.6583 45.2816 25.7585 45.2149 25.869 45.17C25.9794 45.1251 26.0978 45.103 26.217 45.1049C26.3362 45.1068 26.4538 45.1327 26.5628 45.1811C26.6717 45.2295 26.7698 45.2994 26.8512 45.3865ZM8.80979 2.4606C8.67357 2.30056 8.59849 2.09741 8.59791 1.88724C8.5938 1.83762 8.5938 1.78774 8.59791 1.73812C8.61729 1.62308 8.65923 1.51301 8.72129 1.41423C8.78336 1.31546 8.86435 1.22992 8.95958 1.16255C9.05482 1.09517 9.16244 1.04729 9.27625 1.02165C9.39005 0.996004 9.5078 0.99311 9.62273 1.01313C14.1091 1.74923 20.0201 4.51117 26.7179 9.0039C26.9033 9.1388 27.0293 9.34026 27.0693 9.56601C27.1094 9.79176 27.0605 10.0243 26.9328 10.2147C26.8052 10.4052 26.6087 10.5388 26.3847 10.5875C26.1606 10.6362 25.9264 10.5963 25.7312 10.4761C19.3379 6.18008 13.5158 3.44669 9.34194 2.76136C9.13456 2.72721 8.94601 2.62064 8.80979 2.4606Z" fill="white"/>
<path d="M11.1092 29.8366L11.3494 29.906L11.3832 29.7888L11.3117 29.69L11.1092 29.8366ZM3.91324 18.1241L3.68847 18.2336L3.68848 18.2336L3.91324 18.1241ZM10.1304 36.7613L10.3804 36.7613L10.3804 36.7613L10.1304 36.7613ZM35.0371 61.668L35.0371 61.418L35.0371 61.418L35.0371 61.668ZM41.8587 60.7162L41.9271 60.9567L41.9316 60.9553L41.8587 60.7162ZM41.9364 60.686L42.0834 60.4838L41.9632 60.3965L41.8291 60.4602L41.9364 60.686ZM69.2624 69.2971L69.0856 69.1203L69.0856 69.1203L69.2624 69.2971ZM67.2508 52.5287L67.0287 52.6434L67.0287 52.6435L67.2508 52.5287ZM66.0578 52.148L65.9432 51.9258L65.9432 51.9258L66.0578 52.148ZM65.6771 53.3409L65.4549 53.4556L65.455 53.4557L65.6771 53.3409ZM68.0091 68.0438L68.1859 68.2206L68.186 68.2205L68.0091 68.0438ZM54.8815 66.4923L54.9889 66.2665L54.9887 66.2664L54.8815 66.4923ZM32.475 50.7091L32.3074 50.8946L32.3079 50.895L32.475 50.7091ZM32.1774 50.5313L32.0936 50.7668L32.0936 50.7668L32.1774 50.5313ZM31.8345 50.4809L31.8218 50.2312L31.8218 50.2312L31.8345 50.4809ZM31.4983 50.5656L31.6055 50.7915L31.6055 50.7915L31.4983 50.5656ZM31.2202 50.7725L31.4057 50.9402L31.4057 50.9402L31.2202 50.7725ZM31.0424 51.0701L30.8069 50.9862L30.8069 50.9862L31.0424 51.0701ZM31.0767 51.7492L30.8509 51.8565L30.8509 51.8565L31.0767 51.7492ZM31.2836 52.0274L31.116 52.2129L31.1166 52.2134L31.2836 52.0274ZM40.1041 59.3408L40.1586 59.5847L40.6848 59.4672L40.2551 59.1415L40.1041 59.3408ZM35.0355 59.9008L35.0355 60.1508L35.0356 60.1508L35.0355 59.9008ZM11.8977 36.7629L12.1477 36.7629L12.1477 36.7629L11.8977 36.7629ZM12.4608 31.6753L12.6604 31.5247L12.3351 31.0936L12.2169 31.6206L12.4608 31.6753ZM20.7467 41.5904L20.9356 41.4265L20.9309 41.4214L20.7467 41.5904ZM21.0254 41.8052L21.1357 41.5808L21.1357 41.5808L21.0254 41.8052ZM21.3658 41.8946L21.3801 41.645L21.3801 41.645L21.3658 41.8946ZM22.0157 41.6631L21.8468 41.4788L21.8468 41.4788L22.0157 41.6631ZM22.2228 41.3786L22.4501 41.4827L22.4501 41.4827L22.2228 41.3786ZM22.303 41.0359L22.0531 41.0284L22.0531 41.0284L22.303 41.0359ZM22.2435 40.6891L22.4767 40.5988L22.4767 40.5988L22.2435 40.6891ZM22.0539 40.3926L21.8696 40.5617L21.8742 40.5665L22.0539 40.3926ZM5.49966 17.35L5.2748 17.4592L5.27493 17.4595L5.49966 17.35ZM3.74984 3.80039L3.57383 3.62286L3.5734 3.62328L3.74984 3.80039ZM4.80639 3.07382L4.90919 3.30171L4.9107 3.30101L4.80639 3.07382ZM5.08635 2.87108L4.90304 2.70109L4.90303 2.70109L5.08635 2.87108ZM5.26743 2.57663L5.03301 2.48974L5.03301 2.48974L5.26743 2.57663ZM5.24186 1.89908L5.01466 2.00338L5.01466 2.00339L5.24186 1.89908ZM4.74468 1.43804L4.83158 1.20363L4.83158 1.20363L4.74468 1.43804ZM4.06712 1.46361L4.17017 1.69139L4.17143 1.6908L4.06712 1.46361ZM2.49657 2.54713L2.32022 2.36993L2.3198 2.37035L2.49657 2.54713ZM28.379 35.0449L28.5612 34.8737L28.5579 34.8703L28.379 35.0449ZM32.5037 39.2997L32.6804 39.1229L32.6804 39.1229L32.5037 39.2997ZM27.7638 34.7777L27.7583 35.0277L27.7583 35.0277L27.7638 34.7777ZM27.1374 35.0177L27.3085 35.2L27.3085 35.2L27.1374 35.0177ZM26.8583 35.6276L26.6085 35.6173L26.6085 35.6173L26.8583 35.6276ZM27.0861 36.2585L26.9004 36.4261L26.9041 36.43L27.0861 36.2585ZM31.2488 40.5529L31.4256 40.3762L31.4256 40.3762L31.2488 40.5529ZM52.4465 58.4271L52.5843 58.2185L52.5841 58.2184L52.4465 58.4271ZM65.582 62.3741L65.4052 62.1973L65.4052 62.1973L65.582 62.3741ZM65.2869 55.7333L65.5166 55.6342L65.5129 55.6265L65.2869 55.7333ZM64.7974 55.2823L64.8855 55.0483L64.8855 55.0483L64.7974 55.2823ZM64.132 55.2988L64.0324 55.0695L64.0324 55.0695L64.132 55.2988ZM63.6608 56.4393L63.4283 56.5315L63.4315 56.5388L63.6608 56.4393ZM64.3287 61.1208L64.1529 60.9431L64.1519 60.944L64.3287 61.1208ZM53.4221 56.9485L53.2844 57.1572L53.2845 57.1572L53.4221 56.9485ZM63.2848 51.8688L63.0689 51.9953L63.0746 52.0041L63.2848 51.8688ZM62.9278 51.2723L63.1413 51.142L63.1369 51.1352L62.9278 51.2723ZM63.253 52.8749L63.0517 52.7266L63.0517 52.7266L63.253 52.8749ZM62.99 53.1124L63.1171 53.3277L63.1171 53.3277L62.99 53.1124ZM62.3014 53.2031L62.3684 52.9623L62.3684 52.9623L62.3014 53.2031ZM61.9859 53.0418L62.1418 52.8465L62.1418 52.8465L61.9859 53.0418ZM61.7587 52.7699L61.9788 52.6511L61.9738 52.6426L61.7587 52.7699ZM61.7394 52.7374L61.524 52.8643L61.5242 52.8646L61.7394 52.7374ZM61.7393 52.7372L61.5234 52.8632L61.5239 52.8641L61.7393 52.7372ZM61.7391 52.7368L61.5225 52.8617L61.5231 52.8627L61.7391 52.7368ZM61.7389 52.7365L61.9555 52.6115L61.9536 52.6085L61.7389 52.7365ZM61.7387 52.7362L61.5232 52.8629L61.524 52.8642L61.7387 52.7362ZM61.7385 52.7358L61.954 52.6091L61.9536 52.6085L61.7385 52.7358ZM61.4128 52.1924L61.1946 52.3148L61.1998 52.3234L61.4128 52.1924ZM61.3286 51.5333L61.0868 51.4697L61.0868 51.4697L61.3286 51.5333ZM61.7259 51.0006L61.8557 51.2143L61.8557 51.2143L61.7259 51.0006ZM62.3818 50.8936L62.3267 51.1375L62.3267 51.1375L62.3818 50.8936ZM53.8614 50.2253L53.6584 50.0793L53.6567 50.0818L53.8614 50.2253ZM53.7027 50.7409L53.9528 50.7404L53.9527 50.7373L53.7027 50.7409ZM58.1875 36.7614L57.9375 36.7614L57.9375 36.7619L58.1875 36.7614ZM57.5815 31.4802L57.336 31.5282L57.338 31.5369L57.5815 31.4802ZM58.9062 30.5487L59.0342 30.3339L59.0342 30.3339L58.9062 30.5487ZM59.3075 31.0773L59.5512 31.0205L59.5488 31.0116L59.3075 31.0773ZM59.9596 36.7614L59.7096 36.7613L59.7096 36.762L59.9596 36.7614ZM55.3098 51.2565L55.1067 51.1106L55.1067 51.1106L55.3098 51.2565ZM54.8674 51.5812L54.7891 51.3438L54.7891 51.3438L54.8674 51.5812ZM53.8736 51.2624L53.6718 51.4099L53.6718 51.4099L53.8736 51.2624ZM55.2655 25.5105L55.0471 25.6323L55.0472 25.6323L55.2655 25.5105ZM46.7687 16.8193L46.8954 16.6038L46.8954 16.6038L46.7687 16.8193ZM35.0419 13.6235L35.041 13.8735L35.0417 13.8735L35.0419 13.6235ZM20.8673 18.4716L21.0203 18.6693L21.021 18.6687L20.8673 18.4716ZM20.5579 18.6259L20.6237 18.8671L20.6237 18.8671L20.5579 18.6259ZM20.2131 18.6501L20.1816 18.8981L20.1816 18.8981L20.2131 18.6501ZM19.6243 18.3138L19.8219 18.1607L19.8219 18.1607L19.6243 18.3138ZM19.47 18.0044L19.2288 18.0702L19.2288 18.0703L19.47 18.0044ZM19.4458 17.6596L19.6938 17.6911L19.6938 17.6911L19.4458 17.6596ZM19.5554 17.3318L19.3383 17.2077L19.3383 17.2077L19.5554 17.3318ZM19.7821 17.0708L19.9352 17.2685L19.9359 17.2679L19.7821 17.0708ZM35.0419 11.8515L35.041 12.1015L35.0417 12.1015L35.0419 11.8515ZM47.6655 15.2918L47.7922 15.0763L47.7922 15.0763L47.6655 15.2918ZM56.8122 24.6475L56.5939 24.7693L56.5939 24.7693L56.8122 24.6475ZM56.8908 25.3208L57.1313 25.389L57.1313 25.389L56.8908 25.3208ZM56.7335 25.6284L56.5374 25.4733L56.5374 25.4733L56.7335 25.6284ZM56.4704 25.8524L56.5922 26.0707L56.5922 26.0707L56.4704 25.8524ZM55.7971 25.931L55.7289 26.1715L55.7289 26.1715L55.7971 25.931ZM15.8964 6.71208L16.1257 6.61246L16.1257 6.61246L15.8964 6.71208ZM15.9081 7.39064L16.1402 7.4836L16.1407 7.48231L15.9081 7.39064ZM15.4084 6.24049L15.3165 6.47298L15.3167 6.47306L15.4084 6.24049ZM9.42919 6.21986L9.60564 6.39697L9.60609 6.39652L9.42919 6.21986ZM11.3361 16.0445L11.5535 15.9212L11.5535 15.9211L11.3361 16.0445ZM23.1564 31.9309L23.3494 31.7717L23.3443 31.766L23.1564 31.9309ZM24.6389 31.7525L24.4138 31.6437L24.4138 31.6437L24.6389 31.7525ZM24.6735 31.0622L24.4386 31.148L24.4386 31.148L24.6735 31.0622ZM24.489 30.7617L24.3011 30.9267L24.3062 30.9322L24.489 30.7617ZM10.6872 7.47313L10.8636 7.65029L10.8645 7.64936L10.6872 7.47313ZM14.7627 7.88877L14.6708 8.12128L14.6725 8.12191L14.7627 7.88877ZM15.4377 7.87497L15.5374 8.10423L15.5374 8.10423L15.4377 7.87497ZM18.8827 9.45146L18.6327 9.44864L18.6327 9.45133L18.8827 9.45146ZM18.998 9.88914L18.7805 10.0124L18.7805 10.0124L18.998 9.88914ZM19.016 8.99774L19.2278 9.13059L19.2307 9.12575L19.016 8.99774ZM19.2477 8.74099L19.397 8.94151L19.397 8.94151L19.2477 8.74099ZM19.5601 8.59261L19.6212 8.83504L19.6212 8.83504L19.5601 8.59261ZM19.9055 8.57525L19.942 8.32793L19.942 8.32793L19.9055 8.57525ZM20.2312 8.69156L20.1027 8.90604L20.1035 8.90652L20.2312 8.69156ZM20.2729 8.71632L20.1452 8.93128L20.1452 8.93129L20.2729 8.71632ZM20.7166 8.98505L20.8521 8.77493L20.8499 8.77353L20.7166 8.98505ZM20.9922 10.1937L20.779 10.0631L20.779 10.0631L20.9922 10.1937ZM20.4529 10.5902L20.3918 10.3478L20.3918 10.3478L20.4529 10.5902ZM19.7902 10.4969L19.6599 10.7104L19.6645 10.713L19.7902 10.4969ZM19.3142 10.2129L19.1859 10.4275L19.1888 10.4292L19.3142 10.2129ZM61.7303 46.6748L61.5213 46.812L61.5222 46.8133L61.7303 46.6748ZM61.5843 46.1877L61.3343 46.1874L61.3343 46.1881L61.5843 46.1877ZM63.2453 49.0544L63.032 49.1851L63.0372 49.1929L63.2453 49.0544ZM64.4463 49.3195L64.3158 49.1062L64.3158 49.1063L64.4463 49.3195ZM64.8415 48.7871L64.5997 48.724L64.5997 48.724L64.8415 48.7871ZM64.7571 48.1295L64.9754 48.0072L64.97 47.9984L64.7571 48.1295ZM63.2104 45.6991L63.4191 45.5615L63.4188 45.561L63.2104 45.6991ZM62.7726 45.3549L62.6876 45.59L62.6876 45.59L62.7726 45.3549ZM61.7599 45.6592L61.9604 45.8086L61.9604 45.8086L61.7599 45.6592ZM27.3176 45.8498L27.1414 46.0272L27.2145 46.0998L27.3176 46.0998L27.3176 45.8498ZM26.8512 45.3865L26.6683 45.5572L26.675 45.5639L26.8512 45.3865ZM27.3223 45.8498L27.4981 45.672L27.425 45.5998L27.3223 45.5998L27.3223 45.8498ZM27.5853 46.4745L27.8353 46.4731L27.8353 46.4731L27.5853 46.4745ZM26.7047 47.3652L26.7033 47.1152L26.7033 47.1152L26.7047 47.3652ZM26.077 47.1094L26.2527 46.9316L26.252 46.9308L26.077 47.1094ZM25.6011 46.643L25.7761 46.4644L25.7707 46.4593L25.6011 46.643ZM25.3942 46.3556L25.1662 46.4583L25.1662 46.4583L25.3942 46.3556ZM25.3162 46.0103L25.5662 46.005L25.5662 46.005L25.3162 46.0103ZM25.3796 45.6619L25.1475 45.569L25.1475 45.569L25.3796 45.6619ZM25.5742 45.3661L25.3969 45.1898L25.3969 45.1898L25.5742 45.3661ZM25.869 45.17L25.7749 44.9384L25.7749 44.9384L25.869 45.17ZM26.5628 45.1811L26.4613 45.4096L26.4613 45.4096L26.5628 45.1811ZM8.59791 1.88724L8.84791 1.88655L8.84788 1.87656L8.84705 1.8666L8.59791 1.88724ZM8.80979 2.4606L8.61942 2.62264L8.61942 2.62264L8.80979 2.4606ZM8.59791 1.73812L8.35138 1.69658L8.34963 1.70697L8.34876 1.71747L8.59791 1.73812ZM8.72129 1.41423L8.50962 1.28122L8.50962 1.28122L8.72129 1.41423ZM8.95958 1.16255L9.10396 1.36664L9.10396 1.36664L8.95958 1.16255ZM9.27625 1.02165L9.3312 1.26553L9.27625 1.02165ZM9.62273 1.01313L9.57983 1.25943L9.58225 1.25983L9.62273 1.01313ZM26.7179 9.0039L26.8651 8.8016L26.8572 8.79628L26.7179 9.0039ZM27.0693 9.56601L26.8232 9.60969L26.8232 9.6097L27.0693 9.56601ZM26.9328 10.2147L26.7251 10.0755L26.7251 10.0755L26.9328 10.2147ZM26.3847 10.5875L26.4378 10.8318L26.4378 10.8318L26.3847 10.5875ZM25.7312 10.4761L25.5916 10.6838L25.6001 10.689L25.7312 10.4761ZM9.34194 2.76136L9.30131 3.00804L9.30143 3.00805L9.34194 2.76136ZM11.3117 29.69C8.33694 25.5833 5.8942 21.6203 4.13799 18.0147L3.68848 18.2336C5.46045 21.8716 7.91973 25.8596 10.9067 29.9833L11.3117 29.69ZM10.3804 36.7613C10.38 34.442 10.7062 32.1342 11.3494 29.906L10.869 29.7673C10.2128 32.0407 9.87995 34.3952 9.8804 36.7614L10.3804 36.7613ZM35.0371 61.418C21.4431 61.418 10.3804 50.3584 10.3804 36.7613L9.8804 36.7613C9.8804 50.6346 21.167 61.918 35.0371 61.918L35.0371 61.418ZM41.7902 60.4757C39.5937 61.1011 37.3209 61.4182 35.0371 61.418L35.0371 61.918C37.3672 61.9182 39.6861 61.5946 41.9271 60.9566L41.7902 60.4757ZM41.8291 60.4602C41.8151 60.4669 41.8006 60.4725 41.7857 60.4771L41.9316 60.9553C41.97 60.9436 42.0075 60.9291 42.0437 60.9118L41.8291 60.4602ZM69.0856 69.1203C67.1361 71.0698 63.6011 71.2598 58.8798 69.7471C54.1803 68.2414 48.4019 65.0762 42.0834 60.4838L41.7894 60.8883C48.1305 65.497 53.9575 68.695 58.7273 70.2233C63.4754 71.7446 67.2735 71.6395 69.4392 69.4739L69.0856 69.1203ZM67.0287 52.6435C69.1153 56.6807 70.3212 60.1251 70.6545 62.9041C70.9877 65.6823 70.4462 67.7597 69.0856 69.1203L69.4392 69.4739C70.9484 67.9646 71.4944 65.708 71.151 62.8445C70.8076 59.9819 69.5729 56.4769 67.4729 52.4139L67.0287 52.6435ZM66.6572 52.3294C66.8177 52.3807 66.9514 52.4936 67.0287 52.6434L67.473 52.414C67.3349 52.1464 67.0961 51.9446 66.8092 51.8531L66.6572 52.3294ZM66.1725 52.3701C66.3223 52.2928 66.4966 52.2782 66.6572 52.3294L66.8092 51.8531C66.5223 51.7615 66.2108 51.7877 65.9432 51.9258L66.1725 52.3701ZM65.8586 52.7416C65.9098 52.581 66.0227 52.4474 66.1725 52.3701L65.9432 51.9258C65.6756 52.0639 65.4738 52.3027 65.3822 52.5896L65.8586 52.7416ZM65.8993 53.2263C65.822 53.0765 65.8073 52.9022 65.8586 52.7416L65.3822 52.5896C65.2907 52.8765 65.3168 53.188 65.4549 53.4556L65.8993 53.2263ZM68.186 68.2205C69.3748 67.0309 69.7013 65.0358 69.2995 62.5028C68.8959 59.9588 67.7491 56.8082 65.8992 53.2262L65.455 53.4557C67.2919 57.0126 68.4137 60.11 68.8057 62.5811C69.1994 65.0632 68.8486 66.8501 67.8323 67.8671L68.186 68.2205ZM54.7742 66.7181C57.9495 68.2277 60.754 69.1321 63.03 69.401C65.2974 69.6689 67.0953 69.3112 68.1859 68.2206L67.8323 67.867C66.9034 68.796 65.2993 69.1656 63.0886 68.9045C60.8866 68.6443 58.1371 67.7632 54.9889 66.2665L54.7742 66.7181ZM32.3079 50.895C40.1413 57.9341 48.122 63.5633 54.7744 66.7182L54.9887 66.2664C48.3945 63.1391 40.454 57.5429 32.6421 50.5231L32.3079 50.895ZM32.0936 50.7668C32.1725 50.7949 32.2452 50.8383 32.3074 50.8946L32.6427 50.5236C32.5317 50.4234 32.4022 50.3459 32.2613 50.2958L32.0936 50.7668ZM31.8471 50.7306C31.9308 50.7264 32.0146 50.7387 32.0936 50.7668L32.2613 50.2958C32.1205 50.2456 31.9712 50.2237 31.8218 50.2312L31.8471 50.7306ZM31.6055 50.7915C31.6813 50.7555 31.7634 50.7348 31.8471 50.7306L31.8218 50.2312C31.6725 50.2388 31.5262 50.2757 31.3911 50.3398L31.6055 50.7915ZM31.4057 50.9402C31.4619 50.878 31.5298 50.8274 31.6055 50.7915L31.3911 50.3398C31.2561 50.4039 31.1349 50.494 31.0347 50.6049L31.4057 50.9402ZM31.2779 51.154C31.306 51.075 31.3494 51.0024 31.4057 50.9402L31.0347 50.6049C30.9345 50.7158 30.8571 50.8454 30.8069 50.9862L31.2779 51.154ZM31.2417 51.4005C31.2375 51.3167 31.2498 51.233 31.2779 51.154L30.8069 50.9862C30.7567 51.1271 30.7348 51.2764 30.7423 51.4257L31.2417 51.4005ZM31.3026 51.642C31.2666 51.5663 31.2459 51.4842 31.2417 51.4005L30.7423 51.4257C30.7499 51.575 30.7868 51.7214 30.8509 51.8565L31.3026 51.642ZM31.4513 51.8419C31.3891 51.7857 31.3385 51.7178 31.3026 51.642L30.8509 51.8565C30.915 51.9915 31.0051 52.1126 31.116 52.2129L31.4513 51.8419ZM40.2551 59.1415C37.3993 56.9775 34.4491 54.5341 31.4507 51.8414L31.1166 52.2134C34.1243 54.9145 37.0852 57.3668 39.9531 59.54L40.2551 59.1415ZM35.0356 60.1508C36.7588 60.1504 38.4768 59.9605 40.1586 59.5847L40.0496 59.0968C38.4036 59.4646 36.7221 59.6504 35.0355 59.6508L35.0356 60.1508ZM11.6477 36.7629C11.6477 49.6589 22.1379 60.1508 35.0355 60.1508L35.0355 59.6508C22.4141 59.6508 12.1477 49.3828 12.1477 36.7629L11.6477 36.7629ZM12.2169 31.6206C11.8384 33.3085 11.6474 35.0331 11.6477 36.7629L12.1477 36.7629C12.1475 35.0699 12.3343 33.382 12.7048 31.73L12.2169 31.6206ZM20.9309 41.4214C17.9075 38.1239 15.1253 34.7907 12.6604 31.5247L12.2613 31.8259C14.7365 35.1054 17.5289 38.451 20.5624 41.7593L20.9309 41.4214ZM21.1357 41.5808C21.0593 41.5433 20.9913 41.4908 20.9355 41.4265L20.5578 41.7542C20.6574 41.8689 20.7789 41.9625 20.9152 42.0295L21.1357 41.5808ZM21.3801 41.645C21.2952 41.6402 21.2121 41.6183 21.1357 41.5808L20.9152 42.0295C21.0515 42.0965 21.1999 42.1355 21.3515 42.1442L21.3801 41.645ZM21.6303 41.6091C21.5501 41.6377 21.4651 41.6499 21.3801 41.645L21.3515 42.1442C21.5031 42.1529 21.655 42.1311 21.7981 42.0801L21.6303 41.6091ZM21.8468 41.4788C21.784 41.5363 21.7104 41.5806 21.6303 41.6091L21.7981 42.0801C21.9411 42.0292 22.0726 41.95 22.1845 41.8474L21.8468 41.4788ZM21.9955 41.2745C21.9601 41.3518 21.9095 41.4213 21.8468 41.4788L22.1845 41.8474C22.2965 41.7448 22.3868 41.6208 22.4501 41.4827L21.9955 41.2745ZM22.0531 41.0284C22.0505 41.1135 22.0309 41.1971 21.9955 41.2745L22.4501 41.4827C22.5133 41.3446 22.5483 41.1953 22.5529 41.0435L22.0531 41.0284ZM22.0104 40.7793C22.0411 40.8587 22.0556 40.9434 22.0531 41.0284L22.5529 41.0435C22.5574 40.8916 22.5315 40.7404 22.4767 40.5988L22.0104 40.7793ZM21.8742 40.5665C21.9334 40.6276 21.9797 40.7 22.0104 40.7793L22.4767 40.5988C22.4218 40.4572 22.3392 40.3279 22.2336 40.2188L21.8742 40.5665ZM5.27493 17.4595C8.63302 24.3493 14.5287 32.5567 21.8696 40.5616L22.2381 40.2237C14.9174 32.2407 9.0546 24.0731 5.72438 17.2404L5.27493 17.4595ZM3.5734 3.62328C2.45548 4.73691 2.10549 6.58723 2.40767 8.92601C2.71107 11.2742 3.67799 14.1732 5.2748 17.4592L5.72451 17.2407C4.14056 13.9811 3.19744 11.1365 2.90355 8.86194C2.60844 6.5779 2.97392 4.92621 3.92628 3.97751L3.5734 3.62328ZM4.70359 2.84593C4.28363 3.03536 3.901 3.29849 3.57383 3.62286L3.92585 3.97793C4.21062 3.69561 4.54365 3.46658 4.90918 3.3017L4.70359 2.84593ZM4.90303 2.70109C4.84625 2.76232 4.77797 2.81177 4.70208 2.84662L4.9107 3.30101C5.04626 3.23878 5.16824 3.15044 5.26967 3.04106L4.90303 2.70109ZM5.03301 2.48974C5.00399 2.56804 4.95982 2.63985 4.90304 2.70109L5.26966 3.04107C5.37109 2.93169 5.44999 2.8034 5.50184 2.66353L5.03301 2.48974ZM5.01466 2.00339C5.08503 2.15666 5.09163 2.3316 5.03301 2.48974L5.50184 2.66353C5.60655 2.38105 5.59476 2.06855 5.46906 1.79476L5.01466 2.00339ZM4.65779 1.67246C4.81592 1.73108 4.94429 1.85012 5.01466 2.00338L5.46906 1.79477C5.34336 1.52098 5.11405 1.30834 4.83158 1.20363L4.65779 1.67246ZM4.17143 1.6908C4.3247 1.62044 4.49964 1.61384 4.65779 1.67246L4.83158 1.20363C4.54909 1.09892 4.23659 1.11071 3.96281 1.23641L4.17143 1.6908ZM2.67293 2.72433C3.10615 2.29317 3.61328 1.9433 4.17016 1.69138L3.96408 1.23583C3.35266 1.51242 2.79587 1.89655 2.32022 2.36993L2.67293 2.72433ZM1.01738 7.41424C1.01738 5.38545 1.57782 3.81943 2.67335 2.7239L2.3198 2.37035C1.1055 3.58465 0.51738 5.29298 0.517379 7.41424L1.01738 7.41424ZM4.13801 18.0147C2.05066 13.7277 1.01738 10.1589 1.01738 7.41424L0.517379 7.41424C0.517379 10.2697 1.58769 13.919 3.68847 18.2336L4.13801 18.0147ZM28.1968 35.2161C29.5328 36.6378 30.9211 38.0706 32.3269 39.4765L32.6804 39.1229C31.2783 37.7208 29.8936 36.2917 28.5612 34.8737L28.1968 35.2161ZM27.7583 35.0277C27.925 35.0313 28.0836 35.1002 28.2001 35.2195L28.5579 34.8703C28.35 34.6573 28.0668 34.5343 27.7692 34.5278L27.7583 35.0277ZM27.3085 35.2C27.4301 35.0859 27.5916 35.024 27.7583 35.0277L27.7692 34.5278C27.4716 34.5213 27.1834 34.6317 26.9663 34.8354L27.3085 35.2ZM27.1081 35.638C27.115 35.4714 27.187 35.3141 27.3085 35.2L26.9663 34.8354C26.7493 35.0392 26.6208 35.3199 26.6085 35.6173L27.1081 35.638ZM27.2716 36.091C27.1599 35.9672 27.1012 35.8046 27.1081 35.638L26.6085 35.6173C26.5962 35.9147 26.701 36.2051 26.9005 36.426L27.2716 36.091ZM31.4256 40.3762C30.0109 38.9615 28.6119 37.5133 27.268 36.0871L26.9041 36.43C28.2508 37.8593 29.6534 39.311 31.072 40.7297L31.4256 40.3762ZM52.5841 58.2184C46.3059 54.0772 38.7915 47.7421 31.4256 40.3762L31.072 40.7297C38.4535 48.1111 45.9941 54.4705 52.3088 58.6358L52.5841 58.2184ZM65.4052 62.1973C64.5645 63.038 63.1103 63.2108 60.9369 62.558C58.7762 61.9091 55.9878 60.4664 52.5843 58.2185L52.3087 58.6357C55.7267 60.8931 58.563 62.3671 60.7931 63.0369C63.0105 63.7028 64.7132 63.5964 65.7588 62.5508L65.4052 62.1973ZM65.0574 55.8324C65.7547 57.4475 66.1191 58.7724 66.1669 59.8306C66.2144 60.8829 65.9493 61.6532 65.4052 62.1973L65.7588 62.5508C66.4283 61.8813 66.7184 60.9589 66.6664 59.8081C66.6147 58.6632 66.2246 57.2745 65.5164 55.6342L65.0574 55.8324ZM64.7094 55.5163C64.8642 55.5745 64.9902 55.6907 65.0609 55.8402L65.5129 55.6265C65.3868 55.3596 65.1618 55.1522 64.8855 55.0483L64.7094 55.5163ZM64.2316 55.5282C64.3832 55.4623 64.5546 55.458 64.7094 55.5163L64.8855 55.0483C64.6091 54.9443 64.3032 54.952 64.0324 55.0695L64.2316 55.5282ZM63.8966 55.8691C63.9597 55.7163 64.0799 55.594 64.2316 55.5282L64.0324 55.0695C63.7616 55.1871 63.5472 55.4054 63.4345 55.6782L63.8966 55.8691ZM63.8932 56.3471C63.8322 56.1934 63.8335 56.022 63.8966 55.8691L63.4345 55.6782C63.3218 55.9511 63.3196 56.2571 63.4285 56.5315L63.8932 56.3471ZM64.5046 61.2985C64.7054 61.0998 64.8178 60.8218 64.8675 60.5056C64.9174 60.1886 64.9077 59.8142 64.8479 59.3971C64.7281 58.5628 64.4019 57.5185 63.8902 56.3397L63.4315 56.5388C63.9335 57.6953 64.2419 58.6943 64.3529 59.4682C64.4085 59.8552 64.4132 60.1762 64.3736 60.4279C64.3339 60.6804 64.2526 60.8444 64.1529 60.9431L64.5046 61.2985ZM53.2845 57.1572C56.6466 59.3748 59.1839 60.6404 60.9963 61.2451C61.9018 61.5473 62.6374 61.6882 63.2106 61.6949C63.7775 61.7015 64.2265 61.5766 64.5055 61.2976L64.1519 60.944C64.0114 61.0846 63.7255 61.2009 63.2164 61.1949C62.7138 61.1891 62.0325 61.0638 61.1545 60.7708C59.3998 60.1853 56.9034 58.9452 53.5598 56.7398L53.2845 57.1572ZM32.3269 39.4765C39.6257 46.7753 47.068 53.0553 53.2844 57.1572L53.5598 56.7399C47.38 52.6622 39.9639 46.4064 32.6804 39.1229L32.3269 39.4765ZM63.5005 51.7424C63.3844 51.5443 63.2647 51.3442 63.1412 51.142L62.7145 51.4026C62.8364 51.6023 62.9546 51.7998 63.0691 51.9952L63.5005 51.7424ZM63.6596 52.1569C63.6338 52.0061 63.5778 51.8621 63.495 51.7335L63.0746 52.0041C63.1209 52.0762 63.1523 52.1568 63.1668 52.2413L63.6596 52.1569ZM63.6452 52.611C63.6805 52.4621 63.6854 52.3077 63.6596 52.1569L63.1668 52.2413C63.1812 52.3258 63.1785 52.4123 63.1587 52.4957L63.6452 52.611ZM63.4542 53.0232C63.545 52.9 63.61 52.7598 63.6452 52.611L63.1587 52.4957C63.139 52.579 63.1026 52.6576 63.0517 52.7266L63.4542 53.0232ZM63.1171 53.3277C63.2488 53.2499 63.3635 53.1463 63.4542 53.0232L63.0517 52.7266C63.0009 52.7955 62.9367 52.8536 62.8629 52.8971L63.1171 53.3277ZM62.6876 53.4758C62.8393 53.4558 62.9853 53.4054 63.1171 53.3277L62.8629 52.8971C62.7891 52.9407 62.7072 52.9689 62.6223 52.9801L62.6876 53.4758ZM62.2344 53.444C62.3818 53.485 62.5359 53.4958 62.6876 53.4758L62.6223 52.9801C62.5373 52.9913 62.451 52.9852 62.3684 52.9623L62.2344 53.444ZM61.8299 53.2372C61.9495 53.3327 62.087 53.403 62.2344 53.444L62.3684 52.9623C62.2859 52.9393 62.2088 52.8999 62.1418 52.8465L61.8299 53.2372ZM61.5386 52.8886C61.6113 53.0232 61.7103 53.1418 61.8299 53.2372L62.1418 52.8465C62.0749 52.793 62.0194 52.7266 61.9787 52.6512L61.5386 52.8886ZM61.5242 52.8646L61.5435 52.8972L61.9738 52.6426L61.9546 52.6101L61.5242 52.8646ZM61.5239 52.8641L61.524 52.8643L61.9548 52.6104L61.9547 52.6103L61.5239 52.8641ZM61.5231 52.8627L61.5234 52.8632L61.9553 52.6112L61.955 52.6108L61.5231 52.8627ZM61.5224 52.8614L61.5225 52.8617L61.9556 52.6118L61.9554 52.6116L61.5224 52.8614ZM61.524 52.8642L61.5242 52.8645L61.9536 52.6085L61.9535 52.6082L61.524 52.8642ZM61.523 52.8625L61.5232 52.8629L61.9542 52.6095L61.954 52.6091L61.523 52.8625ZM61.1998 52.3234C61.3104 52.5033 61.417 52.6834 61.5233 52.8631L61.9536 52.6085C61.8477 52.4294 61.739 52.2456 61.6258 52.0615L61.1998 52.3234ZM61.0868 51.4697C61.0119 51.7548 61.0506 52.0577 61.1948 52.3147L61.6309 52.0701C61.5501 51.9262 61.5284 51.7565 61.5704 51.5968L61.0868 51.4697ZM61.5962 50.787C61.3443 50.9399 61.1617 51.1847 61.0868 51.4697L61.5704 51.5968C61.6123 51.4371 61.7146 51.3 61.8557 51.2143L61.5962 50.787ZM62.4369 50.6498C62.1495 50.5848 61.848 50.634 61.5962 50.787L61.8557 51.2143C61.9968 51.1286 62.1656 51.1011 62.3267 51.1375L62.4369 50.6498ZM63.1369 51.1352C62.9753 50.8888 62.7243 50.7147 62.4369 50.6498L62.3267 51.1375C62.4877 51.1739 62.6283 51.2714 62.7188 51.4094L63.1369 51.1352ZM53.6567 50.0818C53.5207 50.2757 53.4493 50.5077 53.4528 50.7445L53.9527 50.7373C53.9508 50.6056 53.9905 50.4767 54.0661 50.3689L53.6567 50.0818ZM57.9375 36.7619C57.9461 41.5404 56.4489 46.2002 53.6584 50.0793L54.0643 50.3713C56.9161 46.4068 58.4463 41.6446 58.4375 36.761L57.9375 36.7619ZM57.338 31.5369C57.7368 33.2498 57.9379 35.0027 57.9375 36.7614L58.4375 36.7615C58.4379 34.9646 58.2324 33.1736 57.825 31.4236L57.338 31.5369ZM57.4975 30.6927C57.3376 30.9398 57.2797 31.2393 57.3362 31.5282L57.8269 31.4323C57.7953 31.2705 57.8277 31.1028 57.9172 30.9643L57.4975 30.6927ZM58.1934 30.2032C57.9068 30.2702 57.6573 30.4456 57.4975 30.6927L57.9172 30.9643C58.0068 30.8259 58.1466 30.7276 58.3071 30.6901L58.1934 30.2032ZM59.0342 30.3339C58.7814 30.1832 58.4801 30.1363 58.1934 30.2032L58.3071 30.6901C58.4677 30.6527 58.6365 30.6789 58.7781 30.7634L59.0342 30.3339ZM59.5488 31.0116C59.4714 30.7276 59.287 30.4847 59.0342 30.3339L58.7781 30.7634C58.9197 30.8478 59.023 30.9839 59.0663 31.143L59.5488 31.0116ZM60.2096 36.7615C60.2105 34.829 59.9896 32.9027 59.551 31.0206L59.0641 31.134C59.4939 32.9789 59.7105 34.867 59.7096 36.7613L60.2096 36.7615ZM55.5128 51.4024C58.5778 47.1365 60.2211 42.0136 60.2096 36.7609L59.7096 36.762C59.7209 41.9096 58.1104 46.9301 55.1067 51.1106L55.5128 51.4024ZM54.9457 51.8187C55.174 51.7433 55.3726 51.5976 55.5128 51.4023L55.1067 51.1106C55.0282 51.22 54.917 51.3016 54.7891 51.3438L54.9457 51.8187ZM54.2423 51.8216C54.4712 51.895 54.7175 51.894 54.9457 51.8187L54.7891 51.3438C54.6612 51.386 54.5232 51.3866 54.395 51.3455L54.2423 51.8216ZM53.6718 51.4099C53.8136 51.604 54.0134 51.7481 54.2423 51.8216L54.395 51.3455C54.2668 51.3043 54.1549 51.2236 54.0754 51.1149L53.6718 51.4099ZM53.4527 50.7414C53.4532 50.9818 53.5299 51.2159 53.6718 51.4099L54.0754 51.1149C53.996 51.0062 53.953 50.8751 53.9527 50.7404L53.4527 50.7414ZM55.0472 25.6323C55.1198 25.7626 55.2174 25.8772 55.3344 25.9697L55.6446 25.5776C55.5791 25.5258 55.5245 25.4616 55.4838 25.3887L55.0472 25.6323ZM46.642 17.0349C50.1587 19.1019 53.0602 22.0698 55.0471 25.6323L55.4838 25.3888C53.4535 21.7485 50.4888 18.7159 46.8954 16.6038L46.642 17.0349ZM35.0417 13.8735C39.1208 13.8765 43.1253 14.9678 46.642 17.0349L46.8954 16.6038C43.302 14.4917 39.2102 13.3766 35.042 13.3735L35.0417 13.8735ZM21.021 18.6687C25.0252 15.5449 29.9625 13.8562 35.041 13.8735L35.0427 13.3735C29.8521 13.3558 24.806 15.0818 20.7135 18.2745L21.021 18.6687ZM20.6237 18.8671C20.7676 18.8278 20.9024 18.7606 21.0203 18.6693L20.7142 18.274C20.6481 18.3251 20.5727 18.3628 20.4921 18.3847L20.6237 18.8671ZM20.1816 18.8981C20.3296 18.9169 20.4798 18.9064 20.6237 18.8671L20.4921 18.3847C20.4115 18.4067 20.3274 18.4126 20.2446 18.4021L20.1816 18.8981ZM19.7612 18.7576C19.8908 18.8316 20.0336 18.8793 20.1816 18.8981L20.2446 18.4021C20.1617 18.3916 20.0818 18.3649 20.0092 18.3234L19.7612 18.7576ZM19.4267 18.4669C19.518 18.5848 19.6317 18.6836 19.7612 18.7576L20.0092 18.3234C19.9367 18.282 19.8731 18.2267 19.8219 18.1607L19.4267 18.4669ZM19.2288 18.0703C19.2681 18.2142 19.3353 18.3489 19.4267 18.4669L19.8219 18.1607C19.7708 18.0946 19.7331 18.0192 19.7112 17.9386L19.2288 18.0703ZM19.1978 17.6281C19.179 17.7761 19.1895 17.9263 19.2288 18.0702L19.7112 17.9386C19.6892 17.8581 19.6833 17.7739 19.6938 17.6911L19.1978 17.6281ZM19.3383 17.2077C19.2643 17.3373 19.2166 17.4801 19.1978 17.6281L19.6938 17.6911C19.7043 17.6082 19.7311 17.5283 19.7725 17.4558L19.3383 17.2077ZM19.629 16.8732C19.5111 16.9645 19.4123 17.0782 19.3383 17.2077L19.7725 17.4558C19.8139 17.3832 19.8692 17.3196 19.9352 17.2684L19.629 16.8732ZM35.0427 11.6015C29.459 11.5823 24.0307 13.4389 19.6284 16.8737L19.9359 17.2679C24.2499 13.9021 29.5693 12.0827 35.041 12.1015L35.0427 11.6015ZM47.7922 15.0763C43.9269 12.8044 39.5255 11.6049 35.0421 11.6015L35.0417 12.1015C39.4362 12.1048 43.7503 13.2806 47.5388 15.5074L47.7922 15.0763ZM57.0306 24.5257C54.8465 20.6102 51.6574 17.3482 47.7922 15.0763L47.5388 15.5074C51.3274 17.7342 54.4532 20.9314 56.5939 24.7693L57.0306 24.5257ZM57.1313 25.389C57.2135 25.0993 57.1773 24.7887 57.0305 24.5257L56.5939 24.7693C56.676 24.9165 56.6963 25.0904 56.6503 25.2525L57.1313 25.389ZM56.9295 25.7835C57.0221 25.6665 57.0906 25.5325 57.1313 25.389L56.6503 25.2525C56.6275 25.3328 56.5892 25.4079 56.5374 25.4733L56.9295 25.7835ZM56.5922 26.0707C56.7224 25.9981 56.837 25.9005 56.9295 25.7835L56.5374 25.4733C56.4856 25.5388 56.4214 25.5934 56.3485 25.6341L56.5922 26.0707ZM56.1705 26.207C56.3187 26.1897 56.4619 26.1434 56.5922 26.0707L56.3485 25.6341C56.2757 25.6748 56.1955 25.7007 56.1126 25.7104L56.1705 26.207ZM55.7289 26.1715C55.8723 26.2122 56.0224 26.2243 56.1705 26.207L56.1126 25.7104C56.0296 25.72 55.9456 25.7133 55.8653 25.6905L55.7289 26.1715ZM55.3344 25.9697C55.4514 26.0622 55.5854 26.1308 55.7289 26.1715L55.8653 25.6905C55.785 25.6677 55.71 25.6293 55.6446 25.5776L55.3344 25.9697ZM15.6671 6.8117C15.7344 6.96659 15.7374 7.14186 15.6755 7.29897L16.1407 7.48231C16.2512 7.20184 16.2458 6.88896 16.1257 6.61246L15.6671 6.8117ZM15.3167 6.47306C15.4738 6.53501 15.5998 6.65682 15.6671 6.81171L16.1257 6.61246C16.0056 6.33596 15.7805 6.11851 15.5001 6.00792L15.3167 6.47306ZM9.60609 6.39652C10.1132 5.88867 10.8146 5.62369 11.7564 5.62708C12.7043 5.63049 13.8838 5.90665 15.3165 6.47298L15.5003 6.00799C14.0394 5.43052 12.794 5.13081 11.7582 5.12708C10.7161 5.12333 9.87468 5.41995 9.25229 6.04321L9.60609 6.39652ZM8.83363 8.54238C8.83363 7.60518 9.09978 6.90093 9.60564 6.39697L9.25275 6.04276C8.63119 6.66198 8.33363 7.50607 8.33363 8.54238L8.83363 8.54238ZM11.5535 15.9211C9.719 12.6894 8.83363 10.2525 8.83363 8.54238L8.33363 8.54238C8.33363 10.3921 9.27899 12.9271 11.1186 16.1679L11.5535 15.9211ZM23.3443 31.766C18.1579 25.857 14.0802 20.3776 11.5535 15.9212L11.1186 16.1678C13.6685 20.6652 17.7702 26.1733 22.9685 32.0958L23.3443 31.766ZM23.546 31.9312C23.4704 31.8918 23.4035 31.8376 23.3493 31.7718L22.9636 32.09C23.0604 32.2074 23.1799 32.3041 23.3148 32.3745L23.546 31.9312ZM23.7893 32.0013C23.7044 31.9945 23.6216 31.9706 23.546 31.9312L23.3148 32.3745C23.4498 32.4449 23.5975 32.4875 23.7492 32.4997L23.7893 32.0013ZM24.0408 31.9711C23.9598 31.9979 23.8743 32.0081 23.7893 32.0013L23.7492 32.4997C23.9009 32.5119 24.0535 32.4935 24.198 32.4457L24.0408 31.9711ZM24.2605 31.8452C24.1964 31.9015 24.1217 31.9442 24.0408 31.9711L24.198 32.4457C24.3425 32.3978 24.4758 32.3215 24.5902 32.2211L24.2605 31.8452ZM24.4138 31.6437C24.3767 31.7205 24.3246 31.789 24.2605 31.8452L24.5902 32.2211C24.7047 32.1207 24.7977 31.9984 24.864 31.8613L24.4138 31.6437ZM24.4765 31.3984C24.4722 31.4835 24.4509 31.567 24.4138 31.6437L24.864 31.8614C24.9302 31.7243 24.9683 31.5754 24.9759 31.4234L24.4765 31.3984ZM24.4386 31.148C24.4679 31.2281 24.4808 31.3132 24.4765 31.3984L24.9759 31.4234C24.9835 31.2714 24.9605 31.1194 24.9083 30.9764L24.4386 31.148ZM24.3062 30.9322C24.3643 30.9946 24.4094 31.0679 24.4386 31.148L24.9083 30.9764C24.8561 30.8335 24.7757 30.7025 24.6718 30.5912L24.3062 30.9322ZM10.5108 7.29597C10.2677 7.53808 10.1468 7.89478 10.1176 8.31861C10.0882 8.7445 10.149 9.26566 10.2977 9.87365C10.5953 11.0904 11.256 12.6996 12.3308 14.6769C14.4818 18.6342 18.3129 24.1052 24.3011 30.9266L24.6769 30.5968C18.7036 23.7924 14.8976 18.3521 12.7701 14.4381C11.7056 12.4797 11.0667 10.9131 10.7834 9.75487C10.6417 9.17535 10.5918 8.70918 10.6164 8.353C10.6411 7.99476 10.7387 7.77465 10.8636 7.65029L10.5108 7.29597ZM14.8546 7.65627C11.9376 6.5035 10.8836 6.92088 10.5099 7.2969L10.8645 7.64936C11.0048 7.50821 11.7752 6.97692 14.6708 8.12127L14.8546 7.65627ZM15.338 7.64571C15.1839 7.71272 15.0097 7.71628 14.853 7.65563L14.6725 8.12191C14.9519 8.23007 15.2627 8.22372 15.5374 8.10423L15.338 7.64571ZM15.676 7.29768C15.6136 7.45365 15.4921 7.5787 15.338 7.64571L15.5374 8.10423C15.8122 7.98473 16.0288 7.76173 16.1402 7.4836L15.676 7.29768ZM18.6327 9.45133C18.6326 9.64798 18.6835 9.8413 18.7805 10.0124L19.2155 9.76589C19.1612 9.67004 19.1327 9.56175 19.1327 9.45159L18.6327 9.45133ZM18.8042 8.86493C18.6944 9.04001 18.6351 9.242 18.6327 9.44864L19.1327 9.45428C19.134 9.33968 19.1669 9.22766 19.2278 9.13056L18.8042 8.86493ZM19.0984 8.54047C18.9786 8.62962 18.8777 8.74152 18.8012 8.86973L19.2307 9.12575C19.2735 9.054 19.33 8.99139 19.397 8.94151L19.0984 8.54047ZM19.499 8.35019C19.3542 8.38666 19.2181 8.45132 19.0984 8.54047L19.397 8.94151C19.464 8.89163 19.5402 8.85544 19.6212 8.83504L19.499 8.35019ZM19.942 8.32793C19.7943 8.30615 19.6438 8.31372 19.499 8.35019L19.6212 8.83504C19.7022 8.81463 19.7864 8.8104 19.869 8.82258L19.942 8.32793ZM20.3596 8.47709C20.2316 8.40039 20.0896 8.3497 19.942 8.32793L19.869 8.82258C19.9517 8.83476 20.0311 8.86313 20.1027 8.90604L20.3596 8.47709ZM20.4005 8.50136L20.3588 8.47661L20.1035 8.90652L20.1452 8.93128L20.4005 8.50136ZM20.8499 8.77353C20.7017 8.68016 20.5473 8.5885 20.4005 8.50136L20.1452 8.93129C20.293 9.01904 20.4417 9.10733 20.5834 9.19657L20.8499 8.77353ZM21.3444 9.47767C21.2784 9.18812 21.1017 8.93589 20.8521 8.77495L20.5811 9.19516C20.7209 9.28531 20.8199 9.4266 20.8569 9.5888L21.3444 9.47767ZM21.2053 10.3243C21.3605 10.0711 21.4104 9.76721 21.3444 9.47767L20.8569 9.5888C20.8939 9.751 20.8659 9.92123 20.779 10.0631L21.2053 10.3243ZM20.5141 10.8326C20.802 10.76 21.0501 10.5775 21.2053 10.3243L20.779 10.0631C20.6921 10.2049 20.5531 10.3071 20.3918 10.3478L20.5141 10.8326ZM19.6645 10.713C19.9212 10.8623 20.2261 10.9053 20.5141 10.8326L20.3918 10.3478C20.2305 10.3885 20.0597 10.3644 19.9159 10.2808L19.6645 10.713ZM19.1888 10.4292C19.3453 10.52 19.5023 10.6142 19.66 10.7103L19.9203 10.2835C19.7607 10.1861 19.6004 10.0899 19.4397 9.99668L19.1888 10.4292ZM18.7805 10.0124C18.8774 10.1835 19.0171 10.3265 19.1859 10.4275L19.4426 9.9984C19.3481 9.94184 19.2698 9.86173 19.2155 9.76588L18.7805 10.0124ZM61.9393 46.5376C61.871 46.4335 61.8345 46.3118 61.8343 46.1874L61.3343 46.1881C61.3346 46.4098 61.3996 46.6266 61.5213 46.8119L61.9393 46.5376ZM63.4584 48.9237C62.9798 48.143 62.4688 47.3327 61.9383 46.5362L61.5222 46.8133C62.0482 47.6032 62.5557 48.4079 63.0321 49.185L63.4584 48.9237ZM63.8463 49.1849C63.6854 49.1494 63.5446 49.053 63.4534 48.9159L63.0372 49.1929C63.2001 49.4376 63.4514 49.6097 63.7385 49.6731L63.8463 49.1849ZM64.3158 49.1063C64.1754 49.1922 64.0071 49.2204 63.8463 49.1849L63.7385 49.6731C64.0255 49.7365 64.326 49.6862 64.5768 49.5328L64.3158 49.1063ZM64.5997 48.724C64.558 48.8833 64.4563 49.0203 64.3158 49.1062L64.5768 49.5328C64.8275 49.3794 65.0091 49.1348 65.0834 48.8503L64.5997 48.724ZM64.539 48.2517C64.6195 48.3954 64.6413 48.5646 64.5997 48.724L65.0834 48.8503C65.1577 48.5659 65.1189 48.2637 64.9752 48.0073L64.539 48.2517ZM63.0017 45.8368C63.5378 46.6497 64.0568 47.4692 64.5443 48.2606L64.97 47.9984C64.4803 47.2034 63.9585 46.3794 63.4191 45.5615L63.0017 45.8368ZM62.6876 45.59C62.8162 45.6365 62.9264 45.7232 63.002 45.8372L63.4188 45.561C63.2839 45.3575 63.0872 45.2028 62.8576 45.1198L62.6876 45.59ZM62.2879 45.5791C62.4188 45.5397 62.559 45.5436 62.6876 45.59L62.8576 45.1198C62.628 45.0368 62.3778 45.0299 62.144 45.1002L62.2879 45.5791ZM61.9604 45.8086C62.0421 45.6989 62.1569 45.6184 62.2879 45.5791L62.144 45.1002C61.9102 45.1705 61.7052 45.3141 61.5594 45.5099L61.9604 45.8086ZM61.8343 46.1881C61.8345 46.0513 61.8787 45.9182 61.9604 45.8086L61.5594 45.5099C61.4135 45.7057 61.3346 45.9433 61.3343 46.1874L61.8343 46.1881ZM27.4937 45.6724L27.0273 45.2092L26.675 45.5639L27.1414 46.0272L27.4937 45.6724ZM27.3223 45.5998L27.3176 45.5998L27.3176 46.0998L27.3223 46.0998L27.3223 45.5998ZM27.8353 46.4731C27.8336 46.1719 27.7123 45.8838 27.4981 45.672L27.1466 46.0276C27.2664 46.1461 27.3343 46.3074 27.3353 46.476L27.8353 46.4731ZM27.5072 47.278C27.719 47.0638 27.837 46.7743 27.8353 46.4731L27.3353 46.476C27.3363 46.6445 27.2702 46.8066 27.1517 46.9265L27.5072 47.278ZM26.7061 47.6152C27.0073 47.6135 27.2955 47.4922 27.5072 47.278L27.1517 46.9265C27.0332 47.0464 26.8719 47.1143 26.7033 47.1152L26.7061 47.6152ZM25.9012 47.2872C26.1154 47.4989 26.4049 47.6169 26.7061 47.6152L26.7033 47.1152C26.5347 47.1162 26.3726 47.0501 26.2527 46.9316L25.9012 47.2872ZM25.4261 46.8215L25.902 47.2879L26.252 46.9308L25.776 46.4644L25.4261 46.8215ZM25.1662 46.4583C25.229 46.5976 25.3192 46.7229 25.4314 46.8266L25.7707 46.4593C25.7078 46.4013 25.6573 46.3311 25.6221 46.253L25.1662 46.4583ZM25.0663 46.0155C25.0695 46.1683 25.1035 46.3189 25.1662 46.4583L25.6221 46.253C25.587 46.1749 25.568 46.0906 25.5662 46.005L25.0663 46.0155ZM25.1475 45.569C25.0907 45.7108 25.063 45.8627 25.0663 46.0155L25.5662 46.005C25.5643 45.9194 25.5798 45.8343 25.6117 45.7549L25.1475 45.569ZM25.3969 45.1898C25.2891 45.2981 25.2043 45.4271 25.1475 45.569L25.6116 45.7549C25.6435 45.6754 25.691 45.6031 25.7514 45.5424L25.3969 45.1898ZM25.7749 44.9384C25.6333 44.9959 25.5047 45.0814 25.3969 45.1898L25.7514 45.5424C25.8118 45.4818 25.8838 45.4339 25.9631 45.4016L25.7749 44.9384ZM26.221 44.8549C26.0682 44.8525 25.9165 44.8809 25.7749 44.9384L25.9631 45.4016C26.0424 45.3694 26.1274 45.3535 26.213 45.3549L26.221 44.8549ZM26.6642 44.9526C26.5246 44.8906 26.3738 44.8574 26.221 44.8549L26.213 45.3549C26.2986 45.3562 26.3831 45.3749 26.4613 45.4096L26.6642 44.9526ZM27.0339 45.216C26.9297 45.1042 26.8039 45.0147 26.6642 44.9526L26.4613 45.4096C26.5395 45.4444 26.61 45.4945 26.6684 45.5571L27.0339 45.216ZM8.34791 1.88794C8.34866 2.15725 8.44486 2.41757 8.61942 2.62264L9.00017 2.29856C8.90228 2.18355 8.84833 2.03757 8.84791 1.88655L8.34791 1.88794ZM8.34876 1.71747C8.34351 1.78084 8.34351 1.84453 8.34876 1.90789L8.84705 1.8666C8.84408 1.83072 8.84408 1.79465 8.84705 1.75877L8.34876 1.71747ZM8.50962 1.28122C8.43002 1.4079 8.37624 1.54905 8.35138 1.69658L8.84443 1.77967C8.85834 1.69711 8.88843 1.61813 8.93297 1.54725L8.50962 1.28122ZM8.8152 0.958455C8.69307 1.04486 8.58921 1.15455 8.50962 1.28122L8.93297 1.54725C8.97751 1.47637 9.03562 1.41499 9.10396 1.36664L8.8152 0.958455ZM9.22129 0.777761C9.07535 0.810645 8.93734 0.872053 8.8152 0.958455L9.10396 1.36664C9.17231 1.31829 9.24953 1.28393 9.3312 1.26553L9.22129 0.777761ZM9.66563 0.766838C9.51825 0.741164 9.36724 0.744876 9.22129 0.777761L9.3312 1.26553C9.41286 1.24713 9.49736 1.24505 9.57983 1.25942L9.66563 0.766838ZM26.8572 8.79628C20.1491 4.29669 14.2025 1.5112 9.66321 0.766428L9.58225 1.25983C14.0158 1.98725 19.8911 4.72566 26.5787 9.21152L26.8572 8.79628ZM27.3155 9.52233C27.2641 9.23293 27.1027 8.97468 26.865 8.80175L26.5708 9.20605C26.704 9.30292 26.7944 9.44758 26.8232 9.60969L27.3155 9.52233ZM27.1405 10.3539C27.3041 10.1098 27.3668 9.81172 27.3155 9.52232L26.8232 9.6097C26.8519 9.77181 26.8168 9.93876 26.7251 10.0755L27.1405 10.3539ZM26.4378 10.8318C26.725 10.7693 26.9768 10.598 27.1405 10.3539L26.7251 10.0755C26.6335 10.2123 26.4924 10.3082 26.3315 10.3432L26.4378 10.8318ZM25.6001 10.689C25.8504 10.8431 26.1506 10.8943 26.4378 10.8318L26.3315 10.3432C26.1706 10.3782 26.0025 10.3495 25.8623 10.2632L25.6001 10.689ZM9.30143 3.00805C13.4219 3.68462 19.2081 6.39401 25.5917 10.6836L25.8706 10.2686C19.4678 5.96615 13.6097 3.20876 9.38244 2.51466L9.30143 3.00805ZM8.61942 2.62264C8.79397 2.82772 9.03558 2.96427 9.30131 3.00804L9.38256 2.51468C9.23354 2.49014 9.09805 2.41356 9.00017 2.29856L8.61942 2.62264Z" fill="white"/>
</svg>
