<svg width="52" height="52" viewBox="0 0 52 52" fill="none" xmlns="http://www.w3.org/2000/svg">
<path fill-rule="evenodd" clip-rule="evenodd" d="M41.3133 6.26106C44.2092 8.51324 46.5735 11.3757 48.238 14.6449C51.0912 20.1903 51.7622 26.6037 50.1188 32.6196C48.4753 38.6356 44.6368 43.817 39.3606 47.1417C39.3256 47.1725 39.2858 47.1974 39.2428 47.2153C34.672 50.0787 29.2951 51.3809 23.9206 50.926C18.5462 50.4711 13.4647 48.2838 9.44012 44.6929C9.38958 44.6635 9.34471 44.6252 9.30762 44.58C6.57566 42.1316 4.41656 39.1114 2.98378 35.7341C1.55101 32.3569 0.879729 28.7055 1.01766 25.0395C1.1556 21.3735 2.09936 17.7829 3.78186 14.5229C5.46436 11.2628 7.84431 8.41345 10.7525 6.1772C13.6608 3.94095 17.0259 2.37275 20.6087 1.58406C24.1915 0.795372 27.9041 0.805559 31.4825 1.6139C35.0609 2.42224 38.4174 4.00888 41.3133 6.26106ZM38.2262 5.3758C34.5226 3.18209 30.2974 2.02411 25.9928 2.02303C21.9177 2.02648 17.9105 3.06764 14.3491 5.04838C10.7878 7.02912 7.78945 9.88418 5.63688 13.3444C12.1148 12.1384 18.7856 12.4746 25.1095 14.3259C32.27 16.377 39.8546 16.4347 47.0455 14.4927C44.9759 10.7183 41.9299 7.56951 38.2262 5.3758ZM18.3519 31.5013C13.2135 30.396 7.85669 30.953 3.05559 33.0918C4.32049 37.1795 6.65322 40.8556 9.81308 43.7409C12.8117 42.6625 16.0358 42.367 19.1804 42.8823C22.3251 43.3975 25.2863 44.7064 27.784 46.6853L31.2486 49.4531C33.7194 48.8998 36.0865 47.9573 38.2613 46.6608L31.6412 39.2408C28.1442 35.317 23.4903 32.6067 18.3519 31.5013ZM19.2881 43.8918C16.4069 43.3721 13.4418 43.5731 10.6572 44.477C14.9615 48.0733 20.3935 50.0415 26.0026 50.0371C27.3363 50.0341 28.6675 49.9208 29.9825 49.6984L27.1706 47.4558C24.8772 45.6359 22.1693 44.4116 19.2881 43.8918ZM39.1129 46.1227L32.3724 38.5881C29.9534 35.8779 26.9894 33.709 23.6744 32.2232C20.3594 30.7374 16.7681 29.9681 13.1354 29.9658C9.57127 29.9622 6.04583 30.7044 2.78568 32.1447C1.45631 27.0854 1.81295 21.7307 3.80151 16.8925C3.8733 16.9388 3.95655 16.9643 4.04197 16.9661C10.7989 16.9659 17.3286 19.4057 22.43 23.8364C27.7377 28.4188 34.5175 30.9377 41.5296 30.9325C44.3029 30.9309 47.0615 30.5293 49.7201 29.74C49.195 33.063 47.9785 36.2387 46.1493 39.0621C44.3227 41.8813 41.9257 44.2865 39.1129 46.1227ZM35.7522 29.3574C40.442 30.3337 45.3032 30.0989 49.8771 28.6751H49.8575C49.9578 27.797 50.0086 26.9139 50.0096 26.03C50.0133 22.3342 49.1564 18.6883 47.5068 15.381C43.9203 16.3995 40.2082 16.9083 36.4799 16.8925C32.541 16.9021 28.6205 16.3552 24.8346 15.2681C18.3791 13.374 11.5564 13.0993 4.96947 14.4682C4.69466 14.9655 4.43947 15.4709 4.20392 15.9846C11.1411 16.0248 17.8346 18.5473 23.0729 23.0954C26.6987 26.226 31.0624 28.3812 35.7522 29.3574ZM20.4474 6.05225C24.9118 4.8137 29.6622 5.10391 33.9427 6.87669C34.0038 6.89996 34.0687 6.91161 34.1341 6.91104C34.248 6.91315 34.3591 6.87557 34.4483 6.80474C34.5375 6.73392 34.5993 6.63427 34.6231 6.52287C34.6469 6.41147 34.6312 6.29526 34.5787 6.19418C34.5262 6.09309 34.4401 6.01342 34.3353 5.96882C31.6899 4.87833 28.8541 4.32452 25.9927 4.33956C24.026 4.34011 22.0683 4.60587 20.1725 5.12965C20.1103 5.14706 20.0522 5.17653 20.0014 5.21641C19.9506 5.25628 19.9082 5.30577 19.8765 5.36205C19.8448 5.41833 19.8245 5.48029 19.8168 5.54441C19.8091 5.60852 19.8141 5.67353 19.8315 5.73572C19.8489 5.79791 19.8783 5.85606 19.9182 5.90686C19.9581 5.95765 20.0076 6.0001 20.0639 6.03177C20.1201 6.06344 20.1821 6.08372 20.2462 6.09144C20.3103 6.09916 20.3753 6.09418 20.4375 6.07678L20.4474 6.05225ZM14.4212 8.75623C14.5158 8.75453 14.6078 8.72556 14.6862 8.6728C15.7724 7.96348 16.9224 7.35723 18.1214 6.86197C18.181 6.83748 18.2352 6.80149 18.2809 6.75605C18.3266 6.71062 18.3629 6.65662 18.3878 6.59715C18.4126 6.53768 18.4255 6.47391 18.4257 6.40946C18.4259 6.34502 18.4134 6.28116 18.3889 6.22155C18.3644 6.16194 18.3284 6.10774 18.283 6.06204C18.2375 6.01633 18.1835 5.98003 18.1241 5.95519C18.0646 5.93036 18.0008 5.91748 17.9364 5.91729C17.8719 5.9171 17.8081 5.92961 17.7485 5.9541C16.487 6.47113 15.2776 7.10705 14.1366 7.85327C14.0282 7.92445 13.9524 8.03563 13.9258 8.16252C13.8991 8.28941 13.9237 8.4217 13.9943 8.53049C14.04 8.60173 14.1033 8.65996 14.1781 8.69951C14.2529 8.73907 14.3366 8.7586 14.4212 8.75623ZM33.6433 25.5149L32.5834 25.2302C32.5204 25.2109 32.4542 25.2045 32.3887 25.2113C32.3232 25.2181 32.2597 25.2381 32.2021 25.27C32.1444 25.3018 32.0938 25.345 32.0532 25.3968C32.0126 25.4487 31.9828 25.5082 31.9657 25.5718C31.9485 25.6353 31.9444 25.7017 31.9534 25.767C31.9625 25.8322 31.9846 25.895 32.0184 25.9515C32.0523 26.008 32.0971 26.0571 32.1503 26.0959C32.2035 26.1347 32.264 26.1624 32.3282 26.1774L33.3833 26.462C33.4255 26.4688 33.4686 26.4688 33.5108 26.462C33.5753 26.4707 33.6408 26.4666 33.7037 26.45C33.7666 26.4334 33.8255 26.4045 33.8773 26.3651C33.929 26.3257 33.9724 26.2765 34.0051 26.2203C34.0378 26.1641 34.0591 26.1019 34.0678 26.0375C34.0765 25.9731 34.0725 25.9075 34.0558 25.8447C34.0392 25.7818 34.0104 25.7228 33.971 25.6711C33.9315 25.6194 33.8823 25.5759 33.8261 25.5432C33.7699 25.5105 33.7078 25.4892 33.6433 25.4805V25.5149ZM47.2762 26.0418C47.3136 26.0944 47.3403 26.1537 47.3548 26.2166C47.3693 26.2794 47.3713 26.3445 47.3607 26.4081C47.3501 26.4717 47.327 26.5326 47.2928 26.5873C47.2586 26.642 47.214 26.6894 47.1615 26.7269C47.109 26.7643 47.0496 26.791 46.9867 26.8055C45.0068 27.2593 42.9819 27.4881 40.9506 27.4876C39.4201 27.4868 37.8922 27.3621 36.3818 27.1147C36.2537 27.093 36.1394 27.0215 36.0639 26.9157C35.9885 26.8099 35.9581 26.6785 35.9794 26.5503C35.9999 26.4223 36.0703 26.3076 36.1751 26.2312C36.2799 26.1549 36.4107 26.1232 36.5388 26.143C39.9344 26.7129 43.4087 26.6129 46.7659 25.8485C46.8287 25.834 46.8938 25.832 46.9574 25.8426C47.021 25.8532 47.0819 25.8763 47.1366 25.9105C47.1913 25.9447 47.2387 25.9893 47.2762 26.0418Z" fill="white"/>
<path d="M48.238 14.6449L47.5697 14.9852L47.5711 14.988L48.238 14.6449ZM41.3133 6.26106L41.7737 5.66903L41.7737 5.66903L41.3133 6.26106ZM50.1188 32.6196L50.8423 32.8173L50.8423 32.8173L50.1188 32.6196ZM39.3606 47.1417L38.9607 46.5072L38.91 46.5391L38.8649 46.5788L39.3606 47.1417ZM39.2428 47.2153L38.954 46.5231L38.897 46.5469L38.8446 46.5797L39.2428 47.2153ZM23.9206 50.926L23.8574 51.6733L23.8574 51.6733L23.9206 50.926ZM9.44012 44.6929L9.93944 44.1333L9.88294 44.0829L9.8175 44.0448L9.44012 44.6929ZM9.30762 44.58L9.8875 44.1044L9.85101 44.0599L9.80818 44.0215L9.30762 44.58ZM2.98378 35.7341L2.29334 36.0271L2.29335 36.0271L2.98378 35.7341ZM1.01766 25.0395L0.268194 25.0113L0.268194 25.0113L1.01766 25.0395ZM3.78186 14.5229L3.11539 14.1789L3.11539 14.1789L3.78186 14.5229ZM10.7525 6.1772L10.2954 5.58264L10.2954 5.58264L10.7525 6.1772ZM20.6087 1.58406L20.4474 0.851596L20.4474 0.851596L20.6087 1.58406ZM31.4825 1.6139L31.3172 2.34547L31.4825 1.6139ZM25.9928 2.02303L25.993 1.27303L25.9922 1.27303L25.9928 2.02303ZM38.2262 5.3758L37.844 6.0211L37.844 6.0211L38.2262 5.3758ZM14.3491 5.04838L13.9846 4.39293L13.9846 4.39293L14.3491 5.04838ZM5.63688 13.3444L5.00005 12.9482L4.10115 14.3932L5.77415 14.0817L5.63688 13.3444ZM25.1095 14.3259L24.8987 15.0457L24.9029 15.0469L25.1095 14.3259ZM47.0455 14.4927L47.2411 15.2168L48.1616 14.9682L47.7032 14.1321L47.0455 14.4927ZM3.05559 33.0918L2.75039 32.4067L2.14232 32.6776L2.3391 33.3135L3.05559 33.0918ZM18.3519 31.5013L18.1941 32.2346L18.1941 32.2346L18.3519 31.5013ZM9.81308 43.7409L9.30736 44.2947L9.64132 44.5997L10.0669 44.4466L9.81308 43.7409ZM19.1804 42.8823L19.0592 43.6224L19.0592 43.6224L19.1804 42.8823ZM27.784 46.6853L28.2521 46.0993L28.2497 46.0974L27.784 46.6853ZM31.2486 49.4531L30.7805 50.0391L31.0615 50.2635L31.4125 50.185L31.2486 49.4531ZM38.2613 46.6608L38.6453 47.305L39.426 46.8396L38.8209 46.1615L38.2613 46.6608ZM31.6412 39.2408L31.0813 39.7398L31.0816 39.7401L31.6412 39.2408ZM10.6572 44.477L10.4256 43.7636L9.13499 44.1825L10.1763 45.0525L10.6572 44.477ZM26.0026 50.0371L26.0032 50.7871L26.0043 50.7871L26.0026 50.0371ZM29.9825 49.6984L30.1075 50.438L31.7618 50.1582L30.4502 49.1121L29.9825 49.6984ZM27.1706 47.4558L27.6382 46.8694L27.6368 46.8683L27.1706 47.4558ZM32.3724 38.5881L31.8129 39.0875L31.8134 39.0881L32.3724 38.5881ZM39.1129 46.1227L38.5539 46.6227L38.9834 47.1028L39.5228 46.7507L39.1129 46.1227ZM13.1354 29.9658L13.1346 30.7158L13.1349 30.7158L13.1354 29.9658ZM2.78568 32.1447L2.0603 32.3353L2.28391 33.1863L3.08876 32.8307L2.78568 32.1447ZM3.80151 16.8925L4.20821 16.2623L3.4506 15.7733L3.10782 16.6073L3.80151 16.8925ZM4.04197 16.9661L4.02623 17.7159L4.03411 17.7161L4.04199 17.7161L4.04197 16.9661ZM22.43 23.8364L21.9382 24.4027L21.9399 24.4041L22.43 23.8364ZM41.5296 30.9325L41.5292 30.1825L41.5291 30.1825L41.5296 30.9325ZM49.7201 29.74L50.4609 29.8571L50.6465 28.6827L49.5066 29.0211L49.7201 29.74ZM46.1493 39.0621L45.5198 38.6543L45.5198 38.6543L46.1493 39.0621ZM49.8771 28.6751L50.1 29.3912L49.8771 27.9251V28.6751ZM35.7522 29.3574L35.9051 28.6232L35.9051 28.6232L35.7522 29.3574ZM49.8575 28.6751L49.1123 28.59L49.017 29.4251H49.8575V28.6751ZM50.0096 26.03L50.7596 26.0309L50.7596 26.0308L50.0096 26.03ZM47.5068 15.381L48.178 15.0462L47.9004 14.4896L47.302 14.6595L47.5068 15.381ZM36.4799 16.8925L36.4831 16.1425L36.4781 16.1425L36.4799 16.8925ZM24.8346 15.2681L24.6235 15.9878L24.6276 15.989L24.8346 15.2681ZM4.96947 14.4682L4.81686 13.7339L4.47964 13.804L4.31304 14.1054L4.96947 14.4682ZM4.20392 15.9846L3.52219 15.672L3.03795 16.7278L4.19957 16.7346L4.20392 15.9846ZM23.0729 23.0954L22.5812 23.6617L22.5827 23.6631L23.0729 23.0954ZM33.9427 6.87669L33.6557 7.56961L33.6657 7.57375L33.6758 7.5776L33.9427 6.87669ZM20.4474 6.05225L20.2469 5.32954L19.8889 5.42884L19.751 5.7737L20.4474 6.05225ZM34.1341 6.91104L34.148 6.16117L34.1378 6.16098L34.1276 6.16107L34.1341 6.91104ZM34.4483 6.80474L34.9146 7.39216L34.9146 7.39216L34.4483 6.80474ZM34.6231 6.52287L35.3566 6.67949L35.3566 6.67949L34.6231 6.52287ZM34.5787 6.19418L35.2442 5.84847L35.2442 5.84845L34.5787 6.19418ZM34.3353 5.96882L34.629 5.27865L34.6211 5.27542L34.3353 5.96882ZM25.9927 4.33956L25.9929 5.08957L25.9967 5.08955L25.9927 4.33956ZM20.1725 5.12965L19.9728 4.40674L19.9704 4.40739L20.1725 5.12965ZM20.0014 5.21641L19.5383 4.62645L19.5383 4.62646L20.0014 5.21641ZM19.8765 5.36205L19.2229 4.99422L19.2229 4.99424L19.8765 5.36205ZM19.8168 5.54441L19.0722 5.45469L19.0722 5.45472L19.8168 5.54441ZM19.8315 5.73572L19.1092 5.93779L19.1092 5.93781L19.8315 5.73572ZM19.9182 5.90686L19.3283 6.36996L19.3283 6.36996L19.9182 5.90686ZM20.0639 6.03177L19.696 6.68538L19.696 6.68538L20.0639 6.03177ZM20.2462 6.09144L20.1565 6.83606L20.1565 6.83606L20.2462 6.09144ZM20.4375 6.07678L20.6396 6.79905L20.9963 6.69924L21.1339 6.35533L20.4375 6.07678ZM14.6862 8.6728L14.2761 8.0448L14.2677 8.05042L14.6862 8.6728ZM14.4212 8.75623L14.4077 8.00631L14.4002 8.00652L14.4212 8.75623ZM18.1214 6.86197L17.8364 6.16823L17.8351 6.16878L18.1214 6.86197ZM18.3878 6.59715L19.0799 6.88618L19.0799 6.88618L18.3878 6.59715ZM18.4257 6.40946L17.6757 6.40726L17.6757 6.40729L18.4257 6.40946ZM18.3889 6.22155L17.6951 6.50654L17.6951 6.50656L18.3889 6.22155ZM18.283 6.06204L17.7511 6.59082L17.7511 6.59082L18.283 6.06204ZM18.1241 5.95519L17.835 6.64726L17.835 6.64727L18.1241 5.95519ZM17.7485 5.9541L18.0329 6.64807L18.0335 6.64784L17.7485 5.9541ZM14.1366 7.85327L13.7261 7.22559L13.7249 7.22639L14.1366 7.85327ZM13.9943 8.53049L14.6257 8.12578L14.6235 8.12237L13.9943 8.53049ZM32.5834 25.2302L32.3635 25.9473L32.3761 25.9512L32.3889 25.9546L32.5834 25.2302ZM33.6433 25.5149L33.4488 26.2392L34.3933 26.4928V25.5149H33.6433ZM31.9657 25.5718L32.6898 25.7669L32.6898 25.7669L31.9657 25.5718ZM31.9534 25.767L31.2106 25.8702L31.2106 25.8702L31.9534 25.767ZM32.0184 25.9515L31.3749 26.3367L31.3749 26.3367L32.0184 25.9515ZM32.3282 26.1774L32.5235 25.4533L32.511 25.4499L32.4983 25.4469L32.3282 26.1774ZM33.3833 26.462L33.1879 27.1861L33.2257 27.1963L33.2643 27.2025L33.3833 26.462ZM33.5108 26.462L33.6112 25.7187L33.5014 25.7039L33.3919 25.7215L33.5108 26.462ZM33.7037 26.45L33.512 25.7249L33.5119 25.7249L33.7037 26.45ZM33.8773 26.3651L34.3319 26.9616L34.3319 26.9616L33.8773 26.3651ZM34.0558 25.8447L34.7809 25.653L34.7809 25.6529L34.0558 25.8447ZM33.971 25.6711L33.3744 26.1257L33.3744 26.1257L33.971 25.6711ZM33.8261 25.5432L33.449 26.1915L33.449 26.1915L33.8261 25.5432ZM33.6433 25.4805L33.7437 24.7373L32.8933 24.6225V25.4805H33.6433ZM47.3548 26.2166L46.6239 26.3848L46.6241 26.3857L47.3548 26.2166ZM47.2762 26.0418L47.8869 25.6066L47.8869 25.6065L47.2762 26.0418ZM47.2928 26.5873L46.6568 26.1898L46.6568 26.1899L47.2928 26.5873ZM47.1615 26.7269L46.7262 26.1161L46.7262 26.1161L47.1615 26.7269ZM46.9867 26.8055L47.1543 27.5365L47.1549 27.5364L46.9867 26.8055ZM40.9506 27.4876L40.9502 28.2376L40.9504 28.2376L40.9506 27.4876ZM36.3818 27.1147L36.257 27.8542L36.2606 27.8548L36.3818 27.1147ZM35.9794 26.5503L36.7193 26.6733L36.7199 26.669L35.9794 26.5503ZM36.5388 26.143L36.663 25.4033L36.6533 25.4018L36.5388 26.143ZM46.7659 25.8485L46.9324 26.5798L46.935 26.5792L46.7659 25.8485ZM46.9574 25.8426L47.081 25.1029L47.081 25.1029L46.9574 25.8426ZM47.1366 25.9105L46.7391 26.5465L46.7391 26.5465L47.1366 25.9105ZM48.9064 14.3046C47.1918 10.9372 44.7566 7.98883 41.7737 5.66903L40.8529 6.85309C43.6618 9.03765 45.9551 11.8141 47.5697 14.9852L48.9064 14.3046ZM50.8423 32.8173C52.5351 26.6204 51.8439 20.014 48.905 14.3017L47.5711 14.988C50.3384 20.3666 50.9893 26.5871 49.3953 32.422L50.8423 32.8173ZM39.7604 47.7762C45.1954 44.3515 49.1494 39.0142 50.8423 32.8173L49.3953 32.422C47.8013 38.2569 44.0782 43.2825 38.9607 46.5072L39.7604 47.7762ZM39.5315 47.9075C39.6501 47.858 39.7598 47.7895 39.8562 47.7046L38.8649 46.5788C38.8914 46.5555 38.9214 46.5367 38.954 46.5231L39.5315 47.9075ZM23.8574 51.6733C29.3937 52.1419 34.9325 50.8005 39.6409 47.8509L38.8446 46.5797C34.4114 49.3569 29.1965 50.6199 23.9839 50.1787L23.8574 51.6733ZM8.9408 45.2525C13.0865 48.9516 18.3211 51.2048 23.8574 51.6733L23.9839 50.1787C18.7713 49.7375 13.8428 47.616 9.93944 44.1333L8.9408 45.2525ZM8.72774 45.0557C8.8215 45.17 8.93494 45.2666 9.06274 45.341L9.8175 44.0448C9.84422 44.0603 9.86792 44.0805 9.8875 44.1044L8.72774 45.0557ZM2.29335 36.0271C3.76914 39.5057 5.99307 42.6166 8.80706 45.1385L9.80818 44.0215C7.15824 41.6466 5.06397 38.7171 3.67422 35.4412L2.29335 36.0271ZM0.268194 25.0113C0.126118 28.7874 0.81755 32.5484 2.29334 36.0271L3.67422 35.4412C2.28446 32.1654 1.63334 28.6236 1.76713 25.0677L0.268194 25.0113ZM3.11539 14.1789C1.38236 17.5368 0.410269 21.2352 0.268194 25.0113L1.76713 25.0677C1.90093 21.5118 2.81635 18.029 4.44833 14.8668L3.11539 14.1789ZM10.2954 5.58264C7.29981 7.88604 4.84841 10.821 3.11539 14.1789L4.44833 14.8668C6.08032 11.7047 8.3888 8.94085 11.2097 6.77175L10.2954 5.58264ZM20.4474 0.851596C16.7571 1.66396 13.2909 3.27925 10.2954 5.58264L11.2097 6.77175C14.0306 4.60264 17.2947 3.08153 20.7699 2.31652L20.4474 0.851596ZM31.6477 0.882331C27.9619 0.0497212 24.1378 0.0392281 20.4474 0.851596L20.7699 2.31652C24.2452 1.55152 27.8462 1.5614 31.3172 2.34547L31.6477 0.882331ZM41.7737 5.66903C38.7909 3.34923 35.3336 1.71494 31.6477 0.882331L31.3172 2.34547C34.7882 3.12953 38.0439 4.66854 40.8529 6.85309L41.7737 5.66903ZM25.9926 2.77303C30.1628 2.77407 34.256 3.89589 37.844 6.0211L38.6085 4.7305C34.7891 2.46828 30.432 1.27414 25.993 1.27303L25.9926 2.77303ZM14.7137 5.70383C18.1638 3.78499 22.0456 2.77637 25.9934 2.77303L25.9922 1.27303C21.7897 1.27658 17.6573 2.35029 13.9846 4.39293L14.7137 5.70383ZM6.27371 13.7406C8.35901 10.3885 11.2636 7.62266 14.7137 5.70383L13.9846 4.39293C10.3119 6.43558 7.2199 9.37987 5.00005 12.9482L6.27371 13.7406ZM25.3202 13.6061C18.8834 11.7217 12.0933 11.3795 5.49961 12.6071L5.77415 14.0817C12.1363 12.8973 18.6879 13.2275 24.8987 15.0457L25.3202 13.6061ZM46.85 13.7687C39.7909 15.6751 32.3453 15.6184 25.316 13.6049L24.9029 15.0469C32.1947 17.1356 39.9184 17.1944 47.2411 15.2168L46.85 13.7687ZM37.844 6.0211C41.432 8.14631 44.3829 11.1968 46.3879 14.8533L47.7032 14.1321C45.5689 10.2399 42.4278 6.99272 38.6085 4.7305L37.844 6.0211ZM3.36078 33.7769C8.01658 31.7028 13.2112 31.1627 18.1941 32.2346L18.5096 30.7681C13.2157 29.6294 7.69679 30.2032 2.75039 32.4067L3.36078 33.7769ZM10.3188 43.187C7.2575 40.3918 4.99752 36.8303 3.77207 32.8701L2.3391 33.3135C3.64346 37.5287 6.04895 41.3195 9.30736 44.2947L10.3188 43.187ZM19.3017 42.1421C16.0311 41.6063 12.6779 41.9136 9.55928 43.0351L10.0669 44.4466C12.9454 43.4115 16.0404 43.1278 19.0592 43.6224L19.3017 42.1421ZM28.2497 46.0974C25.6521 44.0394 22.5723 42.678 19.3017 42.1421L19.0592 43.6224C22.0779 44.117 24.9206 45.3735 27.3182 47.2732L28.2497 46.0974ZM31.7167 48.8671L28.2521 46.0993L27.3159 47.2713L30.7805 50.0391L31.7167 48.8671ZM37.8772 46.0166C35.7707 47.2724 33.4779 48.1853 31.0847 48.7212L31.4125 50.185C33.9608 49.6143 36.4022 48.6422 38.6453 47.305L37.8772 46.0166ZM31.0816 39.7401L37.7017 47.1601L38.8209 46.1615L32.2008 38.7415L31.0816 39.7401ZM18.1941 32.2346C23.177 33.3064 27.6901 35.9348 31.0813 39.7398L32.2011 38.7418C28.5983 34.6993 23.8035 31.9069 18.5096 30.7681L18.1941 32.2346ZM10.8887 45.1903C13.5557 44.3247 16.3955 44.1321 19.1549 44.6299L19.4212 43.1537C16.4183 42.612 13.328 42.8216 10.4256 43.7636L10.8887 45.1903ZM26.002 49.2871C20.5689 49.2914 15.3074 47.385 11.138 43.9014L10.1763 45.0525C14.6157 48.7617 20.2181 50.7916 26.0032 50.7871L26.002 49.2871ZM29.8575 48.9589C28.5832 49.1744 27.2933 49.2842 26.0009 49.2871L26.0043 50.7871C27.3793 50.784 28.7518 50.6672 30.1075 50.438L29.8575 48.9589ZM26.7029 48.0421L29.5149 50.2848L30.4502 49.1121L27.6382 46.8694L26.7029 48.0421ZM19.1549 44.6299C21.9144 45.1277 24.5079 46.3003 26.7044 48.0433L27.6368 46.8683C25.2465 44.9715 22.4242 43.6954 19.4212 43.1537L19.1549 44.6299ZM31.8134 39.0881L38.5539 46.6227L39.6718 45.6226L32.9314 38.088L31.8134 39.0881ZM23.3677 32.9076C26.5863 34.3502 29.4641 36.4561 31.8129 39.0875L32.9319 38.0887C30.4426 35.2998 27.3925 33.0678 23.9812 31.5388L23.3677 32.9076ZM13.1349 30.7158C16.6621 30.7181 20.149 31.465 23.3677 32.9076L23.9812 31.5388C20.5699 30.0098 16.8742 29.2182 13.1359 29.2158L13.1349 30.7158ZM3.08876 32.8307C6.2532 31.4327 9.67515 30.7123 13.1346 30.7158L13.1361 29.2158C9.46739 29.2121 5.83846 29.9761 2.4826 31.4586L3.08876 32.8307ZM3.10782 16.6073C1.05723 21.5965 0.689473 27.1182 2.0603 32.3353L3.51106 31.9541C2.22315 27.0526 2.56867 21.8649 4.4952 17.1776L3.10782 16.6073ZM4.05772 16.2162C4.11118 16.2174 4.16328 16.2333 4.20821 16.2623L3.39481 17.5226C3.58332 17.6443 3.80192 17.7112 4.02623 17.7159L4.05772 16.2162ZM22.9218 23.2702C17.684 18.7209 10.9796 16.2159 4.04196 16.2161L4.04199 17.7161C10.6182 17.7159 16.9733 20.0904 21.9382 24.4027L22.9218 23.2702ZM41.5291 30.1825C34.6971 30.1876 28.0915 27.7334 22.9201 23.2687L21.9399 24.4041C27.384 29.1042 34.3379 31.6878 41.5302 31.6825L41.5291 30.1825ZM49.5066 29.0211C46.9172 29.7898 44.2304 30.1809 41.5292 30.1825L41.5301 31.6825C44.3755 31.6809 47.2058 31.2688 49.9335 30.459L49.5066 29.0211ZM46.7787 39.4699C48.665 36.5585 49.9194 33.2837 50.4609 29.8571L48.9793 29.623C48.4706 32.8423 47.292 35.919 45.5198 38.6543L46.7787 39.4699ZM39.5228 46.7507C42.4234 44.8573 44.8951 42.3771 46.7787 39.4699L45.5198 38.6543C43.7502 41.3856 41.428 43.7157 38.7029 45.4946L39.5228 46.7507ZM49.6542 27.959C45.202 29.3449 40.4701 29.5735 35.9051 28.6232L35.5994 30.0917C40.4139 31.0939 45.4045 30.8529 50.1 29.3912L49.6542 27.959ZM49.8575 29.4251H49.8771V27.9251H49.8575V29.4251ZM49.2596 26.0292C49.2586 26.8849 49.2094 27.7398 49.1123 28.59L50.6026 28.7602C50.7061 27.8541 50.7585 26.9429 50.7596 26.0309L49.2596 26.0292ZM46.8357 15.7157C48.4333 18.9188 49.2632 22.4499 49.2596 26.0293L50.7596 26.0308C50.7634 22.2185 49.8795 18.4577 48.178 15.0462L46.8357 15.7157ZM36.4767 17.6425C40.2754 17.6586 44.0575 17.1401 47.7117 16.1025L47.302 14.6595C43.7831 15.6588 40.1411 16.158 36.4831 16.1425L36.4767 17.6425ZM24.6276 15.989C28.4814 17.0956 32.4722 17.6522 36.4817 17.6425L36.4781 16.1425C32.6098 16.1519 28.7597 15.6148 25.0416 14.5472L24.6276 15.989ZM5.12208 15.2025C11.5884 13.8586 18.2862 14.1283 24.6235 15.9878L25.0458 14.5484C18.4721 12.6196 11.5244 12.3399 4.81686 13.7339L5.12208 15.2025ZM4.88565 16.2972C5.11336 15.8007 5.3601 15.312 5.6259 14.831L4.31304 14.1054C4.02922 14.619 3.76559 15.1412 3.52219 15.672L4.88565 16.2972ZM23.5646 22.5291C18.191 17.8635 11.3246 15.2758 4.20826 15.2346L4.19957 16.7346C10.9575 16.7737 17.4782 19.231 22.5812 23.6617L23.5646 22.5291ZM35.9051 28.6232C31.34 27.6729 27.0924 25.5751 23.563 22.5277L22.5827 23.6631C26.305 26.877 30.7848 29.0895 35.5994 30.0917L35.9051 28.6232ZM34.2297 6.18377C29.7946 4.34695 24.8726 4.04626 20.2469 5.32954L20.6478 6.77495C24.951 5.58114 29.5299 5.86087 33.6557 7.56961L34.2297 6.18377ZM34.1276 6.16107C34.1556 6.16083 34.1834 6.16582 34.2096 6.17579L33.6758 7.5776C33.8242 7.63409 33.9818 7.66238 34.1406 7.66101L34.1276 6.16107ZM33.982 6.21733C34.0291 6.17991 34.0878 6.16006 34.148 6.16117L34.1202 7.66091C34.4082 7.66624 34.689 7.57122 34.9146 7.39216L33.982 6.21733ZM33.8896 6.36624C33.9022 6.3074 33.9348 6.25475 33.982 6.21733L34.9146 7.39216C35.1402 7.21309 35.2964 6.96113 35.3566 6.67949L33.8896 6.36624ZM33.9131 6.53988C33.8854 6.48648 33.8771 6.42509 33.8896 6.36624L35.3566 6.67949C35.4167 6.39785 35.377 6.10405 35.2442 5.84847L33.9131 6.53988ZM34.0417 6.65895C33.9863 6.63539 33.9408 6.59329 33.9131 6.5399L35.2442 5.84845C35.1115 5.59289 34.894 5.39145 34.6289 5.27869L34.0417 6.65895ZM25.9967 5.08955C28.7586 5.07503 31.4959 5.60961 34.0495 6.66222L34.6211 5.27542C31.8838 4.14706 28.9495 3.574 25.9888 3.58957L25.9967 5.08955ZM20.3723 5.85257C22.203 5.34674 24.0936 5.09009 25.9929 5.08956L25.9925 3.58956C23.9583 3.59013 21.9335 3.865 19.9728 4.40674L20.3723 5.85257ZM20.4645 5.80637C20.4378 5.82729 20.4073 5.84278 20.3746 5.85192L19.9704 4.40739C19.8134 4.45133 19.6666 4.52577 19.5383 4.62645L20.4645 5.80637ZM20.5301 5.72988C20.5135 5.75942 20.4912 5.78541 20.4645 5.80636L19.5383 4.62646C19.41 4.72715 19.3028 4.85212 19.2229 4.99422L20.5301 5.72988ZM20.5614 5.63412C20.5574 5.66779 20.5467 5.70032 20.5301 5.72986L19.2229 4.99424C19.1429 5.13634 19.0917 5.2928 19.0722 5.45469L20.5614 5.63412ZM20.5537 5.53365C20.5629 5.56629 20.5655 5.60042 20.5614 5.6341L19.0722 5.45472C19.0527 5.61662 19.0653 5.78077 19.1092 5.93779L20.5537 5.53365ZM20.5082 5.44376C20.5291 5.47044 20.5446 5.50098 20.5537 5.53363L19.1092 5.93781C19.1531 6.09484 19.2276 6.24168 19.3283 6.36996L20.5082 5.44376ZM20.4317 5.37816C20.4612 5.3948 20.4872 5.41709 20.5082 5.44375L19.3283 6.36996C19.429 6.49822 19.5539 6.60541 19.696 6.68538L20.4317 5.37816ZM20.3359 5.34682C20.3696 5.35088 20.4021 5.36153 20.4317 5.37816L19.696 6.68538C19.8382 6.76536 19.9946 6.81656 20.1565 6.83606L20.3359 5.34682ZM20.2355 5.35452C20.2681 5.34538 20.3023 5.34277 20.3359 5.34682L20.1565 6.83606C20.3184 6.85556 20.4826 6.84299 20.6396 6.79905L20.2355 5.35452ZM19.751 5.7737L19.7412 5.79824L21.1339 6.35533L21.1437 6.33079L19.751 5.7737ZM14.2677 8.05042C14.3092 8.02255 14.3578 8.00725 14.4077 8.00635L14.4347 9.50611C14.6737 9.5018 14.9064 9.42856 15.1047 9.29518L14.2677 8.05042ZM17.8351 6.16878C16.5929 6.68188 15.4014 7.30997 14.2761 8.04485L15.0963 9.30075C16.1433 8.61698 17.252 8.03258 18.4078 7.55516L17.8351 6.16878ZM17.7521 6.22419C17.7763 6.20017 17.8049 6.18116 17.8364 6.16823L18.4064 7.55571C18.5571 7.4938 18.6942 7.40281 18.8097 7.28792L17.7521 6.22419ZM17.6957 6.30812C17.7088 6.27672 17.728 6.24819 17.7521 6.22419L18.8097 7.28792C18.9253 7.17304 19.0171 7.03652 19.0799 6.88618L17.6957 6.30812ZM17.6757 6.40729C17.6758 6.37323 17.6826 6.33953 17.6957 6.30812L19.0799 6.88618C19.1426 6.73584 19.1752 6.57459 19.1757 6.41164L17.6757 6.40729ZM17.6951 6.50656C17.6822 6.47506 17.6756 6.44132 17.6757 6.40726L19.1757 6.41166C19.1762 6.24871 19.1445 6.08726 19.0826 5.93654L17.6951 6.50656ZM17.7511 6.59082C17.7271 6.56668 17.7081 6.53805 17.6951 6.50654L19.0826 5.93656C19.0207 5.78584 18.9297 5.64879 18.8148 5.53325L17.7511 6.59082ZM17.835 6.64727C17.8036 6.63414 17.7751 6.61496 17.7511 6.59082L18.8148 5.53325C18.7 5.4177 18.5634 5.32591 18.4131 5.26312L17.835 6.64727ZM17.9342 6.66729C17.9001 6.66719 17.8665 6.66039 17.835 6.64726L18.4131 5.26312C18.2627 5.20033 18.1015 5.16777 17.9385 5.16729L17.9342 6.66729ZM18.0335 6.64784C18.002 6.66078 17.9682 6.66739 17.9342 6.66729L17.9385 5.16729C17.7756 5.16682 17.6142 5.19844 17.4635 5.26036L18.0335 6.64784ZM14.5471 8.48094C15.6483 7.76077 16.8154 7.14705 18.0329 6.64807L17.464 5.26013C16.1585 5.7952 14.9069 6.45332 13.7261 7.22559L14.5471 8.48094ZM14.6597 8.31676C14.6456 8.3838 14.6056 8.44254 14.5483 8.48014L13.7249 7.22639C13.4509 7.40636 13.2592 7.68746 13.1918 8.00828L14.6597 8.31676ZM14.6235 8.12237C14.6608 8.17984 14.6738 8.24973 14.6597 8.31676L13.1918 8.00828C13.1244 8.3291 13.1867 8.66357 13.3651 8.93861L14.6235 8.12237ZM14.5286 8.03649C14.5682 8.05738 14.6016 8.08815 14.6257 8.12578L13.3629 8.93519C13.4783 9.11532 13.6384 9.26253 13.8275 9.36254L14.5286 8.03649ZM14.4002 8.00652C14.4449 8.00527 14.4891 8.01559 14.5286 8.03649L13.8275 9.36254C14.0166 9.46254 14.2284 9.51194 14.4423 9.50593L14.4002 8.00652ZM32.3889 25.9546L33.4488 26.2392L33.8378 24.7905L32.7779 24.5059L32.3889 25.9546ZM32.4664 25.9573C32.4318 25.9609 32.3968 25.9575 32.3635 25.9473L32.8032 24.5132C32.644 24.4644 32.4766 24.4481 32.311 24.4654L32.4664 25.9573ZM32.565 25.9263C32.5345 25.9431 32.501 25.9537 32.4664 25.9573L32.311 24.4654C32.1453 24.4826 31.9849 24.533 31.8392 24.6136L32.565 25.9263ZM32.6436 25.8593C32.6222 25.8867 32.5954 25.9095 32.565 25.9263L31.8392 24.6136C31.6934 24.6942 31.5654 24.8033 31.4627 24.9344L32.6436 25.8593ZM32.6898 25.7669C32.6808 25.8005 32.6651 25.8319 32.6436 25.8593L31.4627 24.9344C31.3601 25.0654 31.2848 25.2159 31.2415 25.3766L32.6898 25.7669ZM32.6963 25.6637C32.7011 25.6982 32.6989 25.7333 32.6898 25.7669L31.2415 25.3766C31.1982 25.5374 31.1877 25.7053 31.2106 25.8702L32.6963 25.6637ZM32.662 25.5663C32.6799 25.5962 32.6915 25.6293 32.6963 25.6637L31.2106 25.8702C31.2335 26.0351 31.2894 26.1937 31.3749 26.3367L32.662 25.5663ZM32.5923 25.49C32.6204 25.5105 32.6441 25.5364 32.662 25.5663L31.3749 26.3367C31.4604 26.4795 31.5738 26.6037 31.7084 26.7019L32.5923 25.49ZM32.4983 25.4469C32.5322 25.4548 32.5642 25.4694 32.5923 25.49L31.7084 26.7019C31.8429 26.8 31.9958 26.87 32.158 26.9078L32.4983 25.4469ZM33.5786 25.7379L32.5235 25.4533L32.1328 26.9015L33.1879 27.1861L33.5786 25.7379ZM33.3919 25.7215C33.4284 25.7156 33.4657 25.7156 33.5022 25.7215L33.2643 27.2025C33.3854 27.2219 33.5087 27.2219 33.6298 27.2025L33.3919 25.7215ZM33.5119 25.7249C33.5443 25.7164 33.578 25.7143 33.6112 25.7187L33.4105 27.2053C33.5726 27.2271 33.7373 27.2169 33.8954 27.1751L33.5119 25.7249ZM33.4227 25.7686C33.4493 25.7483 33.4796 25.7335 33.512 25.7249L33.8954 27.1751C34.0535 27.1333 34.2018 27.0607 34.3319 26.9616L33.4227 25.7686ZM33.3568 25.8431C33.3737 25.8142 33.396 25.7889 33.4226 25.7686L34.3319 26.9616C34.4619 26.8625 34.5712 26.7387 34.6534 26.5974L33.3568 25.8431ZM33.3246 25.9371C33.3291 25.904 33.34 25.8721 33.3568 25.8431L34.6534 26.5974C34.7356 26.456 34.7892 26.2999 34.8111 26.1379L33.3246 25.9371ZM33.3308 26.0364C33.3222 26.0041 33.3201 25.9703 33.3246 25.9371L34.8111 26.1379C34.833 25.9758 34.8227 25.811 34.7809 25.653L33.3308 26.0364ZM33.3744 26.1257C33.3542 26.0991 33.3393 26.0688 33.3308 26.0364L34.7809 25.6529C34.7391 25.4948 34.6666 25.3465 34.5675 25.2165L33.3744 26.1257ZM33.449 26.1915C33.42 26.1747 33.3947 26.1523 33.3744 26.1257L34.5675 25.2165C34.4684 25.0864 34.3446 24.9772 34.2032 24.8949L33.449 26.1915ZM33.543 26.2238C33.5099 26.2193 33.4779 26.2083 33.449 26.1915L34.2033 24.8949C34.0619 24.8127 33.9057 24.7591 33.7437 24.7373L33.543 26.2238ZM34.3933 25.5149V25.4805H32.8933V25.5149H34.3933ZM48.0857 26.0484C48.0491 25.8895 47.9816 25.7393 47.8869 25.6066L46.6654 26.4771C46.6456 26.4494 46.6315 26.418 46.6239 26.3848L48.0857 26.0484ZM48.1004 26.5318C48.1273 26.3709 48.1222 26.2064 48.0855 26.0475L46.6241 26.3857C46.6164 26.3525 46.6153 26.3181 46.621 26.2845L48.1004 26.5318ZM47.9288 26.9848C48.0152 26.8466 48.0736 26.6926 48.1004 26.5318L46.621 26.2845C46.6266 26.2509 46.6388 26.2187 46.6568 26.1898L47.9288 26.9848ZM47.5967 27.3376C47.7296 27.243 47.8424 27.1231 47.9288 26.9848L46.6568 26.1899C46.6749 26.161 46.6984 26.1359 46.7262 26.1161L47.5967 27.3376ZM47.1549 27.5364C47.3138 27.4998 47.464 27.4323 47.5968 27.3376L46.7262 26.1161C46.754 26.0963 46.7853 26.0822 46.8185 26.0746L47.1549 27.5364ZM40.9504 28.2376C43.0382 28.2381 45.1193 28.0029 47.1543 27.5365L46.8192 26.0744C44.8942 26.5156 42.9256 26.7381 40.9508 26.7376L40.9504 28.2376ZM36.2606 27.8548C37.8109 28.1088 39.3792 28.2368 40.9502 28.2376L40.951 26.7376C39.461 26.7368 37.9735 26.6154 36.5031 26.3745L36.2606 27.8548ZM35.4533 27.3511C35.644 27.6186 35.933 27.7995 36.257 27.8542L36.5067 26.3751C36.5744 26.3865 36.6347 26.4243 36.6746 26.4802L35.4533 27.3511ZM35.2396 26.4273C35.1857 26.7514 35.2626 27.0836 35.4533 27.3511L36.6746 26.4802C36.7145 26.5361 36.7305 26.6055 36.7193 26.6733L35.2396 26.4273ZM35.7337 25.6249C35.4686 25.8179 35.2908 26.1079 35.2389 26.4316L36.7199 26.669C36.7091 26.7366 36.6719 26.7972 36.6166 26.8376L35.7337 25.6249ZM36.6533 25.4018C36.3293 25.3517 35.9987 25.432 35.7337 25.6249L36.6166 26.8376C36.5612 26.8779 36.4921 26.8947 36.4244 26.8842L36.6533 25.4018ZM46.5994 25.1173C43.3376 25.8598 39.9621 25.957 36.663 25.4033L36.4147 26.8826C39.9068 27.4687 43.4798 27.3659 46.9324 26.5798L46.5994 25.1173ZM47.081 25.1029C46.9202 25.076 46.7557 25.0811 46.5968 25.1179L46.935 26.5792C46.9018 26.5869 46.8674 26.588 46.8338 26.5824L47.081 25.1029ZM47.5341 25.2745C47.3958 25.1881 47.2419 25.1298 47.081 25.1029L46.8338 26.5824C46.8002 26.5767 46.768 26.5646 46.7391 26.5465L47.5341 25.2745ZM47.8869 25.6065C47.7923 25.4738 47.6724 25.3609 47.5341 25.2745L46.7391 26.5465C46.7102 26.5284 46.6852 26.5049 46.6654 26.4771L47.8869 25.6065Z" fill="white"/>
</svg>
